<svg id="Layer_1" data-name="Layer 1" xmlns="http://www.w3.org/2000/svg" viewBox="0 0 190 35">
  <title>comunita_logo_svg_white</title>
  <g>
    <path d="M24.83,12.6a8.71,8.71,0,1,0-15.65,0A16.31,16.31,0,0,0,5.4,23.31a16,16,0,0,0,4.43,11.4.75.75,0,0,0,.51.21H23.67a.75.75,0,0,0,.51-.21,16,16,0,0,0,4.44-11.4A16.27,16.27,0,0,0,24.83,12.6Zm-14.24.61a.72.72,0,0,0,.1-.85,7.35,7.35,0,0,1-.94-3.57,7.26,7.26,0,1,1,13.57,3.57.73.73,0,0,0,.11.85,12.57,12.57,0,0,1,2,2.81A22.31,22.31,0,0,0,20,13.72a5.81,5.81,0,1,0-6.07,0A22.08,22.08,0,0,0,8.61,16,12.26,12.26,0,0,1,10.59,13.21ZM17,13.15a4.37,4.37,0,0,1-4.36-4.36s0,0,0-.06a5.45,5.45,0,0,0,1.5-.4.71.71,0,0,0,.67.46.73.73,0,0,0,.73-.72.78.78,0,0,0-.18-.47A6.71,6.71,0,0,0,17,5.81,6.4,6.4,0,0,0,18.64,7.6a.72.72,0,0,0,.54,1.19.73.73,0,0,0,.68-.46,5.38,5.38,0,0,0,1.49.4.13.13,0,0,1,0,.06A4.36,4.36,0,0,1,17,13.15ZM19.54,17c-.95-.46-1.81-1.09-1.81-1.69A.72.72,0,0,0,17,14.6a.73.73,0,0,0-.73.72c0,.59-.85,1.22-1.8,1.69.41-1.08,1.19-2.41,2.53-2.41S19.14,15.94,19.54,17ZM13,7.24a4.36,4.36,0,0,1,3.11-2.69A4.88,4.88,0,0,1,13,7.24Zm5-2.69a4.36,4.36,0,0,1,3.11,2.69A4.9,4.9,0,0,1,18,4.55Zm-10.39,14a18.38,18.38,0,0,1,6.12-3.25,9.32,9.32,0,0,0-1,2.79.73.73,0,0,0,.24.66.7.7,0,0,0,.48.18.76.76,0,0,0,.21,0A8.57,8.57,0,0,0,17,17a8.45,8.45,0,0,0,3.42,1.94.76.76,0,0,0,.21,0,.69.69,0,0,0,.47-.18.73.73,0,0,0,.24-.66,9.16,9.16,0,0,0-1-2.79,18.48,18.48,0,0,1,6.12,3.25,16.42,16.42,0,0,1,.71,4.74H6.85A16.08,16.08,0,0,1,7.56,18.57Zm15.81,14.9H10.64a14.31,14.31,0,0,1-3.73-8.71H27.1A14.26,14.26,0,0,1,23.37,33.47Z" style="fill: #fff"/>
    <path d="M16,11.59c0,.28.44.51,1,.51s1-.23,1-.51S16,11.31,16,11.59Z" style="fill: #fff"/>
  </g>
  <g>
    <path d="M48.21,32.33a1.85,1.85,0,0,1-.43,1.24,1.88,1.88,0,0,1-1.47.5,2.12,2.12,0,0,1-1.65-.54,1.94,1.94,0,0,1-.49-1.35V31.07a3.53,3.53,0,0,0-.36-1.82,1.42,1.42,0,0,0-1.31-.57H40.25v3.74c0,.45.55.68,1.65.68V34H36.65V33.1c.89,0,1.33-.23,1.33-.68V24.49c0-.45-.44-.68-1.33-.68v-.88H43a9.73,9.73,0,0,1,1.43.1,3.42,3.42,0,0,1,1.23.39,2.2,2.2,0,0,1,.87.84,2.73,2.73,0,0,1,.33,1.43,2.66,2.66,0,0,1-.18,1,2.39,2.39,0,0,1-.47.75,2.14,2.14,0,0,1-.66.5,3.12,3.12,0,0,1-.77.29,2.8,2.8,0,0,1,.69.35,1.72,1.72,0,0,1,.52.55,2.32,2.32,0,0,1,.33.8,5.34,5.34,0,0,1,.11,1.13v1.37a.66.66,0,0,0,.14.48.41.41,0,0,0,.34.16.44.44,0,0,0,.36-.16.71.71,0,0,0,.14-.48v-.71h.79Zm-8-8.15v3.5h2.43a2,2,0,0,0,1.37-.41,1.72,1.72,0,0,0,.47-1.38c0-1.14-.61-1.71-1.84-1.71Z" style="fill: #fff"/>
    <path d="M60,23.82c-.89,0-1.33.23-1.33.69v4.95a7.6,7.6,0,0,1-.25,2A3.6,3.6,0,0,1,57.59,33a3.34,3.34,0,0,1-1.39.93,6.18,6.18,0,0,1-2.1.32A6.47,6.47,0,0,1,52,33.88a3.5,3.5,0,0,1-2.29-2.42,7.18,7.18,0,0,1-.26-2V24.51q0-.69-1.32-.69V23h5.19v.87a3.26,3.26,0,0,0-1.22.17.57.57,0,0,0-.38.52v4.95A8.63,8.63,0,0,0,51.81,31a2.66,2.66,0,0,0,.46,1.08,1.92,1.92,0,0,0,.86.63,3.85,3.85,0,0,0,1.37.2,4,4,0,0,0,1.38-.2,2,2,0,0,0,.89-.63A2.69,2.69,0,0,0,57.26,31a7.74,7.74,0,0,0,.14-1.55V24.51A.56.56,0,0,0,57,24a3.36,3.36,0,0,0-1.23-.17V23H60Z" style="fill: #fff"/>
    <path d="M69.45,26.79l-1,.14a3.57,3.57,0,0,0-.4-1.34,3,3,0,0,0-.79-.94,3.25,3.25,0,0,0-1.1-.55,5.2,5.2,0,0,0-1.35-.17,3.64,3.64,0,0,0-1.77.37,1.27,1.27,0,0,0-.68,1.2,1,1,0,0,0,.33.79,2.36,2.36,0,0,0,.86.48,8.21,8.21,0,0,0,1.23.3l1.4.26c.47.1.94.22,1.4.36a4.38,4.38,0,0,1,1.23.59,3.09,3.09,0,0,1,.86,1A3,3,0,0,1,70,30.73a3.65,3.65,0,0,1-.3,1.54,2.71,2.71,0,0,1-.87,1.08,3.6,3.6,0,0,1-1.35.64,6.77,6.77,0,0,1-1.75.21A6.07,6.07,0,0,1,64,34a5.08,5.08,0,0,1-1.29-.59.88.88,0,0,0-.5-.18c-.07,0-.18.07-.33.22a1.42,1.42,0,0,0-.34.52h-1V29.9l1-.09a3.11,3.11,0,0,0,.37,1.29,3.24,3.24,0,0,0,.82,1,3.76,3.76,0,0,0,1.23.63,4.88,4.88,0,0,0,1.57.23,3.22,3.22,0,0,0,1.93-.49,1.82,1.82,0,0,0,.67-1.57.86.86,0,0,0-.21-.58,1.85,1.85,0,0,0-.56-.39,5,5,0,0,0-.82-.26c-.31-.07-.63-.13-1-.18l-1-.17a10,10,0,0,1-1-.23,6.35,6.35,0,0,1-1.21-.43,3.35,3.35,0,0,1-.9-.65,2.72,2.72,0,0,1-.56-.93,3.92,3.92,0,0,1-.2-1.31,3.3,3.3,0,0,1,.19-1.12,2.44,2.44,0,0,1,.65-1A3.15,3.15,0,0,1,62.67,23a5.19,5.19,0,0,1,1.8-.26,6.61,6.61,0,0,1,1.67.18,5.36,5.36,0,0,1,1.21.49,1.08,1.08,0,0,0,.55.17.66.66,0,0,0,.39-.19,1.62,1.62,0,0,0,.36-.43h.8Z" style="fill: #fff"/>
    <path d="M79.39,26.79l-1,.14a3.57,3.57,0,0,0-.4-1.34,3,3,0,0,0-.78-.94,3.44,3.44,0,0,0-1.1-.55,5.31,5.31,0,0,0-1.35-.17A3.65,3.65,0,0,0,73,24.3a1.26,1.26,0,0,0-.67,1.2,1,1,0,0,0,.32.79,2.44,2.44,0,0,0,.86.48,8.53,8.53,0,0,0,1.23.3l1.4.26q.72.15,1.41.36a4.32,4.32,0,0,1,1.22.59,2.81,2.81,0,0,1,1.19,2.45,3.5,3.5,0,0,1-.31,1.54,2.77,2.77,0,0,1-.86,1.08,3.64,3.64,0,0,1-1.36.64,6.72,6.72,0,0,1-1.75.21A6.12,6.12,0,0,1,74,34a4.86,4.86,0,0,1-1.28-.59.93.93,0,0,0-.51-.18c-.07,0-.18.07-.32.22a1.45,1.45,0,0,0-.35.52h-1V29.9l1-.09a3.27,3.27,0,0,0,.37,1.29,3.39,3.39,0,0,0,.82,1,3.86,3.86,0,0,0,1.23.63,4.88,4.88,0,0,0,1.57.23,3.18,3.18,0,0,0,1.93-.49,1.82,1.82,0,0,0,.67-1.57.86.86,0,0,0-.21-.58,1.63,1.63,0,0,0-.56-.39,5,5,0,0,0-.82-.26c-.3-.07-.63-.13-1-.18l-1-.17c-.35-.06-.69-.14-1-.23a6,6,0,0,1-1.2-.43,3.06,3.06,0,0,1-.9-.65,2.91,2.91,0,0,1-.57-.93,3.92,3.92,0,0,1-.2-1.31,3.31,3.31,0,0,1,.2-1.12,2.42,2.42,0,0,1,.64-1A3.23,3.23,0,0,1,72.6,23a5.27,5.27,0,0,1,1.8-.26,6.75,6.75,0,0,1,1.68.18,5.47,5.47,0,0,1,1.2.49,1.11,1.11,0,0,0,.55.17.63.63,0,0,0,.39-.19,1.49,1.49,0,0,0,.37-.43h.8Z" style="fill: #fff"/>
    <path d="M91,32.66c.09.29.5.44,1.21.44V34H86.8V33.1h1.31c.28,0,.43-.09.43-.28a.64.64,0,0,0-.05-.16l-.59-1.61H83.34l-.55,1.49a.57.57,0,0,0,0,.18c0,.25.22.38.65.38h.92V34h-4v-.87A2.93,2.93,0,0,0,81.2,33a.54.54,0,0,0,.37-.31l3.71-9.74h2.16ZM83.72,30h3.81l-1.89-5.22Z" style="fill: #fff"/>
    <path d="M103.06,23a11.91,11.91,0,0,1,2.37.2,3.72,3.72,0,0,1,1.72.76,3.37,3.37,0,0,1,1,1.59,8.54,8.54,0,0,1,.34,2.67,9.54,9.54,0,0,1-.34,2.78,4,4,0,0,1-1,1.78,3.86,3.86,0,0,1-1.72,1,8.86,8.86,0,0,1-2.37.28H97.27v-.84q1.32,0,1.32-.69V24.49c0-.45-.44-.68-1.32-.68v-.88Zm-2.2,1.15v8.71h2.43a2.89,2.89,0,0,0,1.39-.31,2.24,2.24,0,0,0,.89-.89,4.06,4.06,0,0,0,.47-1.45,12.6,12.6,0,0,0,.14-2,11.19,11.19,0,0,0-.14-1.88,3.12,3.12,0,0,0-.47-1.27,2,2,0,0,0-.89-.72,3.7,3.7,0,0,0-1.39-.23Z" style="fill: #fff"/>
    <path d="M114.18,23.81c-.88,0-1.32.23-1.32.68v7.94q0,.69,1.32.69V34h-4.93v-.84c.89,0,1.34-.23,1.34-.69V24.49c0-.45-.45-.68-1.34-.68v-.88h4.93Z" style="fill: #fff"/>
    <path d="M130.5,27.47l-.94.05a10.63,10.63,0,0,0-.21-1.66,3.47,3.47,0,0,0-.42-1.05,1.45,1.45,0,0,0-.64-.55,2.3,2.3,0,0,0-.88-.16h-1.34v8.33c0,.46.45.69,1.34.69V34h-4.93v-.84q1.32,0,1.32-.69V24.1h-1.35a2.34,2.34,0,0,0-.88.16,1.48,1.48,0,0,0-.63.55,3.24,3.24,0,0,0-.41,1.05,9.44,9.44,0,0,0-.22,1.66l-.93-.05V23H130.5Z" style="fill: #fff"/>
    <path d="M136.72,22.71a7.7,7.7,0,0,1,2.2.3,4.27,4.27,0,0,1,1.76,1,4.57,4.57,0,0,1,1.15,1.77,7.83,7.83,0,0,1,.41,2.7,7.68,7.68,0,0,1-.35,2.38,5,5,0,0,1-1.07,1.81,4.77,4.77,0,0,1-1.8,1.15,6.94,6.94,0,0,1-2.52.41,8.06,8.06,0,0,1-2.19-.28,4.43,4.43,0,0,1-1.74-.93,4.51,4.51,0,0,1-1.16-1.71,7,7,0,0,1-.42-2.6,9.09,9.09,0,0,1,.32-2.48,4.77,4.77,0,0,1,1-1.88,4.52,4.52,0,0,1,1.78-1.2A7.43,7.43,0,0,1,136.72,22.71Zm.07,1.22a4.27,4.27,0,0,0-1.59.27,2.67,2.67,0,0,0-1.09.8,3.28,3.28,0,0,0-.62,1.27,6.94,6.94,0,0,0-.2,1.72,11.12,11.12,0,0,0,.22,2.46,4,4,0,0,0,.64,1.52,2.15,2.15,0,0,0,1,.77,4.59,4.59,0,0,0,3-.08,2.43,2.43,0,0,0,1.07-.84,3.62,3.62,0,0,0,.58-1.38,9,9,0,0,0,.18-1.9,9.5,9.5,0,0,0-.23-2.27,3.7,3.7,0,0,0-.65-1.41,2.24,2.24,0,0,0-1-.73A4.08,4.08,0,0,0,136.79,23.93Z" style="fill: #fff"/>
    <path d="M154.3,32.33a1.8,1.8,0,0,1-.43,1.24,1.88,1.88,0,0,1-1.47.5,2.15,2.15,0,0,1-1.65-.54,1.94,1.94,0,0,1-.49-1.35V31.07a3.53,3.53,0,0,0-.36-1.82,1.4,1.4,0,0,0-1.3-.57h-2.26v3.74c0,.45.55.68,1.65.68V34h-5.24V33.1c.88,0,1.32-.23,1.32-.68V24.49c0-.45-.44-.68-1.32-.68v-.88h6.35a9.63,9.63,0,0,1,1.43.1,3.47,3.47,0,0,1,1.24.39,2.34,2.34,0,0,1,.87.84,2.83,2.83,0,0,1,.32,1.43,2.66,2.66,0,0,1-.18,1,2.36,2.36,0,0,1-.46.75,2.3,2.3,0,0,1-.67.5,3,3,0,0,1-.77.29,2.49,2.49,0,0,1,.69.35,1.86,1.86,0,0,1,.53.55,2.53,2.53,0,0,1,.32.8,4.75,4.75,0,0,1,.11,1.13v1.37a.71.71,0,0,0,.14.48.41.41,0,0,0,.34.16.44.44,0,0,0,.37-.16.71.71,0,0,0,.13-.48v-.71h.79Zm-8-8.15v3.5h2.44a2,2,0,0,0,1.36-.41,1.72,1.72,0,0,0,.48-1.38c0-1.14-.62-1.71-1.84-1.71Z" style="fill: #fff"/>
    <path d="M159.72,23.81c-.88,0-1.32.23-1.32.68v7.94q0,.69,1.32.69V34h-4.93v-.84c.89,0,1.34-.23,1.34-.69V24.49c0-.45-.45-.68-1.34-.68v-.88h4.93Z" style="fill: #fff"/>
    <path d="M172.61,23.81c-.88,0-1.32.23-1.32.68V34h-2.75l-5.6-8.89v7.36q0,.69,1.32.69V34h-3.87v-.84q1.32,0,1.32-.69V24.49c0-.45-.44-.68-1.32-.68v-.88h4l5.68,9.12V24.49c0-.45-.44-.68-1.32-.68v-.88h3.88Z" style="fill: #fff"/>
    <path d="M178.68,22.71a7.82,7.82,0,0,1,2.21.3,4.3,4.3,0,0,1,1.75,1,4.57,4.57,0,0,1,1.15,1.77,7.83,7.83,0,0,1,.41,2.7,7.39,7.39,0,0,1-.35,2.38,5,5,0,0,1-1.07,1.81,4.77,4.77,0,0,1-1.8,1.15,6.94,6.94,0,0,1-2.52.41,8.11,8.11,0,0,1-2.19-.28,4.43,4.43,0,0,1-1.74-.93,4.51,4.51,0,0,1-1.16-1.71,7,7,0,0,1-.42-2.6,8.71,8.71,0,0,1,.33-2.48,4.63,4.63,0,0,1,1-1.88,4.52,4.52,0,0,1,1.78-1.2A7.43,7.43,0,0,1,178.68,22.71Zm.07,1.22a4.18,4.18,0,0,0-1.58.27,2.71,2.71,0,0,0-1.1.8,3.28,3.28,0,0,0-.62,1.27,6.94,6.94,0,0,0-.2,1.72,11.12,11.12,0,0,0,.22,2.46,4,4,0,0,0,.64,1.52,2.15,2.15,0,0,0,1,.77,4,4,0,0,0,1.34.21,4.06,4.06,0,0,0,1.65-.29,2.46,2.46,0,0,0,1.06-.84,3.62,3.62,0,0,0,.58-1.38,9,9,0,0,0,.18-1.9,9.5,9.5,0,0,0-.23-2.27,3.85,3.85,0,0,0-.64-1.41,2.33,2.33,0,0,0-1-.73A4.08,4.08,0,0,0,178.75,23.93Z" style="fill: #fff"/>
  </g>
  <g>
    <path d="M52.94,7.21l-1.79.14a6.22,6.22,0,0,0-1.87-3.3A5.15,5.15,0,0,0,45.7,2.8a6.19,6.19,0,0,0-2.77.57,4.9,4.9,0,0,0-1.87,1.56A6.75,6.75,0,0,0,40,7.33a12.73,12.73,0,0,0-.35,3.06,10.8,10.8,0,0,0,.43,3.19,6.34,6.34,0,0,0,1.2,2.25,4.73,4.73,0,0,0,1.84,1.33,6,6,0,0,0,2.36.44,6.22,6.22,0,0,0,4-1.18,6.68,6.68,0,0,0,2.13-3.34l1.64.56a11.83,11.83,0,0,1-.95,2.28,7.25,7.25,0,0,1-1.55,2,7.5,7.5,0,0,1-2.32,1.39,9.14,9.14,0,0,1-3.26.52,11.89,11.89,0,0,1-3.69-.56,8.43,8.43,0,0,1-3-1.72,8,8,0,0,1-2-2.9,10.62,10.62,0,0,1-.73-4.13,11.7,11.7,0,0,1,.72-4.3,7.92,7.92,0,0,1,4.93-4.78A10.74,10.74,0,0,1,45,.8a8.83,8.83,0,0,1,3.39.59,6.21,6.21,0,0,1,2.12,1.36l.61-1.54h1.81Z" style="fill: #fff"/>
    <path d="M63.53.85a12.79,12.79,0,0,1,3.63.49,7.12,7.12,0,0,1,2.89,1.6,7.32,7.32,0,0,1,1.89,2.92,12.47,12.47,0,0,1,.69,4.44A12.27,12.27,0,0,1,72,14.22a7.86,7.86,0,0,1-1.76,3,7.73,7.73,0,0,1-3,1.91,11.75,11.75,0,0,1-4.16.67,13.27,13.27,0,0,1-3.59-.46,7.16,7.16,0,0,1-2.88-1.54A7.37,7.37,0,0,1,54.78,15a11.63,11.63,0,0,1-.69-4.28,14.37,14.37,0,0,1,.54-4.09,7.88,7.88,0,0,1,1.68-3.1,7.48,7.48,0,0,1,2.94-2A12.12,12.12,0,0,1,63.53.85Zm.12,2A6.74,6.74,0,0,0,61,3.31a4.39,4.39,0,0,0-1.79,1.3,5.55,5.55,0,0,0-1,2.11,11.13,11.13,0,0,0-.33,2.84,18,18,0,0,0,.37,4,6.52,6.52,0,0,0,1,2.5A3.52,3.52,0,0,0,61,17.37a6.35,6.35,0,0,0,2.2.36,6.83,6.83,0,0,0,2.72-.48,4.19,4.19,0,0,0,1.76-1.39,6,6,0,0,0,1-2.28,14.48,14.48,0,0,0,.3-3.12,15.43,15.43,0,0,0-.38-3.74,6.31,6.31,0,0,0-1.07-2.33A3.52,3.52,0,0,0,65.79,3.2,6.32,6.32,0,0,0,63.65,2.85Z" style="fill: #fff"/>
    <path d="M97.41,2.66c-1.47,0-2.2.37-2.2,1.12V16.87c0,.75.73,1.13,2.2,1.13v1.39h-8V18c1.45,0,2.17-.38,2.17-1.13V4.05L86.21,19.39H83L77.67,4.05V16.87c0,.75.72,1.13,2.18,1.13v1.39H73.46V18c1.45,0,2.18-.38,2.18-1.13V3.78c0-.75-.73-1.12-2.18-1.12V1.21h7.29L85.59,15.5,90.44,1.21h7Z" style="fill: #fff"/>
    <path d="M117.79,2.68c-1.47,0-2.2.38-2.2,1.13V12a12.29,12.29,0,0,1-.41,3.29,6.14,6.14,0,0,1-1.28,2.46,5.61,5.61,0,0,1-2.3,1.53,10,10,0,0,1-3.45.52,10.49,10.49,0,0,1-3.52-.52,5.76,5.76,0,0,1-3.78-4,11.5,11.5,0,0,1-.43-3.29V3.81c0-.75-.73-1.13-2.18-1.13V1.24h8.56V2.68a5.36,5.36,0,0,0-2,.28.91.91,0,0,0-.63.85V12a13.34,13.34,0,0,0,.22,2.54,4.46,4.46,0,0,0,.75,1.78,3.16,3.16,0,0,0,1.42,1,6.56,6.56,0,0,0,2.26.34,6.68,6.68,0,0,0,2.26-.34,3.4,3.4,0,0,0,1.48-1,4.23,4.23,0,0,0,.8-1.78,12.51,12.51,0,0,0,.23-2.54V3.81a.91.91,0,0,0-.64-.85,5.52,5.52,0,0,0-2-.28V1.24h6.88Z" style="fill: #fff"/>
    <path d="M138.68,2.66c-1.45,0-2.18.37-2.18,1.12V19.39H132L122.75,4.74V16.87c0,.75.73,1.13,2.18,1.13v1.39h-6.38V18c1.45,0,2.17-.38,2.17-1.13V3.78c0-.75-.72-1.12-2.17-1.12V1.21h6.55l9.37,15V3.78c0-.75-.72-1.12-2.18-1.12V1.21h6.39Z" style="fill: #fff"/>
    <path d="M147.61,2.66c-1.45,0-2.18.37-2.18,1.12V16.87c0,.75.73,1.13,2.18,1.13v1.39h-8.12V18c1.46,0,2.2-.38,2.2-1.13V3.78c0-.75-.74-1.12-2.2-1.12V1.21h8.12Z" style="fill: #fff"/>
    <path d="M167,8.7l-1.54.07a15.8,15.8,0,0,0-.36-2.72,5.49,5.49,0,0,0-.68-1.74,2.45,2.45,0,0,0-1-.91A3.76,3.76,0,0,0,162,3.15h-2.21V16.87c0,.75.73,1.13,2.2,1.13v1.39h-8.12V18c1.45,0,2.18-.38,2.18-1.13V3.15h-2.23a3.74,3.74,0,0,0-1.44.25,2.37,2.37,0,0,0-1,.91,5.48,5.48,0,0,0-.69,1.74,15.92,15.92,0,0,0-.35,2.72l-1.54-.07V1.24H167Z" style="fill: #fff"/>
    <path d="M182.2,17.24c.16.49.83.73,2,.73v1.42h-8.95V18h2.15c.48,0,.71-.15.71-.46a.87.87,0,0,0-.07-.27l-1-2.64h-7.51l-.9,2.44a.79.79,0,0,0-.05.3c0,.42.35.63,1.07.63h1.52v1.42h-6.68V18a5.1,5.1,0,0,0,1.52-.17.93.93,0,0,0,.61-.52l6.11-16h3.55Zm-12-4.45h6.26l-3.11-8.62Z" style="fill: #fff"/>
  </g>
</svg>
