<svg id="Layer_1" data-name="Layer 1" xmlns="http://www.w3.org/2000/svg" viewBox="0 0 190 35">
  <title>comunita_logo_svg_color</title>
  <path d="M24.83,12.68a8.71,8.71,0,1,0-15.65,0A16.35,16.35,0,0,0,5.4,23.39a16,16,0,0,0,4.43,11.4.75.75,0,0,0,.51.21H23.67a.75.75,0,0,0,.51-.21,16,16,0,0,0,4.44-11.4A16.31,16.31,0,0,0,24.83,12.68Z" style="fill: #303c42"/>
  <path d="M7.56,18.65a18.18,18.18,0,0,1,6.12-3.24,9.21,9.21,0,0,0-1,2.78.71.71,0,0,0,.24.66.7.7,0,0,0,.48.18.76.76,0,0,0,.21,0A8.57,8.57,0,0,0,17,17.06,8.45,8.45,0,0,0,20.43,19a.76.76,0,0,0,.21,0,.72.72,0,0,0,.71-.84,9.05,9.05,0,0,0-1-2.78,18.27,18.27,0,0,1,6.12,3.24,16.47,16.47,0,0,1,.71,4.74H6.85A16.13,16.13,0,0,1,7.56,18.65Z" style="fill: #e6e5e5"/>
  <path d="M12.66,8.81a5.12,5.12,0,0,0,1.5-.4.71.71,0,0,0,.67.46.71.71,0,0,0,.55-1.18A6.87,6.87,0,0,0,17,5.9a6.54,6.54,0,0,0,1.63,1.79.68.68,0,0,0-.18.46.72.72,0,0,0,.72.72.73.73,0,0,0,.68-.46,5.06,5.06,0,0,0,1.49.4.13.13,0,0,1,0,.06,4.36,4.36,0,1,1-8.71,0S12.66,8.83,12.66,8.81Z" style="fill: #fad0b0"/>
  <path d="M19.54,17.1c-.95-.47-1.81-1.1-1.81-1.69a.72.72,0,0,0-.72-.73.73.73,0,0,0-.73.73c0,.58-.85,1.22-1.8,1.68.41-1.08,1.19-2.41,2.53-2.41S19.14,16,19.54,17.1Z" style="fill: #d2302f"/>
  <path d="M10.69,12.44A7.25,7.25,0,1,1,24.26,8.87a7.21,7.21,0,0,1-.94,3.57.74.74,0,0,0,.11.86,12.51,12.51,0,0,1,2,2.8A22.31,22.31,0,0,0,20,13.8a5.81,5.81,0,1,0-6.07,0,22.08,22.08,0,0,0-5.36,2.3,12.2,12.2,0,0,1,2-2.8A.74.74,0,0,0,10.69,12.44Z" style="fill: #e00f17"/>
  <path d="M23.37,33.55H10.64a14.31,14.31,0,0,1-3.73-8.71H27.1A14.26,14.26,0,0,1,23.37,33.55Z" style="fill: #189539"/>
  <path d="M17,12.19c.54,0,1-.23,1-.52s-2-.28-2,0S16.46,12.19,17,12.19Z" style="fill: #d2302f"/>
  <g>
    <path d="M18,4.63a4.36,4.36,0,0,1,3.11,2.69A4.9,4.9,0,0,1,18,4.63Z" style="fill: #8d6f64"/>
    <path d="M13,7.32a4.36,4.36,0,0,1,3.11-2.69A4.88,4.88,0,0,1,13,7.32Z" style="fill: #8d6f64"/>
  </g>
  <g>
    <path d="M48.21,32.41a1.85,1.85,0,0,1-.43,1.24,1.88,1.88,0,0,1-1.47.5,2.12,2.12,0,0,1-1.65-.54,1.92,1.92,0,0,1-.49-1.35V31.15a3.53,3.53,0,0,0-.36-1.82,1.42,1.42,0,0,0-1.31-.57H40.25V32.5q0,.69,1.65.69v.86H36.65v-.86c.89,0,1.33-.23,1.33-.69V24.57c0-.45-.44-.68-1.33-.68V23H43a11.32,11.32,0,0,1,1.43.1,3.86,3.86,0,0,1,1.23.39,2.2,2.2,0,0,1,.87.84,2.74,2.74,0,0,1,.33,1.44,2.64,2.64,0,0,1-.18,1,2.28,2.28,0,0,1-.47.75,2.34,2.34,0,0,1-.66.51,3.09,3.09,0,0,1-.77.28,3.19,3.19,0,0,1,.69.35,1.82,1.82,0,0,1,.52.55,2.3,2.3,0,0,1,.33.81,5.2,5.2,0,0,1,.11,1.13v1.36a.66.66,0,0,0,.14.48.41.41,0,0,0,.34.16.44.44,0,0,0,.36-.16.71.71,0,0,0,.14-.48v-.71h.79Zm-8-8.15v3.51h2.43a2.06,2.06,0,0,0,1.37-.41A1.74,1.74,0,0,0,44.52,26c0-1.14-.61-1.71-1.84-1.71Z" style="fill: #189539"/>
    <path d="M60,23.9c-.89,0-1.33.23-1.33.69v5a7.52,7.52,0,0,1-.25,2,3.7,3.7,0,0,1-.78,1.5A3.42,3.42,0,0,1,56.2,34a6,6,0,0,1-2.1.32A6.22,6.22,0,0,1,52,34a3.46,3.46,0,0,1-2.29-2.42,7.11,7.11,0,0,1-.26-2v-5q0-.69-1.32-.69V23h5.19v.87a3,3,0,0,0-1.22.18.54.54,0,0,0-.38.51v5a8.52,8.52,0,0,0,.13,1.54,2.54,2.54,0,0,0,.46,1.08,1.92,1.92,0,0,0,.86.63A3.83,3.83,0,0,0,54.5,33a4,4,0,0,0,1.38-.21,2,2,0,0,0,.89-.63,2.57,2.57,0,0,0,.49-1.08,7.63,7.63,0,0,0,.14-1.54v-5a.54.54,0,0,0-.39-.51,3.12,3.12,0,0,0-1.23-.18V23H60Z" style="fill: #189539"/>
    <path d="M69.45,26.87l-1,.14a3.57,3.57,0,0,0-.4-1.34,3,3,0,0,0-.79-.93,3.08,3.08,0,0,0-1.1-.55A4.79,4.79,0,0,0,64.82,24a3.64,3.64,0,0,0-1.77.37,1.28,1.28,0,0,0-.68,1.2,1,1,0,0,0,.33.8,2.5,2.5,0,0,0,.86.47,7.11,7.11,0,0,0,1.23.31c.46.08.92.16,1.4.26a13.64,13.64,0,0,1,1.4.35,4.4,4.4,0,0,1,1.23.6,3,3,0,0,1,.86,1A3,3,0,0,1,70,30.81a3.65,3.65,0,0,1-.3,1.54,2.81,2.81,0,0,1-.87,1.09,3.76,3.76,0,0,1-1.35.64,7.26,7.26,0,0,1-1.75.2,6.07,6.07,0,0,1-1.7-.21,4.76,4.76,0,0,1-1.29-.59.88.88,0,0,0-.5-.18c-.07,0-.18.08-.33.22a1.38,1.38,0,0,0-.34.53h-1V30l1-.09a3.11,3.11,0,0,0,.37,1.29,3,3,0,0,0,.82,1,4,4,0,0,0,1.23.64,5.18,5.18,0,0,0,1.57.23,3.22,3.22,0,0,0,1.93-.5A1.8,1.8,0,0,0,68.15,31a.84.84,0,0,0-.21-.58,1.71,1.71,0,0,0-.56-.4,4.18,4.18,0,0,0-.82-.25c-.31-.07-.63-.14-1-.19l-1-.17a10,10,0,0,1-1-.22,7.11,7.11,0,0,1-1.21-.44,3.15,3.15,0,0,1-.9-.65,2.54,2.54,0,0,1-.56-.93,3.9,3.9,0,0,1-.2-1.3,3.31,3.31,0,0,1,.19-1.13,2.51,2.51,0,0,1,.65-1,3.15,3.15,0,0,1,1.18-.69,5.44,5.44,0,0,1,1.8-.26,6.14,6.14,0,0,1,1.67.19,4.93,4.93,0,0,1,1.21.48,1.11,1.11,0,0,0,.55.18.69.69,0,0,0,.39-.2,1.48,1.48,0,0,0,.36-.43h.8Z" style="fill: #189539"/>
    <path d="M79.39,26.87l-1,.14a3.57,3.57,0,0,0-.4-1.34,3,3,0,0,0-.78-.93,3.25,3.25,0,0,0-1.1-.55A4.89,4.89,0,0,0,74.76,24a3.65,3.65,0,0,0-1.78.37,1.27,1.27,0,0,0-.67,1.2,1,1,0,0,0,.32.8,2.6,2.6,0,0,0,.86.47,7.35,7.35,0,0,0,1.23.31c.46.08.93.16,1.4.26a13.2,13.2,0,0,1,1.41.35,4.34,4.34,0,0,1,1.22.6,2.84,2.84,0,0,1,.86,1,3,3,0,0,1,.33,1.48,3.5,3.5,0,0,1-.31,1.54,2.88,2.88,0,0,1-.86,1.09,3.81,3.81,0,0,1-1.36.64,7.2,7.2,0,0,1-1.75.2,6.12,6.12,0,0,1-1.7-.21,4.56,4.56,0,0,1-1.28-.59.93.93,0,0,0-.51-.18c-.07,0-.18.08-.32.22a1.4,1.4,0,0,0-.35.53h-1V30l1-.09a3.27,3.27,0,0,0,.37,1.29,3.15,3.15,0,0,0,.82,1,4.09,4.09,0,0,0,1.23.64,5.18,5.18,0,0,0,1.57.23,3.18,3.18,0,0,0,1.93-.5A1.8,1.8,0,0,0,78.08,31a.84.84,0,0,0-.21-.58,1.52,1.52,0,0,0-.56-.4,4.18,4.18,0,0,0-.82-.25c-.3-.07-.63-.14-1-.19l-1-.17c-.35-.06-.69-.13-1-.22a6.69,6.69,0,0,1-1.2-.44,2.89,2.89,0,0,1-.9-.65,2.7,2.7,0,0,1-.57-.93,3.9,3.9,0,0,1-.2-1.3,3.32,3.32,0,0,1,.2-1.13,2.49,2.49,0,0,1,.64-1,3.23,3.23,0,0,1,1.18-.69,5.52,5.52,0,0,1,1.8-.26,6.27,6.27,0,0,1,1.68.19,5,5,0,0,1,1.2.48,1.14,1.14,0,0,0,.55.18.66.66,0,0,0,.39-.2,1.37,1.37,0,0,0,.37-.43h.8Z" style="fill: #189539"/>
    <path d="M91,32.74c.09.3.5.45,1.21.45v.86H86.8v-.86h1.31c.28,0,.43-.1.43-.29a.64.64,0,0,0-.05-.16l-.59-1.6H83.34l-.55,1.48a.57.57,0,0,0,0,.18c0,.26.22.39.65.39h.92v.86h-4v-.88a3,3,0,0,0,.92-.1.55.55,0,0,0,.37-.32L85.28,23h2.16ZM83.72,30h3.81l-1.89-5.23Z" style="fill: #189539"/>
    <path d="M103.06,23a12.71,12.71,0,0,1,2.37.2,3.82,3.82,0,0,1,1.72.76,3.42,3.42,0,0,1,1,1.59,8.54,8.54,0,0,1,.34,2.67,9.62,9.62,0,0,1-.34,2.79,4.15,4.15,0,0,1-1,1.78,3.84,3.84,0,0,1-1.72.94,8.83,8.83,0,0,1-2.37.29H97.27V33.2c.88,0,1.32-.23,1.32-.68v-8c0-.45-.44-.68-1.32-.68V23Zm-2.2,1.16v8.7h2.43a2.78,2.78,0,0,0,1.39-.31,2.24,2.24,0,0,0,.89-.89,4.07,4.07,0,0,0,.47-1.44,12.79,12.79,0,0,0,.14-2,11.11,11.11,0,0,0-.14-1.88,3.07,3.07,0,0,0-.47-1.27,1.91,1.91,0,0,0-.89-.72,3.51,3.51,0,0,0-1.39-.23Z" style="fill: #189539"/>
    <path d="M114.18,23.89c-.88,0-1.32.23-1.32.68v8c0,.45.44.68,1.32.68v.85h-4.93V33.2c.89,0,1.34-.23,1.34-.68v-8c0-.45-.45-.68-1.34-.68V23h4.93Z" style="fill: #189539"/>
    <path d="M130.5,27.56l-.94,0a10.49,10.49,0,0,0-.21-1.65,3.54,3.54,0,0,0-.42-1.06,1.52,1.52,0,0,0-.64-.55,2.31,2.31,0,0,0-.88-.15h-1.34v8.33c0,.45.45.68,1.34.68v.85h-4.93V33.2c.88,0,1.32-.23,1.32-.68V24.19h-1.35a2.35,2.35,0,0,0-.88.15,1.55,1.55,0,0,0-.63.55,3.3,3.3,0,0,0-.41,1.06,9.32,9.32,0,0,0-.22,1.65l-.93,0V23H130.5Z" style="fill: #189539"/>
    <path d="M136.72,22.79a7.7,7.7,0,0,1,2.2.3,4.39,4.39,0,0,1,1.76,1,4.57,4.57,0,0,1,1.15,1.77,7.83,7.83,0,0,1,.41,2.7,7.68,7.68,0,0,1-.35,2.38,4.61,4.61,0,0,1-2.87,3,7.17,7.17,0,0,1-2.52.4,8.06,8.06,0,0,1-2.19-.28,4.43,4.43,0,0,1-1.74-.93,4.51,4.51,0,0,1-1.16-1.71,7,7,0,0,1-.42-2.59,9.11,9.11,0,0,1,.32-2.49,4.84,4.84,0,0,1,1-1.88,4.4,4.4,0,0,1,1.78-1.19A7.19,7.19,0,0,1,136.72,22.79Zm.07,1.22a4.27,4.27,0,0,0-1.59.27,2.77,2.77,0,0,0-1.09.8,3.28,3.28,0,0,0-.62,1.27,7,7,0,0,0-.2,1.73,11,11,0,0,0,.22,2.45,4,4,0,0,0,.64,1.52,2.15,2.15,0,0,0,1,.77,3.77,3.77,0,0,0,1.34.22,4.15,4.15,0,0,0,1.64-.29,2.52,2.52,0,0,0,1.07-.85,3.62,3.62,0,0,0,.58-1.38,8.92,8.92,0,0,0,.18-1.89,9.59,9.59,0,0,0-.23-2.28,3.7,3.7,0,0,0-.65-1.41,2.22,2.22,0,0,0-1-.72A3.81,3.81,0,0,0,136.79,24Z" style="fill: #189539"/>
    <path d="M154.3,32.41a1.8,1.8,0,0,1-.43,1.24,1.88,1.88,0,0,1-1.47.5,2.15,2.15,0,0,1-1.65-.54,1.92,1.92,0,0,1-.49-1.35V31.15a3.53,3.53,0,0,0-.36-1.82,1.4,1.4,0,0,0-1.3-.57h-2.26V32.5q0,.69,1.65.69v.86h-5.24v-.86q1.32,0,1.32-.69V24.57c0-.45-.44-.68-1.32-.68V23h6.35a11.19,11.19,0,0,1,1.43.1,3.92,3.92,0,0,1,1.24.39,2.34,2.34,0,0,1,.87.84,2.84,2.84,0,0,1,.32,1.44,2.64,2.64,0,0,1-.18,1,2.26,2.26,0,0,1-.46.75,2.53,2.53,0,0,1-.67.51,3,3,0,0,1-.77.28,2.79,2.79,0,0,1,.69.35,2,2,0,0,1,.53.55,2.49,2.49,0,0,1,.32.81,4.65,4.65,0,0,1,.11,1.13v1.36a.71.71,0,0,0,.14.48.41.41,0,0,0,.34.16.44.44,0,0,0,.37-.16.71.71,0,0,0,.13-.48v-.71h.79Zm-8-8.15v3.51h2.44a2,2,0,0,0,1.36-.41,1.74,1.74,0,0,0,.48-1.39c0-1.14-.62-1.71-1.84-1.71Z" style="fill: #189539"/>
    <path d="M159.72,23.89c-.88,0-1.32.23-1.32.68v8c0,.45.44.68,1.32.68v.85h-4.93V33.2c.89,0,1.34-.23,1.34-.68v-8c0-.45-.45-.68-1.34-.68V23h4.93Z" style="fill: #189539"/>
    <path d="M172.61,23.89c-.88,0-1.32.23-1.32.68v9.48h-2.75l-5.6-8.9v7.37c0,.45.44.68,1.32.68v.85h-3.87V33.2c.88,0,1.32-.23,1.32-.68v-8c0-.45-.44-.68-1.32-.68V23h4l5.68,9.12V24.57c0-.45-.44-.68-1.32-.68V23h3.88Z" style="fill: #189539"/>
    <path d="M178.68,22.79a7.82,7.82,0,0,1,2.21.3,4.42,4.42,0,0,1,1.75,1,4.57,4.57,0,0,1,1.15,1.77,7.83,7.83,0,0,1,.41,2.7,7.39,7.39,0,0,1-.35,2.38,4.61,4.61,0,0,1-2.87,3,7.17,7.17,0,0,1-2.52.4,8.11,8.11,0,0,1-2.19-.28,4.43,4.43,0,0,1-1.74-.93,4.51,4.51,0,0,1-1.16-1.71,7,7,0,0,1-.42-2.59,8.73,8.73,0,0,1,.33-2.49,4.7,4.7,0,0,1,1-1.88,4.4,4.4,0,0,1,1.78-1.19A7.19,7.19,0,0,1,178.68,22.79Zm.07,1.22a4.18,4.18,0,0,0-1.58.27,2.8,2.8,0,0,0-1.1.8,3.28,3.28,0,0,0-.62,1.27,7,7,0,0,0-.2,1.73,11,11,0,0,0,.22,2.45,4,4,0,0,0,.64,1.52,2.15,2.15,0,0,0,1,.77,3.77,3.77,0,0,0,1.34.22,4.24,4.24,0,0,0,1.65-.29,2.55,2.55,0,0,0,1.06-.85,3.62,3.62,0,0,0,.58-1.38,8.92,8.92,0,0,0,.18-1.89,9.59,9.59,0,0,0-.23-2.28,3.85,3.85,0,0,0-.64-1.41,2.3,2.3,0,0,0-1-.72A3.81,3.81,0,0,0,178.75,24Z" style="fill: #189539"/>
  </g>
  <g>
    <path d="M52.94,7.29l-1.79.15a6.29,6.29,0,0,0-1.87-3.31A5.15,5.15,0,0,0,45.7,2.89a6.19,6.19,0,0,0-2.77.56A5,5,0,0,0,41.06,5,6.62,6.62,0,0,0,40,7.41a12.73,12.73,0,0,0-.35,3.06,10.8,10.8,0,0,0,.43,3.19,6.34,6.34,0,0,0,1.2,2.25,4.86,4.86,0,0,0,1.84,1.34,7,7,0,0,0,6.37-.75,6.64,6.64,0,0,0,2.13-3.34l1.64.56A11.33,11.33,0,0,1,52.31,16a7.29,7.29,0,0,1-1.55,2,7.48,7.48,0,0,1-2.32,1.38,9.14,9.14,0,0,1-3.26.52,11.6,11.6,0,0,1-3.69-.56,8.41,8.41,0,0,1-3-1.71,8.08,8.08,0,0,1-2-2.91,10.57,10.57,0,0,1-.73-4.12,11.66,11.66,0,0,1,.72-4.3,8,8,0,0,1,4.93-4.79A11,11,0,0,1,45,.88a8.64,8.64,0,0,1,3.39.6,6.06,6.06,0,0,1,2.12,1.36l.61-1.54h1.81Z" style="fill: #e00f17"/>
    <path d="M63.53.93a12.79,12.79,0,0,1,3.63.49A7.12,7.12,0,0,1,70.05,3a7.32,7.32,0,0,1,1.89,2.92,12.53,12.53,0,0,1,.69,4.45A12.36,12.36,0,0,1,72,14.31a8,8,0,0,1-1.76,3,7.83,7.83,0,0,1-3,1.9,11.75,11.75,0,0,1-4.16.67,13.27,13.27,0,0,1-3.59-.46,7.16,7.16,0,0,1-2.88-1.54,7.37,7.37,0,0,1-1.91-2.81,11.57,11.57,0,0,1-.69-4.27,14.44,14.44,0,0,1,.54-4.1,8,8,0,0,1,1.68-3.1,7.58,7.58,0,0,1,2.94-2A12.12,12.12,0,0,1,63.53.93Zm.12,2A6.94,6.94,0,0,0,61,3.39,4.42,4.42,0,0,0,59.24,4.7a5.44,5.44,0,0,0-1,2.1,11.13,11.13,0,0,0-.33,2.84,18,18,0,0,0,.37,4,6.53,6.53,0,0,0,1,2.49A3.52,3.52,0,0,0,61,17.45a6.35,6.35,0,0,0,2.2.36,6.83,6.83,0,0,0,2.72-.48,4.19,4.19,0,0,0,1.76-1.39,5.92,5.92,0,0,0,1-2.28,14.48,14.48,0,0,0,.3-3.12,15.48,15.48,0,0,0-.38-3.74,6.18,6.18,0,0,0-1.07-2.32,3.61,3.61,0,0,0-1.65-1.2A6.32,6.32,0,0,0,63.65,2.94Z" style="fill: #e00f17"/>
    <path d="M97.41,2.74c-1.47,0-2.2.38-2.2,1.13V17c0,.75.73,1.13,2.2,1.13v1.39h-8V18.08c1.45,0,2.17-.38,2.17-1.13V4.13L86.21,19.47H83L77.67,4.13V17c0,.75.72,1.13,2.18,1.13v1.39H73.46V18.08c1.45,0,2.18-.38,2.18-1.13V3.87c0-.75-.73-1.13-2.18-1.13V1.3h7.29l4.84,14.28L90.44,1.3h7Z" style="fill: #e00f17"/>
    <path d="M117.79,2.76c-1.47,0-2.2.38-2.2,1.13v8.17a12.29,12.29,0,0,1-.41,3.29,6.14,6.14,0,0,1-1.28,2.46,5.61,5.61,0,0,1-2.3,1.53,10,10,0,0,1-3.45.52,10.49,10.49,0,0,1-3.52-.52,5.76,5.76,0,0,1-3.78-4,11.5,11.5,0,0,1-.43-3.29V3.89c0-.75-.73-1.13-2.18-1.13V1.32h8.56V2.76a5.12,5.12,0,0,0-2,.29.9.9,0,0,0-.63.84v8.17a13.27,13.27,0,0,0,.22,2.54,4.46,4.46,0,0,0,.75,1.78,3.16,3.16,0,0,0,1.42,1,6.33,6.33,0,0,0,2.26.34,6.44,6.44,0,0,0,2.26-.34,3.4,3.4,0,0,0,1.48-1,4.23,4.23,0,0,0,.8-1.78,12.44,12.44,0,0,0,.23-2.54V3.89a.89.89,0,0,0-.64-.84,5.27,5.27,0,0,0-2-.29V1.32h6.88Z" style="fill: #e00f17"/>
    <path d="M138.68,2.74c-1.45,0-2.18.38-2.18,1.13v15.6H132L122.75,4.82V17c0,.75.73,1.13,2.18,1.13v1.39h-6.38V18.08c1.45,0,2.17-.38,2.17-1.13V3.87c0-.75-.72-1.13-2.17-1.13V1.3h6.55l9.37,15V3.87c0-.75-.72-1.13-2.18-1.13V1.3h6.39Z" style="fill: #e00f17"/>
    <path d="M147.61,2.74c-1.45,0-2.18.38-2.18,1.13V17c0,.75.73,1.13,2.18,1.13v1.39h-8.12V18.08c1.46,0,2.2-.38,2.2-1.13V3.87c0-.75-.74-1.13-2.2-1.13V1.3h8.12Z" style="fill: #e00f17"/>
    <path d="M167,8.78l-1.54.08a15.8,15.8,0,0,0-.36-2.73,5.49,5.49,0,0,0-.68-1.74,2.36,2.36,0,0,0-1-.9A3.76,3.76,0,0,0,162,3.23h-2.21V17c0,.75.73,1.13,2.2,1.13v1.39h-8.12V18.08c1.45,0,2.18-.38,2.18-1.13V3.23h-2.23a3.74,3.74,0,0,0-1.44.26,2.29,2.29,0,0,0-1,.9,5.48,5.48,0,0,0-.69,1.74,15.91,15.91,0,0,0-.35,2.73l-1.54-.08V1.32H167Z" style="fill: #e00f17"/>
    <path d="M182.2,17.32c.16.49.83.73,2,.73v1.42h-8.95V18.05h2.15c.48,0,.71-.15.71-.46a.87.87,0,0,0-.07-.27l-1-2.64h-7.51l-.9,2.44a.79.79,0,0,0-.05.3c0,.42.35.63,1.07.63h1.52v1.42h-6.68V18a5.1,5.1,0,0,0,1.52-.17.93.93,0,0,0,.61-.52l6.11-16h3.55Zm-12-4.45h6.26l-3.11-8.61Z" style="fill: #e00f17"/>
  </g>
  <rect y="0.17" width="190" height="34.83" style="fill: none"/>
</svg>
