<svg version="1" xmlns="http://www.w3.org/2000/svg" width="346.667" height="346.667" viewBox="0 0 260.000000 260.000000"><path d="M116.1 1.6c-18.6 4-35.4 17-43.9 34-5.3 10.4-6.7 16.6-6.6 29.9 0 10.4.4 13 2.8 19.9l2.7 8-3.1 4c-34.7 46.1-32.3 117.5 5.3 157.8l4.4 4.8h104.6l4.4-4.8c34.2-36.6 39.8-101.2 12.8-146.2-2.4-4.1-5.8-9.3-7.5-11.6l-3.1-4 2.7-8c2.4-6.9 2.8-9.5 2.8-19.9.1-13.2-1.3-19.5-6.5-29.9-13.2-26.1-43.1-40.3-71.8-34zm19.8 47.6c4.1 4.5 5.5 6.8 5.3 8.5-.4 2.8 2.3 6.3 4.7 6.3.9 0 2.6-.7 3.8-1.5 1.7-1.2 2.9-1.3 7.3-.2l5.2 1.2-.5 5.6c-1.8 20.3-25.7 33.5-44.9 24.7-10.4-4.8-17.6-14.3-18.5-24.7l-.5-5.6 5.2-1.2c4.4-1.1 5.6-1 7.3.2 1.2.8 2.9 1.5 3.8 1.5 2.4 0 5.1-3.5 4.7-6.2-.2-1.8 1.2-4.1 5.2-8.6 3-3.4 5.7-6.2 5.9-6.2.2 0 2.9 2.8 6 6.2zm-34 68.7c-3.9 9.4-4.7 15.5-2.4 18.1 1 1.1 2.4 2 3.2 2 3 0 16.6-6.4 21.6-10.1 2.8-2.2 5.4-3.9 5.7-3.9.3 0 2.9 1.7 5.7 3.9 5 3.7 18.6 10.1 21.6 10.1.8 0 2.2-.9 3.2-2 2.3-2.6 1.5-8.7-2.4-18.1-3.4-8.2-4.2-8.1 10.6-1.8 10 4.2 23.9 12.1 29.1 16.6 2.9 2.4 3.5 4 5.1 11.8 1 5 2.2 12.8 2.6 17.3l.7 8.2H53.8l.7-8.2c.4-4.5 1.6-12.3 2.6-17.3 2.1-10.4 2.9-11.4 16.7-19.6 8-4.8 27-13.4 30.4-13.8.3-.1-.7 3-2.3 6.8z"/><path d="M124.3 83.7c-1.9.7-1.6 3.1.6 4.3 4.1 2.2 12.1.6 12.1-2.4 0-.8-.7-1.7-1.6-2-1.8-.7-9.3-.7-11.1.1z"/></svg>