<svg id="Layer_1" data-name="Layer 1" xmlns="http://www.w3.org/2000/svg" viewBox="0 0 190 35">
  <title>comunita_logo_svg_color</title>
  <path d="M19.44,12.68a8.72,8.72,0,1,0-15.65,0A16.31,16.31,0,0,0,0,23.39,16,16,0,0,0,4.45,34.8.7.7,0,0,0,5,35H18.28a.72.72,0,0,0,.5-.2,16,16,0,0,0,4.44-11.41A16.35,16.35,0,0,0,19.44,12.68Z" style="fill: #303c42"/>
  <path d="M2.16,18.26A18.45,18.45,0,0,1,8.28,15a9.05,9.05,0,0,0-1,2.78.73.73,0,0,0,.23.66.75.75,0,0,0,.48.19.76.76,0,0,0,.21,0,8.71,8.71,0,0,0,3.42-1.94A8.84,8.84,0,0,0,15,18.62a.76.76,0,0,0,.21,0A.74.74,0,0,0,16,17.8a9.21,9.21,0,0,0-1-2.78,18.45,18.45,0,0,1,6.12,3.24A16.13,16.13,0,0,1,21.77,23H1.45A16.47,16.47,0,0,1,2.16,18.26Z" style="fill: #e6e5e5"/>
  <path d="M7.26,8.69a5.36,5.36,0,0,0,1.5-.4.73.73,0,0,0,.67.46A.72.72,0,0,0,10.16,8,.68.68,0,0,0,10,7.57a6.68,6.68,0,0,0,1.63-1.79,7,7,0,0,0,1.63,1.79.68.68,0,0,0-.18.46.73.73,0,0,0,.73.72.71.71,0,0,0,.67-.46,5.45,5.45,0,0,0,1.5.4s0,0,0,.06a4.36,4.36,0,1,1-8.71,0Z" style="fill: #fad0b0"/>
  <path d="M14.14,17c-.94-.47-1.81-1.1-1.81-1.7a.72.72,0,0,0-.72-.72.73.73,0,0,0-.73.72c0,.59-.85,1.23-1.8,1.69.41-1.08,1.19-2.41,2.53-2.41S13.74,15.9,14.14,17Z" style="fill: #d2302f"/>
  <path d="M5.3,12.32A7.25,7.25,0,1,1,18.87,8.75a7.32,7.32,0,0,1-.94,3.57.73.73,0,0,0,.1.86A12.2,12.2,0,0,1,20,16a22.08,22.08,0,0,0-5.36-2.3,5.81,5.81,0,1,0-6.07,0A22.31,22.31,0,0,0,3.21,16a12.51,12.51,0,0,1,2-2.8A.74.74,0,0,0,5.3,12.32Z" style="fill: #e00f17"/>
  <path d="M18.19,34H5a14.74,14.74,0,0,1-3.86-9H22.05A14.8,14.8,0,0,1,18.19,34Z" style="fill: #189539"/>
  <path d="M11.61,12.06c.55,0,1-.23,1-.51s-2-.28-2,0S11.07,12.06,11.61,12.06Z" style="fill: #d2302f"/>
  <g>
    <path d="M12.56,4.51A4.36,4.36,0,0,1,15.67,7.2,4.88,4.88,0,0,1,12.56,4.51Z" style="fill: #8d6f64"/>
    <path d="M7.56,7.2a4.36,4.36,0,0,1,3.11-2.69A4.9,4.9,0,0,1,7.56,7.2Z" style="fill: #8d6f64"/>
  </g>
  <g>
    <path d="M44.35,33a2,2,0,0,1-.46,1.32,2,2,0,0,1-1.58.54,2.3,2.3,0,0,1-1.76-.58A2.08,2.08,0,0,1,40,32.84v-1.2a3.8,3.8,0,0,0-.38-1.94,1.51,1.51,0,0,0-1.4-.62H35.82v4c0,.49.59.73,1.77.73v.93H32v-.93c1,0,1.42-.24,1.42-.73V24.6c0-.49-.47-.73-1.42-.73v-.94h6.81a11,11,0,0,1,1.53.1,3.92,3.92,0,0,1,1.33.42,2.67,2.67,0,0,1,.93.9,3,3,0,0,1,.35,1.54,2.86,2.86,0,0,1-.2,1.09,2.41,2.41,0,0,1-.5.8,2.52,2.52,0,0,1-.71.54,3.11,3.11,0,0,1-.82.3,3,3,0,0,1,.74.38,2.07,2.07,0,0,1,.56.58,2.88,2.88,0,0,1,.35.87,5.37,5.37,0,0,1,.11,1.21v1.46a.75.75,0,0,0,.15.52.48.48,0,0,0,.37.17.51.51,0,0,0,.39-.17.75.75,0,0,0,.14-.52v-.76h.85Zm-8.53-8.73V28h2.61a2.16,2.16,0,0,0,1.46-.44,1.88,1.88,0,0,0,.51-1.49c0-1.21-.65-1.82-2-1.82Z" style="fill: #189539"/>
    <path d="M56.93,23.88c-1,0-1.43.25-1.43.74v5.31a7.83,7.83,0,0,1-.27,2.14,3.9,3.9,0,0,1-.83,1.59,3.57,3.57,0,0,1-1.5,1,6.4,6.4,0,0,1-2.24.34,6.78,6.78,0,0,1-2.29-.34,3.89,3.89,0,0,1-1.57-1,4,4,0,0,1-.89-1.59,7.83,7.83,0,0,1-.27-2.14V24.62c0-.49-.48-.74-1.42-.74V23h5.57v.93a3.28,3.28,0,0,0-1.32.19.58.58,0,0,0-.4.55v5.31a8.83,8.83,0,0,0,.14,1.65,2.82,2.82,0,0,0,.49,1.15,1.94,1.94,0,0,0,.92.68,4.14,4.14,0,0,0,1.47.22,4.22,4.22,0,0,0,1.47-.22,2.11,2.11,0,0,0,1-.68A2.6,2.6,0,0,0,54,31.58a8,8,0,0,0,.15-1.65V24.62a.59.59,0,0,0-.41-.55,3.34,3.34,0,0,0-1.32-.19V23h4.47Z" style="fill: #189539"/>
    <path d="M67.1,27.06,66,27.21a3.81,3.81,0,0,0-.43-1.43,3.2,3.2,0,0,0-.84-1,3.34,3.34,0,0,0-1.18-.58A5.19,5.19,0,0,0,62.14,24a4,4,0,0,0-1.9.39,1.37,1.37,0,0,0-.72,1.29,1.09,1.09,0,0,0,.35.85,2.6,2.6,0,0,0,.92.51,9.25,9.25,0,0,0,1.31.33l1.51.27c.5.11,1,.23,1.5.39a4.55,4.55,0,0,1,1.31.63,3.07,3.07,0,0,1,.92,1,3.13,3.13,0,0,1,.35,1.58,4,4,0,0,1-.32,1.65,3,3,0,0,1-.93,1.16,4.15,4.15,0,0,1-1.45.69,7.29,7.29,0,0,1-1.88.22,6.55,6.55,0,0,1-1.82-.23,4.92,4.92,0,0,1-1.37-.63,1,1,0,0,0-.54-.19c-.08,0-.2.08-.35.23a1.41,1.41,0,0,0-.37.57H57.59V30.39l1-.1a3.74,3.74,0,0,0,.4,1.39,3.43,3.43,0,0,0,.88,1,4.14,4.14,0,0,0,1.32.69,5.54,5.54,0,0,0,1.68.24A3.41,3.41,0,0,0,65,33.13a1.93,1.93,0,0,0,.71-1.67.89.89,0,0,0-.22-.62,1.69,1.69,0,0,0-.6-.42,4.79,4.79,0,0,0-.88-.28c-.33-.08-.68-.14-1-.2l-1.12-.18c-.37-.07-.74-.15-1.09-.24a7.51,7.51,0,0,1-1.29-.47,3.11,3.11,0,0,1-1-.69,2.87,2.87,0,0,1-.6-1,4.16,4.16,0,0,1-.22-1.4,3.53,3.53,0,0,1,.21-1.2,2.6,2.6,0,0,1,.69-1.05A3.49,3.49,0,0,1,59.84,23a5.64,5.64,0,0,1,1.92-.28,7.1,7.1,0,0,1,1.8.2,5.19,5.19,0,0,1,1.29.52,1.27,1.27,0,0,0,.58.19.74.74,0,0,0,.43-.21,1.87,1.87,0,0,0,.39-.46h.85Z" style="fill: #189539"/>
    <path d="M77.74,27.06l-1.06.15a4,4,0,0,0-.43-1.43,3.34,3.34,0,0,0-.84-1,3.43,3.43,0,0,0-1.18-.58A5.19,5.19,0,0,0,72.78,24a4,4,0,0,0-1.9.39,1.37,1.37,0,0,0-.72,1.29,1.06,1.06,0,0,0,.35.85,2.6,2.6,0,0,0,.92.51,9.25,9.25,0,0,0,1.31.33c.49.08,1,.17,1.5.27s1,.23,1.51.39a4.55,4.55,0,0,1,1.31.63,3.07,3.07,0,0,1,.92,1,3.13,3.13,0,0,1,.35,1.58A4,4,0,0,1,78,32.93a3,3,0,0,1-.93,1.16,4.15,4.15,0,0,1-1.45.69,7.29,7.29,0,0,1-1.88.22,6.55,6.55,0,0,1-1.82-.23,4.92,4.92,0,0,1-1.37-.63A1,1,0,0,0,70,34c-.07,0-.19.08-.35.23a1.5,1.5,0,0,0-.36.57H68.23V30.39l1-.1a3.74,3.74,0,0,0,.4,1.39,3.43,3.43,0,0,0,.88,1,4.14,4.14,0,0,0,1.32.69,5.54,5.54,0,0,0,1.68.24,3.41,3.41,0,0,0,2.07-.53,1.93,1.93,0,0,0,.71-1.67.89.89,0,0,0-.22-.62,1.69,1.69,0,0,0-.6-.42,4.79,4.79,0,0,0-.88-.28c-.33-.08-.68-.14-1-.2l-1.12-.18c-.37-.07-.74-.15-1.09-.24a7.51,7.51,0,0,1-1.29-.47,3.11,3.11,0,0,1-1-.69,2.87,2.87,0,0,1-.6-1,3.92,3.92,0,0,1-.22-1.4,3.53,3.53,0,0,1,.21-1.2,2.6,2.6,0,0,1,.69-1.05A3.41,3.41,0,0,1,70.48,23a5.64,5.64,0,0,1,1.92-.28,7.1,7.1,0,0,1,1.8.2,5.35,5.35,0,0,1,1.29.52,1.27,1.27,0,0,0,.58.19.74.74,0,0,0,.43-.21,1.64,1.64,0,0,0,.38-.46h.86Z" style="fill: #189539"/>
    <path d="M90.2,33.35c.1.31.54.47,1.3.47v.93H85.68v-.93h1.4c.31,0,.46-.1.46-.3a.68.68,0,0,0-.05-.17l-.63-1.72H82l-.58,1.59a.43.43,0,0,0,0,.19c0,.28.24.41.7.41h1v.93H78.7v-.94a3.33,3.33,0,0,0,1-.11.59.59,0,0,0,.4-.34l4-10.43h2.3Zm-7.81-2.9h4.07l-2-5.6Z" style="fill: #189539"/>
    <path d="M103.09,23a13.67,13.67,0,0,1,2.55.21,4.05,4.05,0,0,1,1.83.82,3.59,3.59,0,0,1,1.11,1.7,9.36,9.36,0,0,1,.36,2.86,10.46,10.46,0,0,1-.36,3,4.38,4.38,0,0,1-1.11,1.91,4.2,4.2,0,0,1-1.83,1,9.27,9.27,0,0,1-2.55.31h-6.2v-.91c.94,0,1.42-.25,1.42-.73V24.6c0-.49-.48-.73-1.42-.73v-.94Zm-2.35,1.24v9.32h2.61a3,3,0,0,0,1.48-.33,2.46,2.46,0,0,0,1-1,4.49,4.49,0,0,0,.5-1.55,14.43,14.43,0,0,0,.14-2.09,12.86,12.86,0,0,0-.14-2,3.51,3.51,0,0,0-.5-1.36,2.14,2.14,0,0,0-1-.77,4,4,0,0,0-1.48-.24Z" style="fill: #189539"/>
    <path d="M115,23.87c-.94,0-1.41.24-1.41.73v8.51c0,.48.47.73,1.41.73v.91h-5.28v-.91c1,0,1.43-.25,1.43-.73V24.6c0-.49-.47-.73-1.43-.73v-.94H115Z" style="fill: #189539"/>
    <path d="M132.48,27.8l-1,0a10.5,10.5,0,0,0-.23-1.77,3.41,3.41,0,0,0-.45-1.13,1.53,1.53,0,0,0-.68-.59,2.47,2.47,0,0,0-.94-.16h-1.44v8.92c0,.48.48.73,1.43.73v.91h-5.28v-.91c1,0,1.42-.25,1.42-.73V24.19h-1.45a2.47,2.47,0,0,0-.94.16,1.5,1.5,0,0,0-.67.59,3.41,3.41,0,0,0-.45,1.13,10.5,10.5,0,0,0-.23,1.77l-1,0V23h11.91Z" style="fill: #189539"/>
    <path d="M139.14,22.69a8.54,8.54,0,0,1,2.37.32,4.55,4.55,0,0,1,3.1,2.94,8.08,8.08,0,0,1,.45,2.89,8.13,8.13,0,0,1-.38,2.55,5.2,5.2,0,0,1-1.15,1.93,5,5,0,0,1-1.92,1.24,7.74,7.74,0,0,1-2.71.44,8.69,8.69,0,0,1-2.33-.3,4.69,4.69,0,0,1-1.87-1,4.75,4.75,0,0,1-1.24-1.83,7.52,7.52,0,0,1-.46-2.78,9.52,9.52,0,0,1,.35-2.66,5.27,5.27,0,0,1,1.1-2,4.86,4.86,0,0,1,1.91-1.27A7.68,7.68,0,0,1,139.14,22.69Zm.08,1.31a4.42,4.42,0,0,0-1.7.29,2.91,2.91,0,0,0-1.17.85,3.73,3.73,0,0,0-.67,1.37,7.33,7.33,0,0,0-.21,1.84,11.84,11.84,0,0,0,.24,2.63,4.49,4.49,0,0,0,.68,1.63,2.37,2.37,0,0,0,1.08.82,4,4,0,0,0,1.43.23,4.42,4.42,0,0,0,1.77-.31,2.64,2.64,0,0,0,1.15-.9,4.08,4.08,0,0,0,.62-1.48,10.23,10.23,0,0,0,.19-2,10.07,10.07,0,0,0-.25-2.43,4,4,0,0,0-.69-1.51,2.43,2.43,0,0,0-1.08-.78A4.05,4.05,0,0,0,139.22,24Z" style="fill: #189539"/>
    <path d="M158,33a1.91,1.91,0,0,1-.46,1.32,2,2,0,0,1-1.57.54,2.32,2.32,0,0,1-1.77-.58,2.07,2.07,0,0,1-.52-1.44v-1.2a3.8,3.8,0,0,0-.38-1.94,1.53,1.53,0,0,0-1.4-.62h-2.42v4c0,.49.59.73,1.76.73v.93H145.6v-.93c.94,0,1.42-.24,1.42-.73V24.6c0-.49-.48-.73-1.42-.73v-.94h6.81a10.88,10.88,0,0,1,1.52.1,3.92,3.92,0,0,1,1.33.42,2.51,2.51,0,0,1,.93.9,3,3,0,0,1,.35,1.54,2.86,2.86,0,0,1-.19,1.09,2.59,2.59,0,0,1-.5.8,2.84,2.84,0,0,1-.71.54,3.18,3.18,0,0,1-.83.3,3,3,0,0,1,.74.38,2.07,2.07,0,0,1,.56.58,2.64,2.64,0,0,1,.35.87,5.32,5.32,0,0,1,.12,1.21v1.46a.75.75,0,0,0,.15.52.47.47,0,0,0,.37.17.47.47,0,0,0,.38-.17.75.75,0,0,0,.15-.52v-.76H158Zm-8.52-8.73V28h2.61a2.19,2.19,0,0,0,1.46-.44,1.88,1.88,0,0,0,.51-1.49c0-1.21-.66-1.82-2-1.82Z" style="fill: #189539"/>
    <path d="M163.78,23.87c-.95,0-1.42.24-1.42.73v8.51c0,.48.47.73,1.42.73v.91H158.5v-.91c.95,0,1.43-.25,1.43-.73V24.6c0-.49-.48-.73-1.43-.73v-.94h5.28Z" style="fill: #189539"/>
    <path d="M177.58,23.87c-.94,0-1.42.24-1.42.73V34.75h-2.94l-6-9.53v7.89c0,.49.47.73,1.41.73v.91h-4.15v-.91c.95,0,1.42-.25,1.42-.73V24.6c0-.49-.47-.73-1.42-.73v-.94h4.26l6.09,9.76V24.6c0-.49-.47-.73-1.41-.73v-.94h4.15Z" style="fill: #189539"/>
    <path d="M184.08,22.69a8.54,8.54,0,0,1,2.37.32,4.55,4.55,0,0,1,3.1,2.94,8.08,8.08,0,0,1,.45,2.89,8.13,8.13,0,0,1-.38,2.55,5.2,5.2,0,0,1-1.15,1.93,5,5,0,0,1-1.92,1.24,7.72,7.72,0,0,1-2.7.44,8.72,8.72,0,0,1-2.34-.3,4.69,4.69,0,0,1-1.87-1,4.75,4.75,0,0,1-1.24-1.83,7.53,7.53,0,0,1-.45-2.78,9.16,9.16,0,0,1,.35-2.66,5.13,5.13,0,0,1,1.09-2,4.86,4.86,0,0,1,1.91-1.27A7.68,7.68,0,0,1,184.08,22.69Zm.08,1.31a4.42,4.42,0,0,0-1.7.29,3,3,0,0,0-1.17.85,3.57,3.57,0,0,0-.66,1.37,6.88,6.88,0,0,0-.22,1.84,11.84,11.84,0,0,0,.24,2.63,4.49,4.49,0,0,0,.68,1.63,2.37,2.37,0,0,0,1.08.82,4.11,4.11,0,0,0,1.44.23,4.37,4.37,0,0,0,1.76-.31,2.64,2.64,0,0,0,1.15-.9,4.08,4.08,0,0,0,.62-1.48,10.23,10.23,0,0,0,.19-2,10.07,10.07,0,0,0-.25-2.43,3.85,3.85,0,0,0-.69-1.51,2.45,2.45,0,0,0-1.07-.78A4.15,4.15,0,0,0,184.16,24Z" style="fill: #189539"/>
  </g>
  <g>
    <path d="M49.23,7.1l-1.92.16a7,7,0,0,0-2-3.64,5.46,5.46,0,0,0-3.85-1.37,6.57,6.57,0,0,0-3,.62,5.41,5.41,0,0,0-2,1.72,7.94,7.94,0,0,0-1.14,2.64A14.74,14.74,0,0,0,35,10.6a12.24,12.24,0,0,0,.46,3.51,7.09,7.09,0,0,0,1.29,2.48,5.13,5.13,0,0,0,2,1.46,6.27,6.27,0,0,0,2.53.49,6.53,6.53,0,0,0,4.3-1.31,7.32,7.32,0,0,0,2.28-3.67l1.76.62a13.09,13.09,0,0,1-1,2.5,7.74,7.74,0,0,1-1.67,2.15,7.93,7.93,0,0,1-2.49,1.53,9.63,9.63,0,0,1-3.49.57,12.17,12.17,0,0,1-4-.62,8.92,8.92,0,0,1-3.21-1.88,8.85,8.85,0,0,1-2.17-3.2,12.05,12.05,0,0,1-.78-4.54A13.07,13.07,0,0,1,31.56,6a9.08,9.08,0,0,1,2.12-3.31,8.67,8.67,0,0,1,3.17-2A11.45,11.45,0,0,1,40.73,0,9,9,0,0,1,44.36.7a6.31,6.31,0,0,1,2.27,1.5L47.29.5h1.94Z" style="fill: #e00f17"/>
    <path d="M60.59.1a13.4,13.4,0,0,1,3.89.54,7.52,7.52,0,0,1,3.1,1.76,8.23,8.23,0,0,1,2,3.21,14.22,14.22,0,0,1,.74,4.89,13.82,13.82,0,0,1-.63,4.32,8.81,8.81,0,0,1-1.89,3.28,8.5,8.5,0,0,1-3.18,2.1,12.37,12.37,0,0,1-4.46.73,14,14,0,0,1-3.85-.51,7.54,7.54,0,0,1-3.08-1.69,8.09,8.09,0,0,1-2-3.09,12.92,12.92,0,0,1-.75-4.71A16,16,0,0,1,51,6.43,8.84,8.84,0,0,1,52.85,3,7.92,7.92,0,0,1,56,.85,12.54,12.54,0,0,1,60.59.1Zm.13,2.21a7.24,7.24,0,0,0-2.81.49A4.93,4.93,0,0,0,56,4.24a6.33,6.33,0,0,0-1.1,2.32,12.82,12.82,0,0,0-.35,3.12,21,21,0,0,0,.39,4.46,7.42,7.42,0,0,0,1.13,2.74,3.8,3.8,0,0,0,1.78,1.4,6.75,6.75,0,0,0,2.36.39,7.2,7.2,0,0,0,2.92-.52A4.53,4.53,0,0,0,65,16.61a6.7,6.7,0,0,0,1-2.5,16.79,16.79,0,0,0,.31-3.43,17.41,17.41,0,0,0-.4-4.12A7,7,0,0,0,64.79,4,3.88,3.88,0,0,0,63,2.68,6.67,6.67,0,0,0,60.72,2.31Z" style="fill: #e00f17"/>
    <path d="M96.92,2.09c-1.57,0-2.36.41-2.36,1.24v14.4c0,.83.79,1.24,2.36,1.24V20.5h-8.6V19c1.55,0,2.33-.41,2.33-1.24V3.62L84.91,20.5H81.5L75.75,3.62V17.73c0,.83.78,1.24,2.34,1.24V20.5H71.24V19c1.55,0,2.33-.41,2.33-1.24V3.33c0-.83-.78-1.24-2.33-1.24V.5h7.82l5.19,15.72L89.44.5h7.48Z" style="fill: #e00f17"/>
    <path d="M118.77,2.12c-1.57,0-2.36.41-2.36,1.24v9A13.88,13.88,0,0,1,116,16a6.78,6.78,0,0,1-1.38,2.7,6,6,0,0,1-2.46,1.69,10.62,10.62,0,0,1-3.7.57,11.14,11.14,0,0,1-3.78-.57,6.32,6.32,0,0,1-4-4.39,13,13,0,0,1-.46-3.62v-9c0-.83-.78-1.24-2.34-1.24V.53H107V2.12a5.49,5.49,0,0,0-2.17.31,1,1,0,0,0-.67.93v9a14.32,14.32,0,0,0,.24,2.8,4.82,4.82,0,0,0,.8,2,3.32,3.32,0,0,0,1.52,1.14,7.93,7.93,0,0,0,4.85,0,3.58,3.58,0,0,0,1.59-1.14,4.59,4.59,0,0,0,.85-2,13.53,13.53,0,0,0,.25-2.8v-9a1,1,0,0,0-.68-.93,5.55,5.55,0,0,0-2.18-.31V.53h7.37Z" style="fill: #e00f17"/>
    <path d="M141.18,2.09c-1.56,0-2.34.41-2.34,1.24V20.5H134L124.1,4.38V17.73c0,.83.78,1.24,2.34,1.24V20.5h-6.85V19c1.55,0,2.33-.41,2.33-1.24V3.33c0-.83-.78-1.24-2.33-1.24V.5h7l10,16.53V3.33c0-.83-.78-1.24-2.34-1.24V.5h6.85Z" style="fill: #e00f17"/>
    <path d="M150.75,2.09c-1.55,0-2.33.41-2.33,1.24v14.4c0,.83.78,1.24,2.33,1.24V20.5H142V19c1.58,0,2.36-.41,2.36-1.24V3.33c0-.83-.78-1.24-2.36-1.24V.5h8.71Z" style="fill: #e00f17"/>
    <path d="M171.58,8.74l-1.65.08a19,19,0,0,0-.38-3,6,6,0,0,0-.74-1.91,2.53,2.53,0,0,0-1.12-1,3.9,3.9,0,0,0-1.55-.28h-2.37v15.1c0,.83.78,1.24,2.36,1.24V20.5h-8.71V19c1.55,0,2.33-.41,2.33-1.24V2.63h-2.39a3.82,3.82,0,0,0-1.54.28,2.53,2.53,0,0,0-1.12,1A6,6,0,0,0,154,5.82a17.87,17.87,0,0,0-.38,3l-1.66-.08V.53h19.65Z" style="fill: #e00f17"/>
    <path d="M187.85,18.13c.17.54.89.81,2.15.81V20.5h-9.6V18.94h2.31c.5,0,.76-.17.76-.51a1.33,1.33,0,0,0-.08-.3l-1-2.9h-8.05l-1,2.69a1.19,1.19,0,0,0-.05.32c0,.47.39.7,1.16.7H176V20.5h-7.16V18.92a5.34,5.34,0,0,0,1.63-.19,1,1,0,0,0,.65-.57L177.72.5h3.81ZM175,13.24h6.71l-3.33-9.48Z" style="fill: #e00f17"/>
  </g>
  <rect width="190" height="35" style="fill: none"/>
</svg>
