<svg id="Layer_1" data-name="Layer 1" xmlns="http://www.w3.org/2000/svg" viewBox="0 0 16.56 25">
  <title>logo_toy_grey</title>
  <g>
    <path d="M13.86,9A6.21,6.21,0,1,0,2.07,6.29,6.27,6.27,0,0,0,2.7,9,11.62,11.62,0,0,0,0,16.64a11.36,11.36,0,0,0,3.17,8.13.48.48,0,0,0,.36.15H13a.51.51,0,0,0,.36-.15,11.4,11.4,0,0,0,3.17-8.13A11.62,11.62,0,0,0,13.86,9ZM3.7,9.36a.52.52,0,0,0,.08-.61,5.17,5.17,0,1,1,9,0,.52.52,0,0,0,.08.61,9,9,0,0,1,1.41,2,16,16,0,0,0-3.83-1.64,4.14,4.14,0,1,0-4.33,0,15.82,15.82,0,0,0-3.82,1.64A9,9,0,0,1,3.7,9.36Zm4.58,0A3.11,3.11,0,0,1,5.17,6.2v0a4.33,4.33,0,0,0,1.07-.28.5.5,0,0,0,.48.32.51.51,0,0,0,.51-.51.53.53,0,0,0-.12-.33A4.82,4.82,0,0,0,8.28,4.08,4.82,4.82,0,0,0,9.44,5.36a.49.49,0,0,0-.13.33.52.52,0,0,0,1,.19,4.33,4.33,0,0,0,1.07.28v0A3.1,3.1,0,0,1,8.28,9.31Zm1.8,2.76c-.67-.33-1.29-.79-1.29-1.21a.52.52,0,1,0-1,0c0,.42-.61.87-1.29,1.2.3-.76.85-1.72,1.81-1.72S9.79,11.3,10.08,12.07Zm-4.69-7A3.11,3.11,0,0,1,7.6,3.18,3.49,3.49,0,0,1,5.39,5.1ZM9,3.18A3.12,3.12,0,0,1,11.17,5.1,3.51,3.51,0,0,1,9,3.18ZM1.54,13A13.06,13.06,0,0,1,5.9,10.67a6.53,6.53,0,0,0-.72,2,.52.52,0,0,0,.51.6l.15,0a6.22,6.22,0,0,0,2.44-1.39,6.22,6.22,0,0,0,2.44,1.39l.15,0a.52.52,0,0,0,.51-.6,6.69,6.69,0,0,0-.73-2A12.87,12.87,0,0,1,15,13a11.36,11.36,0,0,1,.51,3.37H1A11.69,11.69,0,0,1,1.54,13ZM13,24.2H3.59A10.45,10.45,0,0,1,.84,17.79H15.72A10.51,10.51,0,0,1,13,24.2Z" style="fill: #303c42"/>
    <path d="M7.58,8.2c0,.2.31.37.7.37S9,8.4,9,8.2,7.58,8,7.58,8.2Z" style="fill: #303c42"/>
  </g>
</svg>
