<?xml version="1.0" standalone="no"?>
<!DOCTYPE svg PUBLIC "-//W3C//DTD SVG 1.1//EN" "http://www.w3.org/Graphics/SVG/1.1/DTD/svg11.dtd" >
<svg xmlns="http://www.w3.org/2000/svg" xmlns:xlink="http://www.w3.org/1999/xlink" version="1.1">
<metadata></metadata>
<defs>
<font id="superclarendonbold" horiz-adv-x="1802" >
<font-face units-per-em="2048" ascent="1587" descent="-461" />
<missing-glyph horiz-adv-x="706" />
<glyph horiz-adv-x="0" />
<glyph unicode="&#xd;" horiz-adv-x="583" />
<glyph unicode=" "  horiz-adv-x="706" />
<glyph unicode="&#x09;" horiz-adv-x="706" />
<glyph unicode="&#xa0;" horiz-adv-x="706" />
<glyph unicode="!" horiz-adv-x="831" d="M203 1352q0 104 54 146t159 42q98 0 152.5 -44t54.5 -142q0 -63 -14.5 -125t-35 -154t-42 -233.5t-35.5 -364.5h-172q-10 223 -31 364.5t-40.5 233.5t-34.5 152.5t-15 124.5zM223 172q0 76 54.5 130t134.5 54q76 0 130 -54t54 -130q0 -80 -54.5 -134t-129.5 -54 q-80 0 -134.5 54t-54.5 134z" />
<glyph unicode="&#x22;" horiz-adv-x="890" d="M76 1438q0 45 15 70.5t39 40t50.5 18.5t50.5 4q20 0 47 -5t50.5 -18.5t39 -39t15.5 -68.5q0 -53 -8 -95t-21.5 -99.5t-30 -141.5t-30.5 -221h-131q-10 137 -24.5 222t-29 141.5t-23.5 97t-9 94.5zM508 1438q0 45 15.5 70.5t39 40t51 18.5t50.5 4q20 0 46.5 -5t50 -18.5 t39 -39t15.5 -68.5q0 -53 -8 -95t-21.5 -99.5t-30 -141.5t-30.5 -221h-131q-10 137 -24.5 222t-29 141.5t-23.5 97t-9 94.5z" />
<glyph unicode="#" horiz-adv-x="1220" d="M96 348v168h195l55 305h-182v166h213l67 377h179l-68 -377h231l68 377h178l-67 -377h165v-166h-194l-55 -305h182v-168h-211l-64 -348h-180l62 348h-228l-63 -348h-180l61 348h-164zM471 516h229l56 305h-230z" />
<glyph unicode="$" horiz-adv-x="1245" d="M111 236v364l170 10q18 -88 101 -143t189 -74v232q-121 20 -208 47.5t-143 67.5t-82.5 97.5t-26.5 137.5q0 141 99 224t286 83q39 0 75 -6v246h109v-265q63 -16 109.5 -38.5t74.5 -22.5q39 0 62 66h159v-353l-174 -12q-20 92 -79.5 143.5t-151.5 67.5v-223 q100 -18 186 -40t148.5 -58.5t98.5 -94t36 -145.5q0 -98 -43 -160.5t-110.5 -99.5t-150.5 -50.5t-165 -13.5v-223h-109v231q-47 6 -82.5 18.5t-64.5 25t-51.5 21.5t-40.5 9q-16 0 -26.5 -10t-24.5 -47zM414 1026q0 -53 44 -77.5t113 -41.5v211q-86 -8 -121.5 -29.5 t-35.5 -62.5zM680 385q80 0 121 27.5t41 76.5q0 53 -45 78t-117 39v-221z" />
<glyph unicode="%" horiz-adv-x="1658" d="M125 1044q0 160 82 256.5t254 96.5q68 0 126 -17.5t103 -57.5t70.5 -104.5t25.5 -156.5q0 -154 -86 -247t-251 -93q-66 0 -124.5 16.5t-102.5 55t-70.5 100t-26.5 151.5zM311 0l850 1397h209l-858 -1397h-201zM328 1083q0 -78 7 -127t22.5 -77.5t38 -40t53.5 -11.5 q72 0 101.5 53.5t29.5 172.5q0 72 -7.5 118t-21.5 72.5t-35.5 36.5t-52.5 10q-70 0 -102.5 -48t-32.5 -159zM885 324q0 160 82 256t254 96q68 0 126 -17.5t103 -57.5t70.5 -104.5t25.5 -156.5q0 -154 -86 -247t-252 -93q-66 0 -124 16.5t-102 55.5t-70.5 100t-26.5 152z M1090 362q0 -78 7 -127t21.5 -77.5t37 -40t52.5 -11.5q72 0 102.5 53.5t30.5 172.5q0 72 -7 118t-21.5 72.5t-36.5 36.5t-53 10q-68 0 -100.5 -48t-32.5 -159z" />
<glyph unicode="&#x26;" horiz-adv-x="1955" d="M127 442q0 86 24.5 157t69.5 129t105.5 105.5t134.5 84.5q-31 63 -48.5 130.5t-17.5 133.5q0 92 35 162.5t94.5 116.5t141.5 69.5t176 23.5q141 0 231 -78.5t90 -222.5q0 -78 -25.5 -136t-68.5 -104t-99.5 -83t-117.5 -70q33 -68 72 -137.5t83 -137t92 -129t97 -110.5 q59 59 95 139t36 174q0 47 -32.5 66.5t-125.5 19.5v168h551v-168q-92 0 -123.5 -19t-31.5 -67q0 -117 -51.5 -229.5t-145.5 -206.5q35 -18 71 -29.5t70 -11.5q61 0 104.5 30t43.5 95v101h143v-101q0 -154 -84 -247t-258 -93q-82 0 -160.5 25.5t-156.5 68.5 q-92 -45 -192.5 -69.5t-211.5 -24.5q-117 0 -227.5 24.5t-195.5 80t-136 146.5t-51 224zM457 446q0 -63 22.5 -113t61.5 -86t90 -54.5t106 -18.5q51 0 102.5 8t98.5 27q-111 98 -204 218t-159 249q-53 -43 -85.5 -97.5t-32.5 -132.5zM739 1237q0 -43 9.5 -87t27.5 -97 q82 39 135.5 90t53.5 129q0 115 -109 114q-63 0 -90 -46t-27 -103z" />
<glyph unicode="'" horiz-adv-x="458" d="M76 1438q0 45 15 70.5t39 40t50.5 18.5t50.5 4q20 0 47 -5t50.5 -18.5t39 -39t15.5 -68.5q0 -53 -8 -95t-21.5 -99.5t-30 -141.5t-30.5 -221h-131q-10 137 -24.5 222t-29 141.5t-23.5 97t-9 94.5z" />
<glyph unicode="(" horiz-adv-x="811" d="M76 657q0 270 44 449.5t124 294.5t192.5 179.5t249.5 102.5l49 -92q-94 -33 -165.5 -101.5t-121 -180t-74 -272t-24.5 -380.5q0 -219 24.5 -382.5t74 -281.5t121 -196t165.5 -123l-53 -94q-135 45 -246.5 119t-191.5 196.5t-124 308t-44 453.5z" />
<glyph unicode=")" horiz-adv-x="811" d="M76 -326q92 37 163.5 106.5t121 183.5t75 275.5t25.5 383.5q0 219 -24.5 381.5t-74 278.5t-121 189.5t-165.5 116.5l49 94q135 -41 247.5 -111.5t192.5 -191t124 -305t44 -452.5t-44 -448.5t-124 -298.5t-191.5 -185.5t-248.5 -110.5q-12 23 -25.5 47.5t-23.5 46.5z" />
<glyph unicode="*" horiz-adv-x="1316" d="M145 1028q0 98 183 98h164q41 0 40 15q0 18 -48 37.5t-105 43t-105.5 54.5t-48.5 76q0 29 27 56.5t65 27.5q39 0 80 -36t77 -79t64.5 -79t45.5 -36q14 0 14 25q0 31 -7 62.5t-15.5 62t-15.5 61.5t-7 64q0 49 25.5 74.5t62.5 25.5q35 0 63.5 -25.5t28.5 -74.5 q0 -33 -8 -64t-17.5 -61.5t-16.5 -62t-7 -64.5q0 -23 14 -23q16 0 46 36t66 79t76 79t79 36q31 0 61.5 -28t30.5 -56q0 -45 -48 -77t-105.5 -56.5t-105.5 -43t-48 -36.5q0 -8 15 -10.5t40 -2.5h153q178 0 179 -98q0 -35 -26 -61.5t-73 -26.5q-31 0 -66.5 13.5t-72.5 30.5 t-71.5 34.5t-61.5 28.5q-10 4 -16.5 4t-10.5 2q-10 0 -10 -11q0 -18 28.5 -51t62.5 -71.5t62.5 -78.5t28.5 -71t-28.5 -59.5t-61.5 -28.5q-53 0 -81.5 51t-45 113.5t-27 114t-26.5 51.5q-12 0 -20.5 -24.5t-16.5 -61.5t-18.5 -79t-26.5 -79t-39.5 -61.5t-58.5 -24.5 q-41 0 -65.5 25.5t-24.5 64.5q0 31 28.5 72t63.5 80t63.5 71.5t28.5 46.5q0 10 -14 11q-4 -2 -10.5 -2t-16.5 -4q-27 -10 -60.5 -28t-70.5 -35t-74 -29.5t-67 -12.5q-47 0 -72 25.5t-25 60.5z" />
<glyph unicode="+" horiz-adv-x="1161" d="M76 637v178h411v404h183v-404h415v-178h-415v-406h-183v406h-411z" />
<glyph unicode="," horiz-adv-x="720" d="M170 172q0 86 51 132t133 46q94 0 148.5 -58.5t54.5 -168.5q0 -166 -79 -265.5t-228 -172.5l-51 88q92 47 126.5 96t34.5 96q0 43 -34 43q-78 0 -117 43t-39 121z" />
<glyph unicode="-" horiz-adv-x="688" d="M55 494v186h576v-186h-576z" />
<glyph unicode="." horiz-adv-x="720" d="M172 172q0 76 54.5 130t133.5 54q39 0 73 -14t58.5 -40t39 -59.5t14.5 -70.5q0 -80 -53.5 -134t-131.5 -54q-80 0 -134 54t-54 134z" />
<glyph unicode="/" horiz-adv-x="925" d="M53 -61l602 1585h211l-600 -1585h-213z" />
<glyph unicode="0" horiz-adv-x="1499" d="M113 668q0 211 40 351t119.5 224t199.5 119t278 35t277.5 -35t199.5 -119t119.5 -224t39.5 -351q0 -207 -39.5 -342.5t-119.5 -215t-200 -111.5t-277 -32q-160 0 -279 32t-198.5 111.5t-119.5 215t-40 342.5zM516 670q0 -160 10.5 -259.5t36 -154.5t70.5 -75.5t117 -20.5 q70 0 114.5 20.5t71.5 75.5t37 154.5t10 259.5q0 135 -10 235.5t-37 168t-71.5 101t-114.5 33.5t-115 -33.5t-71.5 -101t-37 -168t-10.5 -235.5z" />
<glyph unicode="1" horiz-adv-x="1122" d="M113 1161q287 6 395 244l299 -23q-6 -55 -9 -94t-3 -74v-960q0 -88 217 -88v-166h-873v166q254 0 254 88v750h-272z" />
<glyph unicode="2" horiz-adv-x="1388" d="M113 0q31 174 95 285.5t143 186.5t162 126t151.5 104.5t112.5 122t44 179.5t-62.5 170t-168.5 59q-102 0 -153.5 -31t-74.5 -76q43 -2 80 -42t37 -99q0 -72 -44 -119t-124 -47q-78 0 -119.5 50.5t-41.5 127.5q0 63 29.5 134t94 129.5t165 97.5t239.5 39 q104 0 204.5 -20.5t178.5 -70t126 -131t48 -204.5q0 -141 -59.5 -230.5t-150.5 -145.5t-198.5 -91t-206 -70t-171 -79t-93.5 -119q59 53 125 75.5t148 22.5q70 0 121 -12.5t94 -26.5t84 -26.5t90 -12.5q57 0 95 23.5t48 93.5h111q4 -27 5 -65t1 -60q0 -55 -14.5 -104.5 t-47 -86.5t-83 -58.5t-119.5 -21.5q-113 0 -182.5 19.5t-126 43t-112.5 43t-140 19.5q-72 0 -118 -25.5t-75 -76.5h-147z" />
<glyph unicode="3" horiz-adv-x="1351" d="M102 344q0 80 43 130t123 50q78 0 123 -49t45 -121q0 -47 -31.5 -86t-78.5 -43q29 -43 104.5 -68.5t161.5 -25.5q117 0 181.5 61.5t64.5 174.5q0 164 -75 233.5t-243 85.5l12 123q57 4 104.5 17.5t80.5 40t51 68.5t18 103q0 104 -55 148.5t-166 44.5q-78 0 -137 -23.5 t-98 -64.5q55 -4 97 -43t42 -99q0 -68 -44 -115.5t-122 -47.5q-76 0 -118 49t-42 125q0 63 28 131.5t90.5 125t162.5 92.5t246 36q104 0 197.5 -19.5t164 -59.5t112.5 -104.5t42 -152.5q0 -129 -73 -203t-232 -106q186 -23 272 -112t86 -226q0 -117 -50 -201t-134 -139.5 t-195.5 -81t-234.5 -25.5q-129 0 -226.5 35t-164 89t-99.5 121t-33 132z" />
<glyph unicode="4" horiz-adv-x="1437" d="M92 416v155l678 826h383v-793h186l-24 -188h-162v-158q0 -92 186 -92v-166h-835v166q252 0 252 92v158h-664zM338 604h418v512z" />
<glyph unicode="5" horiz-adv-x="1392" d="M102 360q0 78 42 128.5t120 50.5t123 -48.5t45 -117.5q0 -57 -33.5 -97t-74.5 -43q18 -47 79.5 -74.5t159.5 -27.5q160 0 229.5 95.5t69.5 275.5q0 141 -57 218t-187 77q-94 0 -169.5 -23.5t-145.5 -68.5l-115 88l56 604q53 -8 118.5 -14.5t135 -10.5t137 -6t125.5 -2 q49 0 107.5 3t117.5 8t115.5 14.5t101.5 21.5v-88q-37 -55 -93 -97t-122.5 -71t-138.5 -43t-137 -14q-55 0 -134 10t-157 43l-27 -279q66 41 153 60.5t191 19.5q154 0 258.5 -36.5t167 -100t90 -148.5t27.5 -180q0 -141 -52 -240.5t-140.5 -160.5t-205 -90t-245.5 -29 q-104 0 -201.5 29t-171.5 81t-118 124.5t-44 158.5z" />
<glyph unicode="6" horiz-adv-x="1394" d="M113 682q0 141 33.5 270t109.5 227.5t196.5 158t292.5 59.5q92 0 185.5 -20.5t167 -62.5t120 -106.5t46.5 -152.5q0 -78 -42 -122t-120 -44q-80 0 -125 43t-45 112q0 57 34.5 91t75.5 36q-35 39 -98 58.5t-139 19.5q-80 0 -141.5 -23.5t-101.5 -86t-60.5 -174 t-20.5 -285.5q49 82 149.5 129t225.5 47q98 0 176 -31.5t133.5 -89t85 -137.5t29.5 -174q0 -96 -28.5 -179t-97.5 -144.5t-182.5 -97.5t-281.5 -36q-135 0 -242.5 37t-181 122t-113.5 221t-40 335zM512 408q0 -88 12.5 -146.5t37 -93.5t61 -49.5t84.5 -14.5q98 0 150 62.5 t52 224.5q0 82 -13 136.5t-39 87t-62.5 46t-81.5 13.5q-92 0 -146.5 -58.5t-54.5 -207.5z" />
<glyph unicode="7" horiz-adv-x="1204" d="M92 1155q0 55 14.5 104.5t46 86t81 58t120.5 21.5q111 0 180.5 -19.5t127 -44t116 -44t148.5 -19.5q59 0 90 21.5t67 77.5q16 -31 35 -59.5t35 -57.5q-88 -96 -152.5 -175t-110.5 -148.5t-76 -134t-46 -130t-22.5 -138.5t-6.5 -157q0 -37 2 -76.5t2 -80.5q0 -51 -6 -99.5 t-27.5 -85.5t-63.5 -59.5t-111 -22.5q-123 0 -178.5 70t-55.5 186q0 147 49 275.5t132 239t190.5 202.5t224.5 166q-53 -25 -98 -33t-86 -8q-55 0 -101.5 13.5t-89.5 29.5t-85 29.5t-87 13.5q-47 0 -87 -25.5t-54 -103.5h-111q-4 27 -5 64.5t-1 62.5z" />
<glyph unicode="8" horiz-adv-x="1359" d="M113 358q0 123 64.5 213.5t199.5 135.5q-86 53 -146.5 132t-60.5 195q0 96 39 165t106.5 113t160.5 64.5t204 20.5t204 -20.5t160.5 -62.5t106.5 -105.5t39 -151.5q0 -82 -55 -158t-166 -123q123 -53 200.5 -149.5t77.5 -243.5q0 -109 -43 -187.5t-117.5 -129t-178 -75 t-226.5 -24.5t-227.5 23.5t-180 73t-118.5 123t-43 171.5zM369 381q0 -104 68.5 -170t209.5 -66t203.5 43t62.5 136q0 63 -37.5 106t-98 75t-133 60.5t-140.5 63.5q-72 -37 -103.5 -96.5t-31.5 -151.5zM504 1083q0 -43 25.5 -75.5t67.5 -60t96.5 -50.5t113.5 -43 q66 33 98.5 79t32.5 126q0 72 -50 122t-169 50q-92 0 -153.5 -34t-61.5 -114z" />
<glyph unicode="9" horiz-adv-x="1394" d="M113 940q0 94 28.5 178t97 145.5t181 97.5t282.5 36q135 0 242 -38t181.5 -124t114.5 -226.5t40 -344.5q0 -133 -34 -259t-109.5 -223.5t-196.5 -156t-293 -58.5q-92 0 -185 20.5t-168 62.5t-121 106.5t-46 152.5q0 78 42 122t120 44t123 -43t45 -113q0 -57 -35 -90.5 t-76 -35.5q35 -39 99.5 -58.5t142.5 -19.5q80 0 138 22.5t96 84t56.5 172t18.5 286.5q-47 -86 -143.5 -129t-218.5 -43q-98 0 -176 31.5t-132.5 89t-84 136.5t-29.5 175zM481 973q0 -82 13.5 -136.5t40 -87t62.5 -46t83 -13.5q92 0 145.5 57.5t53.5 208.5q0 88 -12.5 146.5 t-37 93.5t-60.5 49.5t-85 14.5q-98 0 -150.5 -62.5t-52.5 -224.5z" />
<glyph unicode=":" horiz-adv-x="720" d="M172 172q0 76 54.5 130t133.5 54q39 0 73 -14t58.5 -40t39 -59.5t14.5 -70.5q0 -80 -53.5 -134t-131.5 -54q-80 0 -134 54t-54 134zM172 803q0 37 14.5 70.5t40 59t59 41t74.5 15.5q39 0 73 -15.5t58.5 -41t39 -59t14.5 -70.5q0 -78 -53.5 -132.5t-131.5 -54.5 q-80 0 -134 54.5t-54 132.5z" />
<glyph unicode=";" horiz-adv-x="720" d="M170 172q0 86 51 132t133 46q94 0 148.5 -58.5t54.5 -168.5q0 -166 -79 -265.5t-228 -172.5l-51 88q92 47 126.5 96t34.5 96q0 43 -34 43q-78 0 -117 43t-39 121zM174 803q0 37 14.5 70.5t40 59t59.5 41t72 15.5q39 0 73 -15.5t59.5 -41t40 -59t14.5 -70.5 q0 -78 -54.5 -132.5t-132.5 -54.5t-132 54.5t-54 132.5z" />
<glyph unicode="&#x3c;" horiz-adv-x="972" d="M76 719l762 440l59 -119l-467 -321l463 -330l-55 -113z" />
<glyph unicode="=" horiz-adv-x="1021" d="M76 406v182h870v-182h-870zM76 862v180h870v-180h-870z" />
<glyph unicode="&#x3e;" horiz-adv-x="970" d="M76 1040l57 119l762 -440l-762 -443l-55 113l461 330z" />
<glyph unicode="?" horiz-adv-x="1243" d="M92 1174q0 61 27.5 128.5t90 123t165 92t252.5 36.5q102 0 196.5 -16t167 -57t115.5 -111t43 -174q0 -96 -36 -161.5t-89 -115t-115.5 -88t-118 -81.5t-93.5 -96.5t-42 -129.5h-129q-12 27 -19 50.5t-7 52.5q0 84 39 149.5t85 129t85 131t39 155.5q0 98 -62.5 147.5 t-150.5 49.5q-55 0 -93.5 -7.5t-64 -19.5t-42 -27.5t-30.5 -29.5q43 -4 74 -42t31 -100q0 -68 -36 -118t-130 -50q-66 0 -109 51.5t-43 127.5zM412 170q0 37 15 70.5t41 59.5t59.5 41t72.5 15t73 -15t58.5 -41t38.5 -59.5t14 -70.5q0 -78 -53 -132t-131 -54q-39 0 -73.5 14 t-60.5 39.5t-40 59.5t-14 73z" />
<glyph unicode="@" horiz-adv-x="2074" d="M156 506q0 227 69.5 394t194.5 276.5t298 164t382 54.5q190 0 341.5 -49.5t259 -143.5t165 -229t57.5 -309q0 -104 -29.5 -194.5t-84 -157t-129 -105.5t-167.5 -39q-76 0 -130 34t-80 93q-35 -61 -106 -98t-159 -37q-68 0 -129 21.5t-106 65.5t-71.5 112.5t-26.5 162.5 q0 109 30.5 189t84.5 132t126 77.5t156 25.5q78 0 136 -30.5t93 -77.5l49 88h138l-70 -512q-2 -10 -2 -18.5v-16.5q0 -96 76 -96q33 0 69.5 19.5t68.5 65.5t52.5 120.5t20.5 183.5q0 143 -52.5 251.5t-139.5 182.5t-202.5 110.5t-242.5 36.5q-141 0 -261 -44t-206 -132 t-135.5 -222t-49.5 -312q0 -174 49.5 -304t139.5 -217.5t217 -130.5t280 -43q141 0 278.5 40t242.5 118l82 -147q-123 -100 -291 -147.5t-348 -47.5q-209 0 -381 53.5t-296 159t-192.5 263t-68.5 366.5zM934 522q0 -74 6 -122t22.5 -75.5t45 -39t73.5 -11.5t76 29t49.5 76 t25.5 107.5t7 125.5q0 127 -28.5 174.5t-102.5 47.5q-76 0 -125 -82t-49 -230z" />
<glyph unicode="A" d="M76 168q88 0 128 15.5t50 43.5l459 1295h413l435 -1293q20 -61 165 -61v-168h-821v168h158q59 0 59 37q0 8 -6 24l-57 164h-553l-51 -147q-6 -16 -6 -27q0 -51 92 -51h116v-168h-579zM565 573h441l-213 668z" />
<glyph unicode="B" horiz-adv-x="1738" d="M76 0v168q182 0 182 94v983q0 94 -182 94v183h901q119 0 218 -13.5t169 -53.5t108.5 -114.5t38.5 -199.5q0 -72 -22.5 -127.5t-62.5 -95t-93 -64.5t-114 -37q186 -16 289.5 -106t103.5 -258q0 -129 -34 -216t-105.5 -139.5t-182 -75t-262.5 -22.5h-952zM674 219h264 q70 0 116 18.5t73.5 52.5t39 80t11.5 101q0 119 -55.5 179.5t-184.5 60.5h-264v-492zM674 885h211q113 0 156.5 55t43.5 172q0 176 -200 176h-211v-403z" />
<glyph unicode="C" horiz-adv-x="1609" d="M76 745q0 207 60.5 359.5t162.5 252t236.5 148.5t283.5 49q156 0 269.5 -37.5t179.5 -97.5l47 103h201v-500l-207 -16q-31 160 -124 248.5t-253 88.5q-231 0 -328.5 -152.5t-97.5 -430.5q0 -145 29.5 -249.5t82 -171.5t123 -98.5t150.5 -31.5q193 0 298 78t159 241 l186 -47q-27 -102 -76 -194t-129 -164t-196.5 -114t-276.5 -42q-162 0 -304 47t-247.5 143.5t-167 243t-61.5 344.5z" />
<glyph unicode="D" horiz-adv-x="1736" d="M76 0v168q182 0 182 94v998q0 94 -182 94v168h821q195 0 337 -27t234.5 -103.5t137.5 -219t45 -371.5q0 -238 -45 -392.5t-137.5 -245.5t-234.5 -127t-337 -36h-821zM674 209h256q90 0 147.5 35t89 106.5t44 182t12.5 262.5t-12.5 252t-44 159.5t-89 83t-147.5 23.5h-256 v-1104z" />
<glyph unicode="E" horiz-adv-x="1636" d="M76 0v168q182 0 182 94v998q0 94 -182 94v168h1417v-461l-205 -10q-12 262 -229 262h-385v-428h155q96 0 115 229h180l-30 -639h-176q-23 238 -103 238h-141v-504h311q324 0 348 389l209 -14l-49 -584h-1417z" />
<glyph unicode="F" horiz-adv-x="1531" d="M76 0v168q182 0 182 94v998q0 94 -182 94v168h1382v-461l-172 -10q-23 262 -221 262h-391v-469h168q98 0 116 237h170l-30 -680h-166q-23 246 -105 246h-153v-385q0 -94 229 -94v-168h-827z" />
<glyph unicode="G" horiz-adv-x="1800" d="M76 762q0 211 60.5 360.5t162.5 245.5t237.5 141t282.5 45q160 0 272.5 -37.5t178.5 -99.5l45 105h201v-500l-207 -18q-31 160 -126.5 248.5t-250.5 88.5q-229 0 -327.5 -151.5t-98.5 -425.5q0 -174 28.5 -283.5t83 -171t130 -84t167.5 -22.5q68 0 128.5 15t107.5 43 t74.5 68t27.5 91v98q0 94 -184 94v168h674v-168q-184 0 -184 -94v-518h-254l-43 127q-23 -29 -63 -57.5t-98.5 -51t-135 -37t-170.5 -14.5q-135 0 -264.5 41t-230.5 134.5t-162.5 246t-61.5 373.5z" />
<glyph unicode="H" horiz-adv-x="1886" d="M76 0v168q182 0 182 94v998q0 94 -182 94v168h758v-168q-160 0 -160 -94v-363h536v363q0 94 -157 94v168h759v-168q-184 0 -184 -94v-998q0 -94 184 -94v-168h-759v168q158 0 157 94v438h-536v-438q0 -94 160 -94v-168h-758z" />
<glyph unicode="I" horiz-adv-x="976" d="M96 0v168q184 0 185 94v998q0 94 -185 94v168h783v-168q-182 0 -183 -94v-998q0 -94 183 -94v-168h-783z" />
<glyph unicode="J" horiz-adv-x="1427" d="M74 387q0 104 58 165.5t157 61.5q88 0 136 -45t48 -123q0 -66 -42 -112.5t-114 -52.5q14 -55 75 -87t132 -32q61 0 107.5 19.5t76 66.5t45 124t15.5 193v695q0 94 -182 94v168h784v-168q-184 0 -184 -94v-758q0 -133 -43 -232.5t-122 -167t-188.5 -101.5t-242.5 -34 q-115 0 -209 29t-162.5 82t-106.5 132t-38 177z" />
<glyph unicode="K" horiz-adv-x="1974" d="M76 0v168q182 0 182 94v998q0 94 -182 94v168h780v-168q-182 0 -182 -94v-439l477 400q33 27 33 65q0 29 -20.5 48.5t-61.5 19.5h-55v168h725v-168q-72 -2 -145 -28t-130 -73l-293 -239l477 -742q37 -57 76 -80.5t109 -23.5h45v-168h-846v168h92q72 0 72 49q0 20 -19 55 l-299 502l-237 -201v-311q0 -94 182 -94v-168h-780z" />
<glyph unicode="L" horiz-adv-x="1581" d="M76 0v168q182 0 182 94v998q0 94 -182 94v168h825v-168q-227 0 -227 -94v-1051h350q131 0 206 87t93 302l182 -14l-49 -584h-1380z" />
<glyph unicode="M" horiz-adv-x="2228" d="M76 0v168q182 0 182 94v998q0 94 -182 94v168h747l310 -1061l309 1061h710v-168q-184 0 -184 -94v-998q0 -94 184 -94v-168h-763v168q182 0 182 94v977l-381 -1239h-334l-381 1239v-977q0 -94 182 -94v-168h-581z" />
<glyph unicode="N" horiz-adv-x="1849" d="M76 0v168q182 0 182 94v998q0 94 -182 94v168h665l656 -1176v914q0 94 -183 94v168h582v-168q-182 0 -182 -94v-1260h-496l-641 1147v-885q0 -94 182 -94v-168h-583z" />
<glyph unicode="O" horiz-adv-x="1703" d="M76 729q0 193 44 346.5t139 260t244.5 162.5t362.5 56q166 0 306.5 -39.5t242 -132t157.5 -245t56 -375.5q0 -184 -48 -331.5t-146.5 -250t-247 -158t-350.5 -55.5q-166 0 -305.5 39t-241 128t-157.5 235.5t-56 359.5zM489 823q0 -197 25 -320.5t70 -193t109.5 -95.5 t142.5 -26q102 0 174.5 30t119 96.5t68 173t21.5 260.5q0 178 -25 291.5t-70 180t-108 92t-139 25.5q-197 0 -292.5 -121.5t-95.5 -392.5z" />
<glyph unicode="P" horiz-adv-x="1587" d="M76 0v168q182 0 182 94v998q0 94 -182 94v168h872q133 0 238.5 -18.5t178.5 -69t110.5 -136.5t37.5 -221t-37.5 -229t-110.5 -152.5t-178.5 -84t-238.5 -25.5h-274v-324q0 -94 227 -94v-168h-825zM674 803h178q150 0 209 63.5t59 210.5q0 106 -59.5 166t-208.5 60h-178 v-500z" />
<glyph unicode="Q" horiz-adv-x="1738" d="M76 729q0 193 44 346.5t139 260t244.5 162.5t362.5 56q166 0 306.5 -39.5t242 -132t157.5 -245t56 -375.5q0 -236 -76.5 -407t-236.5 -269q43 -51 94 -81t113 -30q74 0 114 54l62 -105q-25 -66 -96.5 -110.5t-163.5 -44.5q-70 0 -126.5 17t-102.5 47t-85 70t-71 85 q-47 -10 -102.5 -15.5t-114.5 -5.5q-166 0 -305.5 39t-241 128t-157.5 234.5t-56 360.5zM487 823q0 -123 10.5 -216t30.5 -163q47 70 112 98.5t132 28.5q113 0 195.5 -53t148.5 -133q57 59 80 152.5t23 210.5q0 178 -25 291.5t-70 180t-108.5 92t-138.5 25.5 q-199 0 -294.5 -121.5t-95.5 -392.5zM571 309q47 -82 113 -112.5t152 -30.5q57 0 106 12q-59 98 -112.5 157.5t-131.5 59.5q-35 0 -68.5 -21.5t-58.5 -64.5z" />
<glyph unicode="R" horiz-adv-x="1839" d="M76 0v168q182 0 182 94v998q0 94 -182 94v168h973q100 0 196 -13.5t171 -54.5t120 -115.5t45 -197.5q0 -80 -24.5 -140.5t-64.5 -103.5t-91 -69.5t-107 -39.5q55 -16 97.5 -43.5t72 -70.5t45 -105.5t15.5 -146.5v-164q0 -45 18.5 -66.5t46.5 -21.5q31 0 49.5 21.5 t18.5 66.5v98h129v-88q0 -59 -18.5 -111.5t-56.5 -90t-98.5 -59t-144.5 -21.5q-98 0 -166.5 24.5t-111.5 67.5t-63.5 100.5t-20.5 122.5v133q0 80 -9.5 133.5t-32 85t-59 46t-94.5 14.5h-237v-451q0 -94 227 -94v-168h-825zM674 885h262q115 0 167 50t52 177q0 94 -51 142.5 t-168 48.5h-262v-418z" />
<glyph unicode="S" horiz-adv-x="1503" d="M76 0v541l184 12q16 -180 153.5 -273.5t366.5 -93.5q63 0 122 8.5t103 31t69.5 63.5t25.5 106q0 70 -55.5 106t-142.5 57.5t-195.5 35.5t-214.5 43q-213 55 -312.5 166.5t-99.5 318.5q0 86 28.5 164t92 137.5t162 95t237.5 35.5q147 0 241.5 -26.5t157.5 -59.5 q23 -12 40.5 -18t35.5 -6q43 0 64.5 19.5t44.5 58.5h157v-512l-184 -19q-12 92 -53 159t-103.5 107.5t-143.5 60t-175 19.5q-41 0 -90 -5t-92 -22.5t-72 -51t-29 -91.5q0 -49 32 -80.5t86 -53t126 -36t150.5 -28t161.5 -31.5t161 -45q147 -53 229 -155.5t82 -278.5 q0 -121 -43 -213t-120.5 -153.5t-185 -93.5t-234.5 -32q-152 0 -247 29t-163 65q-47 27 -84 27q-29 0 -51.5 -26.5t-36.5 -61.5h-186z" />
<glyph unicode="T" horiz-adv-x="1712" d="M76 895v627h1562v-627l-178 -6q-10 231 -72.5 327.5t-181.5 96.5h-139v-1051q0 -94 184 -94v-168h-784v168q182 0 182 94v1051h-141q-119 0 -180.5 -96.5t-73.5 -327.5z" />
<glyph unicode="U" horiz-adv-x="1816" d="M76 1352v168h813v-168q-117 0 -166 -23.5t-49 -71.5v-636q0 -113 15.5 -194t52 -132t100 -75.5t159.5 -24.5t163 24.5t108 75.5t58.5 132t17.5 194v636q0 47 -50.5 71t-167.5 24v168h617v-168q-184 0 -184 -95v-636q0 -152 -31 -273t-103.5 -205t-193.5 -130t-301 -46 q-184 0 -313 46t-209 130t-117 205t-37 273v636q0 94 -182 95z" />
<glyph unicode="V" d="M76 1354v168h821v-168h-158q-59 0 -59 -35q0 -6 2 -12.5t4 -14.5l324 -1011l338 995q6 14 6 29q0 49 -92 49h-117v168h579l2 -168q-92 0 -129.5 -15.5t-48.5 -44.5l-458 -1294h-414l-434 1292q-23 61 -166 62z" />
<glyph unicode="W" horiz-adv-x="2465" d="M76 1354v168h731v-168h-117q-55 0 -55 -39l244 -1036l276 993q-4 35 -39 58.5t-104 23.5v168h659v-168h-117q-53 0 -53 -39l285 -1036l252 997q2 4 2 24q0 53 -80 54h-82v168h512v-170q-94 0 -129 -27t-47 -74l-346 -1251h-398l-253 862l-256 -862h-398l-325 1249 q-10 39 -53.5 72t-108.5 33z" />
<glyph unicode="X" horiz-adv-x="1820" d="M76 0v166q59 0 114.5 22.5t102.5 77.5l424 498l-350 487q-37 51 -77 77t-116 26v168h789v-168h-78q-59 0 -60 -49q0 -23 25 -60l180 -260l199 240q31 37 31 75q0 53 -84 54h-64v168h600v-168q-59 0 -121.5 -25.5t-107.5 -75.5l-348 -391l413 -592q37 -57 77 -80.5 t120 -23.5v-166h-856v166h129q53 0 53 45q0 29 -33 76l-233 342l-260 -334q-33 -41 -33 -72q0 -29 18.5 -43t69.5 -14h100v-166h-624z" />
<glyph unicode="Y" horiz-adv-x="1691" d="M57 1354v168h830v-168h-121q-61 0 -61 -41q0 -16 10 -33l248 -428l266 424q8 14 8 29q0 49 -74 49h-61v168h524v-170q-61 0 -105 -15.5t-61 -42.5l-424 -622v-412q0 -94 205 -94v-166h-825v166q205 0 205 94v412l-408 620q-23 35 -62.5 48.5t-93.5 13.5z" />
<glyph unicode="Z" horiz-adv-x="1505" d="M57 0v197l830 1116h-322q-74 0 -122 -19.5t-78.5 -67.5t-48 -130t-29.5 -207l-178 6v627h1280v-195l-805 -1118h309q80 0 138.5 19.5t99 67.5t65.5 129t37 202l186 -15l-51 -612h-1311z" />
<glyph unicode="[" horiz-adv-x="780" d="M223 -416v2116h484v-144h-248v-1818h248v-154h-484z" />
<glyph unicode="\" horiz-adv-x="925" d="M53 1524h211l602 -1585h-215z" />
<glyph unicode="]" horiz-adv-x="794" d="M76 -260h248v1814h-248v146h483v-2116h-483v156z" />
<glyph unicode="^" horiz-adv-x="825" d="M76 948l289 574h98l287 -574h-156l-176 373l-178 -373h-164z" />
<glyph unicode="_" horiz-adv-x="1136" d="M-10 -106h1159v-187h-1159v187z" />
<glyph unicode="`" horiz-adv-x="780" d="M80 1362q0 47 33.5 77.5t101.5 30.5q55 0 109.5 -22.5t113 -53t121 -63.5t133.5 -55l-37 -86q-109 27 -211 34t-184 18t-131 36t-49 84z" />
<glyph unicode="a" horiz-adv-x="1470" d="M80 254q0 82 28.5 135t79 87t120 53.5t151.5 37t174 36t186 48.5v64q0 43 -12 84t-39 72.5t-69 51t-99 19.5q-86 0 -143.5 -15.5t-102.5 -45.5q49 -4 85 -29t36 -80q0 -63 -42 -101t-124 -38q-164 0 -164 160q0 57 34 110t98.5 93t158.5 63.5t215 23.5q94 0 188.5 -17 t168 -59t120 -115t46.5 -183v-478q0 -86 59 -86q29 0 43 26t14 60v105h119v-66q0 -86 -25.5 -140t-66.5 -87t-92 -45t-103 -12q-127 0 -187.5 58t-80.5 149q-18 -45 -53 -86t-86 -73t-119 -50.5t-152 -18.5q-190 0 -277 79t-87 210zM418 293q0 -53 37 -88t116 -35 q86 0 150.5 45t99.5 113v237q-96 -41 -171 -67.5t-127 -53t-78.5 -60.5t-26.5 -91z" />
<glyph unicode="b" horiz-adv-x="1431" d="M4 1413v164h551v-631q45 66 136 101.5t214 35.5q94 0 176 -25.5t142.5 -88t95.5 -168t35 -264.5q0 -170 -36 -280t-98.5 -175.5t-147.5 -91t-183 -25.5q-84 0 -151.5 20.5t-117 51.5t-80 69.5t-38.5 75.5l-62 -182h-262v1321q0 92 -174 92zM522 532q0 -180 53.5 -269 t182.5 -89q125 0 176 89t51 269t-51 269.5t-176 89.5q-129 0 -182.5 -89t-53.5 -270z" />
<glyph unicode="c" horiz-adv-x="1241" d="M88 514q0 125 37 229.5t110.5 180t182 117.5t252.5 42q104 0 192 -20.5t152.5 -60t100.5 -100t36 -140.5q0 -72 -40 -122t-126 -50q-78 0 -118 41t-40 98q0 51 36 92t93 45q-57 76 -206 76q-129 0 -210 -98.5t-81 -288.5q0 -217 70.5 -313.5t205.5 -96.5q94 0 166 53.5 t88 172.5l172 -15q-12 -72 -45 -141.5t-89 -124.5t-139 -90t-196 -35q-133 0 -244.5 32t-191.5 98.5t-124 170t-44 248.5z" />
<glyph unicode="d" horiz-adv-x="1519" d="M80 524q0 154 40 260.5t109.5 173t162.5 96t202 29.5q92 0 169 -22.5t126 -69.5v330q0 92 -174 92v164h549v-1319q0 -92 178 -92v-166h-481l-15 170q-49 -104 -155.5 -154.5t-241.5 -50.5q-98 0 -184 31t-148.5 98.5t-99.5 173t-37 256.5zM455 543q0 -180 57 -269.5 t182 -89.5q127 0 176.5 89t49.5 270q0 180 -49.5 270t-176.5 90q-125 0 -182 -90t-57 -270z" />
<glyph unicode="e" horiz-adv-x="1282" d="M88 522q0 129 38 232.5t111.5 177.5t180 112.5t246.5 38.5q274 0 406 -135t132 -430h-743q4 -186 63.5 -279.5t188.5 -93.5q98 0 177 52.5t105 158.5l172 -18q-14 -72 -50 -138.5t-95 -118.5t-144 -84t-196 -32q-117 0 -224.5 26.5t-189.5 91t-130 171t-48 268.5z M463 659h426q0 51 -12.5 102.5t-37 91.5t-63.5 64.5t-94 24.5q-92 0 -149.5 -67.5t-69.5 -215.5z" />
<glyph unicode="f" horiz-adv-x="1071" d="M80 891v125q35 8 77 15t95 11v158q0 211 113.5 304t336.5 93q190 0 299 -64.5t109 -211.5q0 -72 -46 -121t-128 -49q-74 0 -113 36t-39 89q0 51 37 85t94 40q-39 57 -145 57q-143 0 -143 -160v-256h321l-10 -174q-125 12 -202 17.5t-107 5.5v-635q0 -92 268 -92v-164 h-815v164q174 0 174 92v635h-176z" />
<glyph unicode="g" horiz-adv-x="1593" d="M80 -233q0 51 22.5 87.5t60.5 61.5t89 37t108 12l54 -61q-53 -16 -72.5 -45t-19.5 -64q0 -68 90 -109.5t262 -41.5q111 0 185.5 9t120.5 27.5t66.5 47t20.5 67.5q0 33 -11.5 56.5t-49 42t-110.5 34t-198 29.5q-111 12 -205 27.5t-161.5 43t-105.5 73.5t-38 120 q0 113 99 180q-117 82 -117 265q0 98 35 169.5t100.5 117.5t157.5 67.5t207 21.5q111 0 197.5 -15t152.5 -50q47 49 104.5 67.5t122.5 18.5q41 0 91.5 -13.5t93.5 -44t71.5 -81t28.5 -123.5q0 -78 -39 -118t-104 -40q-70 0 -107 36t-37 87q0 57 35 88t94 33q-14 33 -53 51 t-84 18q-53 0 -123 -51q78 -82 78 -223q0 -111 -40 -182.5t-109.5 -113.5t-165 -58.5t-207.5 -16.5q-94 0 -166 8.5t-125 30.5q-18 -6 -19 -31q0 -12 10.5 -27.5t53.5 -30.5t128 -31.5t234 -30.5q166 -16 271.5 -39t167 -61t85 -94t23.5 -138q0 -184 -162.5 -263t-500.5 -79 q-166 0 -278.5 13t-182.5 42t-99.5 75t-29.5 112zM475 676q0 -135 46 -190.5t151 -55.5q98 0 146 58.5t48 189.5q0 135 -51 188.5t-143 53.5q-111 0 -154 -56.5t-43 -187.5z" />
<glyph unicode="h" horiz-adv-x="1646" d="M80 0v166q174 0 174 92v1063q0 92 -172 92v164h547v-743q72 111 182.5 170t257.5 59q160 0 242 -72.5t82 -232.5v-500q0 -92 176 -92v-166h-666v166q115 0 115 92v332q0 129 -32 188.5t-95 59.5q-86 0 -156.5 -69t-105.5 -185v-326q0 -92 114 -92v-166h-663z" />
<glyph unicode="i" horiz-adv-x="880" d="M80 0v166q174 0 174 92v526q0 94 -174 95v163h549v-784q-4 -92 174 -92v-166h-723zM233 1374q0 43 16.5 80t45.5 64.5t65.5 44t79.5 16.5t81 -16.5t65.5 -44t44 -64.5t16.5 -80t-16.5 -81t-44 -66.5t-65.5 -45t-81 -16.5t-79.5 16.5t-65.5 45t-45.5 66.5t-16.5 81z" />
<glyph unicode="j" horiz-adv-x="950" d="M-49 -207q0 27 11 57.5t33.5 55t55.5 41t74 16.5q74 0 111.5 -34.5t37.5 -90.5q0 -51 -34.5 -86t-94.5 -39q18 -29 50 -43t86 -14q72 0 102.5 39t30.5 104v985q0 94 -199 95v163h571v-1128q0 -397 -434 -397q-193 0 -297 64.5t-104 211.5zM395 1372q0 43 16.5 81t44 65.5 t65.5 44t81 16.5t80 -16.5t65.5 -44t45 -65.5t16.5 -81t-16.5 -81t-45 -65.5t-65.5 -44t-80 -16.5t-81 16.5t-65.5 44t-44 65.5t-16.5 81z" />
<glyph unicode="k" horiz-adv-x="1703" d="M80 0v164q174 0 174 92v1065q0 92 -174 92v164h547v-1026l352 240q27 18 27 45q0 16 -13.5 29.5t-40.5 13.5h-96v163h729v-163q-96 -2 -182 -27t-154 -72l-108 -73l311 -474q44 -69 168 -69h4v-164h-719v164h80q55 0 55 39q0 10 -4 16t-8 14l-182 283l-219 -141v-119 q0 -47 43 -69.5t121 -22.5v-164h-711z" />
<glyph unicode="l" horiz-adv-x="880" d="M80 0v166q174 0 174 92v1063q0 92 -174 92v164h549v-1319q0 -92 174 -92v-166h-723z" />
<glyph unicode="m" horiz-adv-x="2314" d="M80 0v166q164 0 164 92v528q0 92 -162 93v163h534v-211q63 104 165 168t245 64q123 0 209 -58.5t104 -177.5q139 236 412 236q143 0 230 -72.5t87 -232.5v-500q0 -92 166 -92v-166h-649v166q111 0 111 92v324q0 129 -28 188t-85 59q-76 0 -138.5 -64.5t-101.5 -186.5 v-320q0 -47 30 -69.5t79 -22.5v-166h-592v166q111 0 111 92v324q0 129 -28 188t-87 59q-78 0 -140.5 -64.5t-99.5 -186.5v-320q0 -92 111 -92v-166h-647z" />
<glyph unicode="n" horiz-adv-x="1656" d="M80 0v166q174 0 174 92v528q0 92 -172 93v163h547v-208q72 111 184.5 170t261.5 59q160 0 244 -72.5t84 -232.5v-500q0 -92 176 -92v-166h-666v166q117 0 117 92v324q0 129 -34.5 188t-98.5 59q-86 0 -159.5 -67.5t-108.5 -183.5v-320q0 -92 114 -92v-166h-663z" />
<glyph unicode="o" horiz-adv-x="1320" d="M88 502q0 581 588 581h2q117 0 221.5 -25.5t182 -89t122.5 -171t45 -271.5q0 -276 -153.5 -418.5t-438.5 -142.5q-115 0 -218 24.5t-181 85t-124 164t-46 263.5zM459 559q0 -127 12 -208t36.5 -127t62.5 -62.5t92 -16.5q119 0 165.5 86t46.5 285q0 117 -13 191.5 t-38.5 117.5t-62.5 59.5t-86 16.5q-111 0 -163 -79t-52 -263z" />
<glyph unicode="p" horiz-adv-x="1458" d="M20 -319q176 0 177 92v1009q0 94 -177 95v165h480l14 -170q51 104 157.5 154.5t241.5 50.5q98 0 184.5 -30.5t149 -98t99 -173t36.5 -255.5q0 -154 -39.5 -260t-109.5 -173t-164 -97.5t-201 -30.5q-92 0 -169.5 23.5t-127.5 70.5v-280q0 -92 220 -92v-164h-771v164z M543 506q0 -180 49 -270.5t176 -90.5q129 0 183.5 90.5t54.5 270.5t-54.5 269t-183.5 89q-127 0 -176 -89t-49 -269z" />
<glyph unicode="q" horiz-adv-x="1445" d="M88 508q0 168 35 279.5t96.5 177t146.5 92t185 26.5q82 0 149.5 -20.5t116.5 -53t80 -71.5t41 -76l59 180h263v-1269q0 -92 176 -92v-164h-772v164q219 0 219 92v325q-43 -66 -135.5 -101.5t-215.5 -35.5q-92 0 -174 25.5t-141 88t-94 168t-35 265.5zM457 512 q0 -180 49 -269t174 -89q129 0 182 89t53 269t-53 269t-182 89q-125 0 -174 -89t-49 -269z" />
<glyph unicode="r" horiz-adv-x="1306" d="M80 0v166q174 0 174 92v528q0 92 -172 93v163h547v-190q53 117 135 171t180 54q49 0 100.5 -16.5t91.5 -48t65.5 -80.5t25.5 -115q0 -98 -49.5 -159.5t-135.5 -61.5q-80 0 -122.5 41t-42.5 104q0 51 30.5 92t102.5 46q-18 29 -47 42t-62 13q-41 0 -82 -23.5t-77.5 -65.5 t-66.5 -100.5t-46 -126.5v-360q0 -47 54 -69.5t142 -22.5v-166h-745z" />
<glyph unicode="s" horiz-adv-x="1175" d="M80 0v371q41 4 82 6l82 4q12 -55 50 -98t93 -73t121.5 -45t134.5 -15q74 0 115 30.5t41 77.5q0 49 -37 73.5t-98.5 39t-140.5 27t-161 34.5q-154 41 -218 118t-64 200q0 141 98 227t279 86q74 0 133 -13.5t103 -31t76 -30.5t50 -13q25 0 38 15.5t22 51.5h153v-358 l-166 -14q-27 123 -118 175t-216 52q-76 0 -117.5 -25.5t-41.5 -68.5q0 -53 53 -80t133 -45.5t174 -36.5t174 -55t133.5 -100.5t53.5 -170.5q0 -84 -33 -145t-87 -102t-126 -60.5t-148 -19.5q-143 0 -221 19.5t-127 45.5q-14 6 -28.5 12.5t-28.5 6.5q-39 0 -49 -72h-166z " />
<glyph unicode="t" horiz-adv-x="972" d="M80 891v125q55 4 109.5 16t96.5 43t67.5 86.5t25.5 143.5v45l252 14v-322h268l-10 -174q-57 12 -120.5 17.5t-137.5 5.5v-653q0 -47 17.5 -70t60.5 -23t59 25t16 68v98h121v-64q0 -66 -15.5 -118t-51 -89.5t-94 -58t-142.5 -20.5q-190 0 -268 80.5t-78 220.5v604h-176z " />
<glyph unicode="u" horiz-adv-x="1605" d="M80 879v163h538v-587q0 -129 32 -188.5t102 -59.5q86 0 145 67.5t94 184.5v325q0 47 -36.5 71t-116.5 24v163h522v-786q0 -92 166 -92v-164h-535v209q-61 -104 -161.5 -166.5t-254.5 -62.5q-166 0 -242.5 72.5t-76.5 232.5v501q0 92 -176 93z" />
<glyph unicode="v" horiz-adv-x="1458" d="M80 879v163h651v-163h-92q-55 0 -55 -43q0 -16 6 -29l233 -596l236 580q8 14 8 34q0 53 -80 54h-69v163h460v-163q-59 0 -100 -17.5t-55 -52.5l-322 -809h-354l-326 807q-29 72 -141 72z" />
<glyph unicode="w" horiz-adv-x="2177" d="M80 879v163h633v-163h-90q-55 0 -56 -50q0 -10 5.5 -24t11.5 -35l176 -559l254 580q8 14 8 40q0 23 -18.5 35.5t-49.5 12.5h-75v163h608v-163h-94q-49 0 -50 -39q0 -10 11 -37l237 -592l203 580q6 18 6 34q0 27 -21.5 40.5t-56.5 13.5h-75v163h450v-163q-119 0 -143 -70 l-281 -809h-348l-244 596l-256 -596h-348l-264 807q-25 72 -133 72z" />
<glyph unicode="x" horiz-adv-x="1503" d="M80 0v164q55 0 117.5 23.5t119.5 76.5l269 258l-242 269q-43 47 -94 67.5t-137 20.5v163h690v-163h-41q-23 0 -32 -10.5t-9 -20.5q0 -16 37 -60l98 -116l111 116q10 12 20 26.5t10 31.5q0 12 -11 22.5t-38 10.5h-37v163h471v-163q-47 -2 -107.5 -13.5t-107.5 -56.5 l-243 -231l280 -306q43 -47 94.5 -77.5t126.5 -30.5v-164h-712v164h75q45 0 46 29q0 23 -15 36l-160 197l-167 -174q-25 -29 -25 -51q0 -37 72 -37h61v-164h-520z" />
<glyph unicode="y" horiz-adv-x="1404" d="M61 -193q0 27 10.5 57t32 54.5t53 40.5t72.5 16q72 0 113 -34.5t41 -87.5t-35 -87t-92 -38q18 -31 48 -48.5t102 -17.5q66 0 110.5 43t95.5 137l-407 965q-16 35 -55 53.5t-89 18.5v163h627v-163h-65q-29 0 -43.5 -12.5t-14.5 -30.5q0 -10 6 -25l220 -575l225 555 q6 18 6 34q0 53 -80 54h-41v163h432v-163q-127 0 -153 -70l-355 -872q-39 -94 -75.5 -170t-85 -130.5t-113 -83t-158.5 -28.5q-72 0 -133 18.5t-105 55t-69 89t-25 119.5z" />
<glyph unicode="z" horiz-adv-x="1255" d="M80 0v133l627 739h-199q-66 0 -104.5 -8t-62.5 -34.5t-37 -77t-25 -134.5l-158 7v417h1038v-133l-610 -741h203q70 0 114.5 9t73.5 37t45 79t29 137l164 -12l-29 -418h-1069z" />
<glyph unicode="{" horiz-adv-x="878" d="M145 625v147q190 14 191 160v403q0 98 33.5 166t95 111t147.5 63.5t191 24.5v-137q-47 -2 -88 -19.5t-72 -53.5t-49.5 -89t-18.5 -129v-346q0 -158 -151 -226q152 -78 151 -229v-467q0 -145 66 -217t162 -78v-127q-102 2 -188.5 21.5t-147.5 61.5t-96 109.5t-35 170.5 v516q0 141 -191 164z" />
<glyph unicode="|" horiz-adv-x="598" d="M195 -238v1885h215v-1885h-215z" />
<glyph unicode="}" horiz-adv-x="849" d="M76 -291q96 6 161.5 78t65.5 217v467q0 152 152 229q-152 68 -152 226v346q0 76 -18.5 129t-49 89t-72.5 53.5t-87 19.5v137q104 -4 190 -24.5t147.5 -63.5t95.5 -110.5t34 -166.5v-403q0 -145 190 -160v-147q-190 -23 -190 -164v-516q0 -102 -35 -170t-96.5 -110 t-147.5 -61.5t-188 -21.5v127z" />
<glyph unicode="~" horiz-adv-x="1271" d="M76 668q16 57 54 105t86 81t103.5 51.5t108.5 18.5q86 0 146.5 -23.5t108.5 -51.5t91 -51.5t96 -23.5q51 0 102.5 36t104.5 122l119 -115q-35 -113 -132 -183.5t-228 -70.5q-68 0 -127.5 23.5t-113.5 52.5t-103.5 52.5t-96.5 23.5q-53 0 -106 -42t-99 -108z" />
<glyph unicode="&#xa1;" horiz-adv-x="831" d="M197 -166q0 63 14 124.5t34.5 154t42 233.5t36.5 365h172q10 -223 30.5 -364.5t40 -234t34.5 -152.5t15 -124q0 -104 -54 -146t-159 -42q-98 0 -152 44t-54 142zM223 1016q0 80 54.5 134t130.5 54q80 0 134 -54t54 -134q0 -76 -54.5 -130.5t-133.5 -54.5 q-76 0 -130.5 54.5t-54.5 130.5z" />
<glyph unicode="&#xa2;" horiz-adv-x="1284" d="M55 748q0 113 33 209t101.5 167.5t173 113.5t247.5 48v236h109v-238q88 -4 171 -25.5t147.5 -59.5t102.5 -92t38 -124q0 -68 -41 -115t-127 -47q-80 0 -121 39t-41 101q0 41 29.5 77.5t89.5 44.5q-35 29 -94.5 47.5t-153.5 22.5v-756q109 2 191.5 53.5t99.5 161.5 l176 -14q-12 -63 -45 -126.5t-89.5 -116t-139.5 -87.5t-193 -41v-227h-109v227q-123 6 -225 39t-175 96.5t-114 158.5t-41 227zM406 786q0 -166 56 -255t148 -117v719q-92 -29 -148 -117t-56 -230z" />
<glyph unicode="&#xa3;" horiz-adv-x="1671" d="M27 33q29 76 79 133t125 92q72 76 113 152.5t68 162.5h-191v127h221q37 164 77 293t104.5 218t163 135.5t251.5 46.5q133 0 224.5 -32t147.5 -83t81 -112.5t25 -121.5q0 -72 -42 -125t-120 -53q-76 0 -119 46t-43 106q0 53 36 98t93 49q-33 41 -88 64.5t-125 23.5 q-117 0 -168 -46t-74.5 -122.5t-40 -177t-63.5 -207.5h405v-127h-458q-29 -66 -65 -121t-75 -90q100 -2 178 -35.5t149 -72.5t141.5 -70.5t156.5 -31.5q51 0 116.5 24.5t112.5 61.5l50 -99q-154 -172 -445 -172q-88 0 -162.5 31t-144.5 68.5t-139.5 68.5t-147.5 31 q-49 0 -95 -16.5t-84 -42t-66.5 -60.5t-43.5 -72q-31 14 -60.5 28.5t-57.5 29.5z" />
<glyph unicode="&#xa5;" horiz-adv-x="1681" d="M139 1198v166h742v-166h-113q-55 0 -55 -37q0 -16 6 -24l235 -328l230 319q6 8 6 25q0 23 -22.5 34t-61.5 11h-53v166h483v-168q-92 0 -136 -23.5t-59 -50.5l-297 -395h342v-113h-387v-155h387v-113h-387v-96q0 -86 185 -86v-164h-707v164q184 0 185 86v96h-371v113h371 v155h-371v113h305l-293 393q-31 41 -62.5 59.5t-101.5 18.5z" />
<glyph unicode="&#xa6;" horiz-adv-x="563" d="M172 -238v779h215v-779h-215zM172 879v763h215v-763h-215z" />
<glyph unicode="&#xa7;" horiz-adv-x="1243" d="M119 637q0 104 55 188t141 138q-94 43 -139 110.5t-45 171.5q0 141 96.5 224t274.5 83q74 0 131 -13t100 -29.5t74 -30t53 -13.5q16 0 31.5 20.5t26.5 45.5h151v-352l-164 -13q-27 119 -116 170.5t-211 51.5q-76 0 -116 -26t-40 -67q0 -53 52 -83.5t131 -57.5t171 -53.5 t171 -71.5t131 -113.5t52 -175.5q0 -98 -51 -181t-143 -142q98 -43 140 -109.5t42 -167.5q0 -141 -96 -225t-277 -84q-82 0 -141 13.5t-103 29.5t-73 29.5t-49 13.5t-35.5 -21.5t-28.5 -46.5h-149v357l164 12q12 -59 45 -102t78 -71t100 -41t115 -13q78 0 119.5 27.5 t41.5 68.5q0 51 -52 80t-132 51.5t-171 48t-171 69.5t-132 114.5t-52 185.5zM385 707q0 -49 25.5 -83t72.5 -59.5t115 -46t152 -45.5q47 37 81.5 86t34.5 111q0 51 -24.5 80.5t-70.5 51t-114.5 43t-156.5 58.5q-49 -35 -82 -83t-33 -113z" />
<glyph unicode="&#xa8;" horiz-adv-x="872" d="M59 1327q0 59 42 101t102 42q59 0 102 -42t43 -101t-43 -101t-102 -42t-101.5 42t-42.5 101zM530 1327q0 59 42 101t102 42q59 0 102 -42t43 -101t-43 -101t-102 -42t-101.5 42t-42.5 101z" />
<glyph unicode="&#xa9;" horiz-adv-x="1890" d="M123 754q0 170 65.5 316.5t179 254t266 168.5t324.5 61t323 -60t262.5 -166.5t176 -253t64.5 -320.5q0 -162 -60.5 -304.5t-170 -250t-261 -170t-334.5 -62.5q-190 0 -343.5 62.5t-263 170t-169 250t-59.5 304.5zM274 754q0 -152 58.5 -272t155 -203.5t220 -128 t253.5 -44.5q168 0 294.5 58.5t210.5 152t127 208t43 229.5q0 154 -57 274.5t-151.5 204.5t-216 129t-250.5 45q-152 0 -279 -50t-217 -138.5t-140.5 -208t-50.5 -256.5zM592 766q0 82 23.5 150.5t71.5 118.5t120 79t168 29q141 0 229 -56.5t88 -160.5q0 -45 -26.5 -77 t-79.5 -32q-51 0 -77 26.5t-26 61.5q0 29 18.5 56.5t53.5 31.5q-47 51 -123 51q-98 0 -151.5 -67.5t-53.5 -192.5q0 -141 50.5 -204.5t142.5 -63.5q61 0 111.5 35t60.5 113l111 -13q-8 -49 -30 -96t-58.5 -84t-93 -60.5t-132.5 -23.5q-178 0 -287.5 91t-109.5 288z" />
<glyph unicode="&#xaa;" horiz-adv-x="937" d="M78 862q0 82 44 123t112.5 62.5t151.5 35t161 37.5v37q0 59 -33 104.5t-104 45.5q-106 0 -160 -39q29 -6 47 -22.5t18 -47.5q0 -41 -26.5 -66.5t-71.5 -25.5q-47 0 -72.5 27.5t-25.5 74.5q0 35 20.5 69t60.5 59.5t97 42t131 16.5q57 0 113.5 -11.5t99.5 -39t69.5 -74.5 t26.5 -119v-320q0 -29 8.5 -39t24.5 -10q31 0 31 49v78h73v-57q0 -96 -46 -134t-109 -38q-72 0 -104.5 38t-43.5 89q-31 -57 -97 -97t-165 -40q-123 0 -177 52t-54 140zM264 881q0 -41 27.5 -65.5t81.5 -24.5q61 0 107 30.5t67 71.5v166q-70 -25 -123 -42.5t-88 -34.5 t-53.5 -40.5t-18.5 -60.5z" />
<glyph unicode="&#xab;" horiz-adv-x="1234" d="M55 590l441 430l118 -133l-233 -297l233 -303l-118 -131zM616 590l443 430l119 -133l-234 -297l234 -303l-119 -131z" />
<glyph unicode="&#xad;" horiz-adv-x="688" d="M55 494v186h576v-186h-576z" />
<glyph unicode="&#xae;" horiz-adv-x="1439" d="M76 942q0 129 50 241.5t138 194.5t206 129t253 47t252 -46t204 -127t136 -193.5t49 -245.5q0 -127 -46 -236.5t-130 -191.5t-203 -129t-262 -47q-147 0 -267 47t-204 129t-130 191.5t-46 236.5zM231 942q0 -115 42 -204t111 -150.5t157 -93t182 -31.5q123 0 214 43 t151.5 111.5t90 153.5t29.5 171q0 113 -41 201t-108.5 149.5t-155.5 94t-180 32.5q-109 0 -200 -36.5t-155.5 -101t-100.5 -152t-36 -187.5zM422 647v74q76 0 76 43v383q0 43 -76 43v74h342q92 0 152.5 -32t60.5 -126q0 -68 -34 -101.5t-87 -43.5q47 -10 71.5 -41t24.5 -93 v-63q0 -43 33 -43q31 0 31 43v37h59v-33q0 -57 -38 -92t-101 -35q-76 0 -107.5 39t-31.5 100v56q0 55 -17.5 73.5t-60.5 18.5h-62v-164q0 -43 95 -43v-74h-330zM657 1004h70q47 0 67.5 19t20.5 69q0 37 -20.5 56t-67.5 19h-70v-163z" />
<glyph unicode="&#xb0;" horiz-adv-x="948" d="M76 1169q0 76 30.5 142.5t84 117t125 79t155.5 28.5q82 0 155.5 -28.5t128 -79t86 -117t31.5 -142.5t-30.5 -143.5t-83.5 -117.5t-127 -79.5t-160 -29.5t-158.5 29.5t-125 79.5t-82 118t-29.5 143zM283 1169q0 -80 51 -133t137 -53t138.5 53t52.5 133q0 37 -13.5 70 t-38 58.5t-60.5 41t-79 15.5q-45 0 -80 -15.5t-59.5 -41t-36.5 -58.5t-12 -70z" />
<glyph unicode="&#xb2;" horiz-adv-x="880" d="M145 801q18 92 55.5 152.5t80.5 100.5t90 66.5t84 55t61.5 65.5t24.5 96q0 55 -33 91t-98 36q-53 0 -81 -15t-42 -38q23 -2 38 -21.5t15 -50.5q0 -37 -21.5 -62.5t-64.5 -25.5q-41 0 -62.5 26t-21.5 66q0 33 14.5 69t47 66.5t84 51t122.5 20.5q57 0 110.5 -11t94.5 -38.5 t65.5 -72t24.5 -109.5q0 -70 -28.5 -116t-72.5 -75.5t-97.5 -49t-103.5 -39t-90 -42t-56 -59.5q29 23 60.5 31t66.5 8q37 0 65.5 -7t51 -16.5t44 -16.5t45.5 -7q27 0 46.5 13t27.5 61h60q4 -10 4 -19.5v-19.5q0 -35 -5.5 -67t-19.5 -56.5t-41.5 -39t-71.5 -14.5 q-55 0 -89.5 11.5t-64.5 25t-61.5 24.5t-80.5 11q-39 0 -64 -15.5t-43 -43.5h-70z" />
<glyph unicode="&#xb3;" horiz-adv-x="858" d="M127 977q0 43 22.5 68.5t63.5 25.5t64.5 -24.5t23.5 -65.5q0 -23 -14.5 -41t-36.5 -22q16 -23 56 -36.5t87 -13.5q145 0 146 133q0 86 -46.5 122t-146.5 44l10 68q66 4 111 32.5t45 92.5q0 104 -127 104q-80 0 -125 -47q63 -10 64 -71q0 -37 -22.5 -63t-63.5 -26 t-63.5 26t-22.5 67q0 33 14 67.5t47 64t85 49t126 19.5q55 0 105.5 -10t88 -32.5t59 -57.5t21.5 -84q0 -63 -36.5 -103t-116.5 -59q94 -16 138 -64t44 -120q0 -61 -25.5 -106.5t-69.5 -75t-103.5 -43t-127.5 -13.5t-119 18.5t-85.5 47.5t-52 62.5t-17.5 66.5z" />
<glyph unicode="&#xb4;" horiz-adv-x="778" d="M76 1276q68 20 131 53t121.5 64.5t116 54t112.5 22.5q66 0 99.5 -30.5t33.5 -77.5q0 -61 -52 -86t-135 -36t-186.5 -18.5t-203.5 -31.5z" />
<glyph unicode="&#xb6;" horiz-adv-x="1255" d="M74 1178q0 63 22.5 125.5t67.5 110.5t112.5 78t157.5 30h463v-1692q0 -37 19.5 -61.5t60.5 -24.5q47 0 74.5 10t44.5 29q-33 6 -54.5 24.5t-21.5 53.5q0 29 21.5 54.5t68.5 25.5t65.5 -31t18.5 -62q0 -86 -57.5 -131t-167.5 -45q-92 0 -147.5 50.5t-55.5 136.5v958h-170 v-936h-131v936q-98 0 -172 32t-122 82t-72.5 114.5t-24.5 132.5zM596 948h170v449h-170v-449z" />
<glyph unicode="&#xb7;" horiz-adv-x="600" d="M117 764q0 76 54 130t134 54q39 0 73 -14t58.5 -40t38.5 -59.5t14 -70.5q0 -78 -53 -133.5t-131 -55.5q-41 0 -74.5 15.5t-59.5 41t-40 59.5t-14 73z" />
<glyph unicode="&#xb8;" horiz-adv-x="493" d="M68 -338l41 47q51 -57 110 -57q37 0 58.5 23.5t21.5 70.5q0 53 -41 80t-106 35v174h86v-117q80 -4 133 -50t53 -122q0 -88 -48 -139t-134 -51q-55 0 -105.5 29.5t-68.5 76.5z" />
<glyph unicode="&#xb9;" horiz-adv-x="565" d="M53 1425q154 4 213 131l131 -16q-4 -29 -6 -49.5t-2 -42.5v-524q0 -43 115 -43v-80h-434v80q133 0 133 43v424h-146z" />
<glyph unicode="&#xba;" horiz-adv-x="905" d="M100 1018q0 184 88.5 280.5t272.5 96.5q70 0 133 -17.5t110.5 -59.5t75 -110.5t27.5 -173.5q0 -174 -93 -270t-268 -96q-70 0 -132 17t-110 57t-76 108t-28 168zM297 1055q0 -84 10 -139.5t28.5 -87t47.5 -44t66 -12.5q88 0 122.5 64.5t34.5 189.5q0 80 -10 131t-30.5 81 t-48 41t-60.5 11q-160 0 -160 -235z" />
<glyph unicode="&#xbb;" horiz-adv-x="1234" d="M55 289l230 299l-230 299l117 133l440 -432l-440 -434zM614 287l234 301l-234 299l119 133l443 -432l-443 -434z" />
<glyph unicode="&#xbc;" horiz-adv-x="1916" d="M129 1425q154 4 213 131l131 -16q-4 -29 -6 -49.5t-2 -42.5v-524q0 -43 115 -43v-80h-435v80q133 0 134 43v424h-146zM313 0l1131 1526h164l-1139 -1526h-156zM1118 215v78l381 457h174v-431h99l-15 -104h-84v-92q0 -43 99 -43v-80h-418v80q133 0 133 43v92h-369z M1257 319h230v279z" />
<glyph unicode="&#xbd;" horiz-adv-x="1916" d="M129 1425q154 4 213 131l131 -16q-4 -29 -6 -49.5t-2 -42.5v-524q0 -43 115 -43v-80h-435v80q133 0 134 43v424h-146zM313 0l1131 1526h164l-1139 -1526h-156zM1155 2q18 92 55 151.5t80 99.5t90 67.5t84 56.5t61.5 64.5t24.5 95.5q0 57 -32.5 93t-98.5 36 q-53 0 -80.5 -15.5t-42.5 -38.5q23 -4 39.5 -23.5t16.5 -49.5q0 -37 -22.5 -62.5t-63.5 -25.5t-63.5 25.5t-22.5 66.5q0 33 15 69.5t47 67.5t83 51.5t123 20.5q57 0 110.5 -12.5t94.5 -40t65.5 -72.5t24.5 -109q0 -70 -28.5 -115t-73 -75.5t-97.5 -50t-102 -38t-89 -41 t-57 -59.5q51 39 127 39q37 0 65 -8t50.5 -17.5t45 -16.5t46.5 -7q25 0 45.5 14.5t26.5 61.5h59q4 -10 4 -20.5v-20.5q0 -35 -5 -66.5t-19.5 -56.5t-41 -39t-71.5 -14q-55 0 -90 11t-64.5 24.5t-61.5 24.5t-79 11q-74 0 -106 -57h-72z" />
<glyph unicode="&#xbe;" horiz-adv-x="1916" d="M121 977q0 43 22.5 68.5t63.5 25.5t64.5 -24.5t23.5 -65.5q0 -23 -14.5 -41t-36.5 -22q16 -23 56 -36.5t87 -13.5q145 0 145 133q0 86 -46 122t-146 44l10 68q66 4 111 32.5t45 92.5q0 104 -127 104q-80 0 -125 -47q63 -10 63 -71q0 -37 -22.5 -63t-63.5 -26t-63.5 26 t-22.5 67q0 33 14.5 67.5t47.5 64t85 49t126 19.5q55 0 105 -10t88 -32.5t59.5 -57.5t21.5 -84q0 -63 -37 -103t-116 -59q94 -16 138 -64t44 -120q0 -61 -25.5 -106.5t-69.5 -75t-103.5 -43t-127.5 -13.5t-119 18.5t-85.5 47.5t-52 62.5t-17.5 66.5zM313 0l1131 1526h164 l-1139 -1526h-156zM1118 215v78l381 457h174v-431h99l-15 -104h-84v-92q0 -43 99 -43v-80h-418v80q133 0 133 43v92h-369zM1257 319h230v279z" />
<glyph unicode="&#xbf;" horiz-adv-x="1206" d="M74 -12q0 96 35.5 161.5t89 114.5t116 88t117.5 82t93 95.5t42 129.5h129q27 -53 27 -120q0 -80 -39 -143.5t-85 -125t-85 -127t-39 -151.5q0 -98 62.5 -147.5t150.5 -49.5q55 0 93 7.5t63.5 19.5t42 26.5t31.5 30.5q-43 4 -74 42t-31 99q0 68 36 118t130 50 q66 0 108.5 -51t42.5 -127q0 -61 -27.5 -128.5t-90 -123t-165 -92.5t-251.5 -37q-102 0 -197.5 16.5t-167 57.5t-114.5 110.5t-43 174.5zM438 1014q0 78 53.5 132t131.5 54q39 0 73.5 -14.5t60 -40t40 -59t14.5 -72.5q0 -37 -15.5 -71t-41 -59.5t-59 -41t-72.5 -15.5 t-73 15.5t-58.5 41t-39 59.5t-14.5 71z" />
<glyph unicode="&#xc0;" d="M76 168q88 0 128 15.5t50 43.5l459 1295h413l435 -1293q20 -61 165 -61v-168h-821v168h158q59 0 59 37q0 8 -6 24l-57 164h-553l-51 -147q-6 -16 -6 -27q0 -51 92 -51h116v-168h-579zM545 1856q0 47 33.5 77.5t101.5 30.5q55 0 109.5 -22.5t113 -53t121 -63.5t133.5 -55 l-37 -86q-109 27 -211 34t-184 18t-131 36t-49 84zM565 573h441l-213 668z" />
<glyph unicode="&#xc1;" d="M76 168q88 0 128 15.5t50 43.5l459 1295h413l435 -1293q20 -61 165 -61v-168h-821v168h158q59 0 59 37q0 8 -6 24l-57 164h-553l-51 -147q-6 -16 -6 -27q0 -51 92 -51h116v-168h-579zM565 573h441l-213 668zM621 1770q68 20 131 53t121.5 64.5t116 54t112.5 22.5 q66 0 99.5 -30.5t33.5 -77.5q0 -61 -52 -86t-135 -36t-186.5 -18.5t-203.5 -31.5z" />
<glyph unicode="&#xc2;" d="M76 168q88 0 128 15.5t50 43.5l459 1295h413l435 -1293q20 -61 165 -61v-168h-821v168h158q59 0 59 37q0 8 -6 24l-57 164h-553l-51 -147q-6 -16 -6 -27q0 -51 92 -51h116v-168h-579zM527 1727l375 237l370 -239l-96 -60l-274 101l-285 -101zM565 573h441l-213 668z" />
<glyph unicode="&#xc3;" d="M76 168q88 0 128 15.5t50 43.5l459 1295h413l435 -1293q20 -61 165 -61v-168h-821v168h158q59 0 59 37q0 8 -6 24l-57 164h-553l-51 -147q-6 -16 -6 -27q0 -51 92 -51h116v-168h-579zM426 1741q49 104 131 156.5t174 52.5q74 0 122 -13t86 -30.5t74.5 -31t86.5 -13.5 q45 0 79.5 16.5t63.5 63.5l129 -43q-35 -104 -111.5 -157.5t-187.5 -53.5q-57 0 -104.5 13.5t-90.5 30.5t-84 30.5t-86 13.5q-111 0 -159 -84zM565 573h441l-213 668z" />
<glyph unicode="&#xc4;" d="M76 168q88 0 128 15.5t50 43.5l459 1295h413l435 -1293q20 -61 165 -61v-168h-821v168h158q59 0 59 37q0 8 -6 24l-57 164h-553l-51 -147q-6 -16 -6 -27q0 -51 92 -51h116v-168h-579zM520 1821q0 59 42 101t102 42q59 0 102 -42t43 -101t-43 -101t-102 -42t-101.5 42 t-42.5 101zM565 573h441l-213 668zM991 1821q0 59 42 101t102 42q59 0 102 -42t43 -101t-43 -101t-102 -42t-101.5 42t-42.5 101z" />
<glyph unicode="&#xc5;" d="M76 168q88 0 128 15.5t50 43.5l459 1295h413l435 -1293q20 -61 165 -61v-168h-821v168h158q59 0 59 37q0 8 -6 24l-57 164h-553l-51 -147q-6 -16 -6 -27q0 -51 92 -51h116v-168h-579zM565 573h441l-213 668zM690 1751q0 43 16.5 82t44 69t65.5 46t81 16t82 -16t68.5 -46 t46 -69t16.5 -82t-16.5 -82.5t-46 -68.5t-68.5 -46.5t-82 -17.5t-81 17.5t-65.5 46.5t-44 68.5t-16.5 82.5zM782 1751q0 -59 30.5 -90.5t84.5 -31.5q47 0 80.5 31.5t33.5 90.5q0 51 -33.5 85t-80.5 34q-53 0 -84 -33.5t-31 -85.5z" />
<glyph unicode="&#xc6;" horiz-adv-x="2551" d="M45 0v168q80 0 122 15.5t69 54.5l686 1007q23 35 22 58q0 51 -86 51h-174v168h1722v-463l-204 -8q-12 262 -230 262h-370v-430h116q29 0 52.5 9t41 34.5t29.5 70.5t19 117h178l-31 -639h-174q-23 238 -104 238h-127v-506h296q326 0 349 391l209 -14l-50 -584h-1402v166 q182 0 182 94v131h-625l-98 -145q-16 -23 -17 -39q0 -41 76 -41h121v-166h-598zM680 573h506v756z" />
<glyph unicode="&#xc7;" horiz-adv-x="1609" d="M76 745q0 207 60.5 359.5t162.5 252t236.5 148.5t283.5 49q156 0 269.5 -37.5t179.5 -97.5l47 103h201v-500l-207 -16q-31 160 -124 248.5t-253 88.5q-231 0 -328.5 -152.5t-97.5 -430.5q0 -145 29.5 -249.5t82 -171.5t123 -98.5t150.5 -31.5q193 0 298 78t159 241 l186 -47q-25 -98 -72 -188t-122.5 -161t-185.5 -115t-259 -50v-49q80 -4 133 -50t53 -122q0 -88 -48 -139t-134 -51q-55 0 -105.5 29.5t-68.5 76.5l41 47q51 -57 111 -57q78 0 77 94q0 53 -40 80t-105 35v108q-154 6 -288 56.5t-232.5 146.5t-155.5 238.5t-57 334.5z" />
<glyph unicode="&#xc8;" horiz-adv-x="1636" d="M76 0v168q182 0 182 94v998q0 94 -182 94v168h1417v-461l-205 -10q-12 262 -229 262h-385v-428h155q96 0 115 229h180l-30 -639h-176q-23 238 -103 238h-141v-504h311q324 0 348 389l209 -14l-49 -584h-1417zM496 1856q0 47 33.5 77.5t101.5 30.5q55 0 109.5 -22.5 t113 -53t121 -63.5t133.5 -55l-37 -86q-109 27 -211 34t-184 18t-131 36t-49 84z" />
<glyph unicode="&#xc9;" horiz-adv-x="1636" d="M76 0v168q182 0 182 94v998q0 94 -182 94v168h1417v-461l-205 -10q-12 262 -229 262h-385v-428h155q96 0 115 229h180l-30 -639h-176q-23 238 -103 238h-141v-504h311q324 0 348 389l209 -14l-49 -584h-1417zM588 1770q68 20 131 53t121.5 64.5t116 54t112.5 22.5 q66 0 99.5 -30.5t33.5 -77.5q0 -61 -52 -86t-135 -36t-186.5 -18.5t-203.5 -31.5z" />
<glyph unicode="&#xca;" horiz-adv-x="1636" d="M76 0v168q182 0 182 94v998q0 94 -182 94v168h1417v-461l-205 -10q-12 262 -229 262h-385v-428h155q96 0 115 229h180l-30 -639h-176q-23 238 -103 238h-141v-504h311q324 0 348 389l209 -14l-49 -584h-1417zM457 1727l375 237l370 -239l-96 -60l-274 101l-285 -101z" />
<glyph unicode="&#xcb;" horiz-adv-x="1636" d="M76 0v168q182 0 182 94v998q0 94 -182 94v168h1417v-461l-205 -10q-12 262 -229 262h-385v-428h155q96 0 115 229h180l-30 -639h-176q-23 238 -103 238h-141v-504h311q324 0 348 389l209 -14l-49 -584h-1417zM454 1821q0 59 42 101t102 42q59 0 102 -42t43 -101t-43 -101 t-102 -42t-101.5 42t-42.5 101zM925 1821q0 59 42 101t102 42q59 0 102 -42t43 -101t-43 -101t-102 -42t-101.5 42t-42.5 101z" />
<glyph unicode="&#xcc;" horiz-adv-x="976" d="M96 0v168q184 0 185 94v998q0 94 -185 94v168h783v-168q-182 0 -183 -94v-998q0 -94 183 -94v-168h-783zM150 1856q0 47 33.5 77.5t101.5 30.5q55 0 109.5 -22.5t113 -53t121 -63.5t133.5 -55l-37 -86q-109 27 -211 34t-184 18t-131 36t-49 84z" />
<glyph unicode="&#xcd;" horiz-adv-x="976" d="M96 0v168q184 0 185 94v998q0 94 -185 94v168h783v-168q-182 0 -183 -94v-998q0 -94 183 -94v-168h-783zM207 1770q68 20 131 53t121.5 64.5t116 54t112.5 22.5q66 0 99.5 -30.5t33.5 -77.5q0 -61 -52 -86t-135 -36t-186.5 -18.5t-203.5 -31.5z" />
<glyph unicode="&#xce;" horiz-adv-x="976" d="M96 0v168q184 0 185 94v998q0 94 -185 94v168h783v-168q-182 0 -183 -94v-998q0 -94 183 -94v-168h-783zM115 1727l375 237l370 -239l-96 -60l-274 101l-285 -101z" />
<glyph unicode="&#xcf;" horiz-adv-x="976" d="M96 0v168q184 0 185 94v998q0 94 -185 94v168h783v-168q-182 0 -183 -94v-998q0 -94 183 -94v-168h-783zM108 1821q0 59 42 101t102 42q59 0 102 -42t43 -101t-43 -101t-102 -42t-101.5 42t-42.5 101zM579 1821q0 59 42 101t102 42q59 0 102 -42t43 -101t-43 -101 t-102 -42t-101.5 42t-42.5 101z" />
<glyph unicode="&#xd0;" horiz-adv-x="1736" d="M76 0v166q182 0 182 94v459h-182v158h182v383q0 94 -182 94v168h819q195 0 337 -27t234.5 -104.5t137.5 -219t45 -370.5q0 -238 -45 -393.5t-137.5 -245.5t-234.5 -126t-337 -36h-819zM674 207h254q92 0 150.5 33.5t90 105.5t43 182.5t11.5 266.5q0 152 -12.5 252 t-44 159.5t-89 83t-149.5 23.5h-254v-436h182v-158h-182v-512z" />
<glyph unicode="&#xd1;" horiz-adv-x="1849" d="M76 0v168q182 0 182 94v998q0 94 -182 94v168h665l656 -1176v914q0 94 -183 94v168h582v-168q-182 0 -182 -94v-1260h-496l-641 1147v-885q0 -94 182 -94v-168h-583zM451 1741q49 104 131 156.5t174 52.5q74 0 122 -13t86 -30.5t74.5 -31t86.5 -13.5q45 0 79.5 16.5 t63.5 63.5l129 -43q-35 -104 -111.5 -157.5t-187.5 -53.5q-57 0 -104.5 13.5t-90.5 30.5t-84 30.5t-86 13.5q-111 0 -159 -84z" />
<glyph unicode="&#xd2;" horiz-adv-x="1703" d="M76 729q0 193 44 346.5t139 260t244.5 162.5t362.5 56q166 0 306.5 -39.5t242 -132t157.5 -245t56 -375.5q0 -184 -48 -331.5t-146.5 -250t-247 -158t-350.5 -55.5q-166 0 -305.5 39t-241 128t-157.5 235.5t-56 359.5zM489 823q0 -197 25 -320.5t70 -193t109.5 -95.5 t142.5 -26q102 0 174.5 30t119 96.5t68 173t21.5 260.5q0 178 -25 291.5t-70 180t-108 92t-139 25.5q-197 0 -292.5 -121.5t-95.5 -392.5zM506 1856q0 47 33.5 77.5t101.5 30.5q55 0 109.5 -22.5t113 -53t121 -63.5t133.5 -55l-37 -86q-109 27 -211 34t-184 18t-131 36 t-49 84z" />
<glyph unicode="&#xd3;" horiz-adv-x="1703" d="M76 729q0 193 44 346.5t139 260t244.5 162.5t362.5 56q166 0 306.5 -39.5t242 -132t157.5 -245t56 -375.5q0 -184 -48 -331.5t-146.5 -250t-247 -158t-350.5 -55.5q-166 0 -305.5 39t-241 128t-157.5 235.5t-56 359.5zM489 823q0 -197 25 -320.5t70 -193t109.5 -95.5 t142.5 -26q102 0 174.5 30t119 96.5t68 173t21.5 260.5q0 178 -25 291.5t-70 180t-108 92t-139 25.5q-197 0 -292.5 -121.5t-95.5 -392.5zM576 1770q68 20 131 53t121.5 64.5t116 54t112.5 22.5q66 0 99.5 -30.5t33.5 -77.5q0 -61 -52 -86t-135 -36t-186.5 -18.5 t-203.5 -31.5z" />
<glyph unicode="&#xd4;" horiz-adv-x="1703" d="M76 729q0 193 44 346.5t139 260t244.5 162.5t362.5 56q166 0 306.5 -39.5t242 -132t157.5 -245t56 -375.5q0 -184 -48 -331.5t-146.5 -250t-247 -158t-350.5 -55.5q-166 0 -305.5 39t-241 128t-157.5 235.5t-56 359.5zM477 1727l375 237l370 -239l-96 -60l-274 101 l-285 -101zM489 823q0 -197 25 -320.5t70 -193t109.5 -95.5t142.5 -26q102 0 174.5 30t119 96.5t68 173t21.5 260.5q0 178 -25 291.5t-70 180t-108 92t-139 25.5q-197 0 -292.5 -121.5t-95.5 -392.5z" />
<glyph unicode="&#xd5;" horiz-adv-x="1703" d="M76 729q0 193 44 346.5t139 260t244.5 162.5t362.5 56q166 0 306.5 -39.5t242 -132t157.5 -245t56 -375.5q0 -184 -48 -331.5t-146.5 -250t-247 -158t-350.5 -55.5q-166 0 -305.5 39t-241 128t-157.5 235.5t-56 359.5zM377 1741q49 104 131 156.5t174 52.5q74 0 122 -13 t86 -30.5t74.5 -31t86.5 -13.5q45 0 79.5 16.5t63.5 63.5l129 -43q-35 -104 -111.5 -157.5t-187.5 -53.5q-57 0 -104.5 13.5t-90.5 30.5t-84 30.5t-86 13.5q-111 0 -159 -84zM489 823q0 -197 25 -320.5t70 -193t109.5 -95.5t142.5 -26q102 0 174.5 30t119 96.5t68 173 t21.5 260.5q0 178 -25 291.5t-70 180t-108 92t-139 25.5q-197 0 -292.5 -121.5t-95.5 -392.5z" />
<glyph unicode="&#xd6;" horiz-adv-x="1703" d="M76 729q0 193 44 346.5t139 260t244.5 162.5t362.5 56q166 0 306.5 -39.5t242 -132t157.5 -245t56 -375.5q0 -184 -48 -331.5t-146.5 -250t-247 -158t-350.5 -55.5q-166 0 -305.5 39t-241 128t-157.5 235.5t-56 359.5zM471 1821q0 59 42 101t102 42q59 0 102 -42t43 -101 t-43 -101t-102 -42t-101.5 42t-42.5 101zM489 823q0 -197 25 -320.5t70 -193t109.5 -95.5t142.5 -26q102 0 174.5 30t119 96.5t68 173t21.5 260.5q0 178 -25 291.5t-70 180t-108 92t-139 25.5q-197 0 -292.5 -121.5t-95.5 -392.5zM942 1821q0 59 42 101t102 42q59 0 102 -42 t43 -101t-43 -101t-102 -42t-101.5 42t-42.5 101z" />
<glyph unicode="&#xd7;" horiz-adv-x="1193" d="M176 438l291 289l-291 283l129 127l293 -287l291 287l127 -127l-293 -283l297 -289l-129 -125l-293 287l-295 -287z" />
<glyph unicode="&#xd8;" horiz-adv-x="1703" d="M76 729q0 193 44 346.5t139 260t244.5 162.5t362.5 56q78 0 152 -8t139 -28l72 127l184 -91l-65 -120q131 -86 205.5 -249t74.5 -423q0 -184 -48 -331.5t-146.5 -250t-247 -158t-350.5 -55.5q-76 0 -147 8.5t-136 26.5l-80 -145l-186 90l73 135q-133 86 -208.5 241.5 t-75.5 405.5zM489 823q0 -135 17.5 -228t52.5 -155l477 860q-35 20 -73.5 28.5t-85.5 8.5q-197 0 -292.5 -121.5t-95.5 -392.5zM676 221q35 -18 73.5 -25.5t86.5 -7.5q102 0 174.5 30t119 96.5t68 173t21.5 260.5q0 117 -17.5 197.5t-50.5 135.5z" />
<glyph unicode="&#xd9;" horiz-adv-x="1816" d="M76 1352v168h813v-168q-117 0 -166 -23.5t-49 -71.5v-636q0 -113 15.5 -194t52 -132t100 -75.5t159.5 -24.5t163 24.5t108 75.5t58.5 132t17.5 194v636q0 47 -50.5 71t-167.5 24v168h617v-168q-184 0 -184 -95v-636q0 -152 -31 -273t-103.5 -205t-193.5 -130t-301 -46 q-184 0 -313 46t-209 130t-117 205t-37 273v636q0 94 -182 95zM586 1856q0 47 33.5 77.5t101.5 30.5q55 0 109.5 -22.5t113 -53t121 -63.5t133.5 -55l-37 -86q-109 27 -211 34t-184 18t-131 36t-49 84z" />
<glyph unicode="&#xda;" horiz-adv-x="1816" d="M76 1352v168h813v-168q-117 0 -166 -23.5t-49 -71.5v-636q0 -113 15.5 -194t52 -132t100 -75.5t159.5 -24.5t163 24.5t108 75.5t58.5 132t17.5 194v636q0 47 -50.5 71t-167.5 24v168h617v-168q-184 0 -184 -95v-636q0 -152 -31 -273t-103.5 -205t-193.5 -130t-301 -46 q-184 0 -313 46t-209 130t-117 205t-37 273v636q0 94 -182 95zM684 1770q68 20 131 53t121.5 64.5t116 54t112.5 22.5q66 0 99.5 -30.5t33.5 -77.5q0 -61 -52 -86t-135 -36t-186.5 -18.5t-203.5 -31.5z" />
<glyph unicode="&#xdb;" horiz-adv-x="1816" d="M76 1352v168h813v-168q-117 0 -166 -23.5t-49 -71.5v-636q0 -113 15.5 -194t52 -132t100 -75.5t159.5 -24.5t163 24.5t108 75.5t58.5 132t17.5 194v636q0 47 -50.5 71t-167.5 24v168h617v-168q-184 0 -184 -95v-636q0 -152 -31 -273t-103.5 -205t-193.5 -130t-301 -46 q-184 0 -313 46t-209 130t-117 205t-37 273v636q0 94 -182 95zM588 1727l375 237l370 -239l-96 -60l-274 101l-285 -101z" />
<glyph unicode="&#xdc;" horiz-adv-x="1816" d="M76 1352v168h813v-168q-117 0 -166 -23.5t-49 -71.5v-636q0 -113 15.5 -194t52 -132t100 -75.5t159.5 -24.5t163 24.5t108 75.5t58.5 132t17.5 194v636q0 47 -50.5 71t-167.5 24v168h617v-168q-184 0 -184 -95v-636q0 -152 -31 -273t-103.5 -205t-193.5 -130t-301 -46 q-184 0 -313 46t-209 130t-117 205t-37 273v636q0 94 -182 95zM571 1821q0 59 42 101t102 42q59 0 102 -42t43 -101t-43 -101t-102 -42t-101.5 42t-42.5 101zM1042 1821q0 59 42 101t102 42q59 0 102 -42t43 -101t-43 -101t-102 -42t-101.5 42t-42.5 101z" />
<glyph unicode="&#xdd;" horiz-adv-x="1691" d="M57 1354v168h830v-168h-121q-61 0 -61 -41q0 -16 10 -33l248 -428l266 424q8 14 8 29q0 49 -74 49h-61v168h524v-170q-61 0 -105 -15.5t-61 -42.5l-424 -622v-412q0 -94 205 -94v-166h-825v166q205 0 205 94v412l-408 620q-23 35 -62.5 48.5t-93.5 13.5zM619 1770 q68 20 131 53t121.5 64.5t116 54t112.5 22.5q66 0 99.5 -30.5t33.5 -77.5q0 -61 -52 -86t-135 -36t-186.5 -18.5t-203.5 -31.5z" />
<glyph unicode="&#xde;" horiz-adv-x="1560" d="M76 0v166q182 0 182 94v1000q0 94 -182 94v168h825v-168q-131 0 -179 -30t-48 -89v-76h174q133 0 251 -10t205 -49t138 -113t51 -203q0 -152 -51 -236.5t-138 -125.5t-205 -51.5t-251 -10.5h-174v-100q0 -94 227 -94v-166h-825zM674 580h190q111 0 172.5 52t61.5 138 q0 88 -52.5 129t-181.5 41h-190v-360z" />
<glyph unicode="&#xdf;" horiz-adv-x="1552" d="M53 0v166q180 0 180 92v926q0 135 50.5 217t127 126t168 57t175.5 13q94 0 187 -13t169 -51t123 -104.5t47 -173.5q0 -256 -248 -323q96 -12 173 -46t130.5 -95.5t82 -151.5t28.5 -213q0 -227 -98.5 -344t-323.5 -117q-84 0 -139.5 20.5t-91 56.5t-53 81t-23.5 94l117 41 q10 -49 39.5 -80t72.5 -31q59 0 84 62.5t25 198.5q0 119 -15.5 199.5t-49.5 129.5t-88 70.5t-132 21.5v164q35 2 60.5 14.5t42 41t24.5 78t8 122.5q0 84 -26.5 131t-110.5 47q-68 0 -105.5 -40.5t-37.5 -145.5v-1241h-572z" />
<glyph unicode="&#xe0;" horiz-adv-x="1470" d="M80 254q0 82 28.5 135t79 87t120 53.5t151.5 37t174 36t186 48.5v64q0 43 -12 84t-39 72.5t-69 51t-99 19.5q-86 0 -143.5 -15.5t-102.5 -45.5q49 -4 85 -29t36 -80q0 -63 -42 -101t-124 -38q-164 0 -164 160q0 57 34 110t98.5 93t158.5 63.5t215 23.5q94 0 188.5 -17 t168 -59t120 -115t46.5 -183v-478q0 -86 59 -86q29 0 43 26t14 60v105h119v-66q0 -86 -25.5 -140t-66.5 -87t-92 -45t-103 -12q-127 0 -187.5 58t-80.5 149q-18 -45 -53 -86t-86 -73t-119 -50.5t-152 -18.5q-190 0 -277 79t-87 210zM344 1362q0 47 33.5 77.5t101.5 30.5 q55 0 109.5 -22.5t113 -53t121 -63.5t133.5 -55l-37 -86q-109 27 -211 34t-184 18t-131 36t-49 84zM418 293q0 -53 37 -88t116 -35q86 0 150.5 45t99.5 113v237q-96 -41 -171 -67.5t-127 -53t-78.5 -60.5t-26.5 -91z" />
<glyph unicode="&#xe1;" horiz-adv-x="1470" d="M80 254q0 82 28.5 135t79 87t120 53.5t151.5 37t174 36t186 48.5v64q0 43 -12 84t-39 72.5t-69 51t-99 19.5q-86 0 -143.5 -15.5t-102.5 -45.5q49 -4 85 -29t36 -80q0 -63 -42 -101t-124 -38q-164 0 -164 160q0 57 34 110t98.5 93t158.5 63.5t215 23.5q94 0 188.5 -17 t168 -59t120 -115t46.5 -183v-478q0 -86 59 -86q29 0 43 26t14 60v105h119v-66q0 -86 -25.5 -140t-66.5 -87t-92 -45t-103 -12q-127 0 -187.5 58t-80.5 149q-18 -45 -53 -86t-86 -73t-119 -50.5t-152 -18.5q-190 0 -277 79t-87 210zM418 293q0 -53 37 -88t116 -35 q86 0 150.5 45t99.5 113v237q-96 -41 -171 -67.5t-127 -53t-78.5 -60.5t-26.5 -91zM453 1276q68 20 131 53t121.5 64.5t116 54t112.5 22.5q66 0 99.5 -30.5t33.5 -77.5q0 -61 -52 -86t-135 -36t-186.5 -18.5t-203.5 -31.5z" />
<glyph unicode="&#xe2;" horiz-adv-x="1470" d="M80 254q0 82 28.5 135t79 87t120 53.5t151.5 37t174 36t186 48.5v64q0 43 -12 84t-39 72.5t-69 51t-99 19.5q-86 0 -143.5 -15.5t-102.5 -45.5q49 -4 85 -29t36 -80q0 -63 -42 -101t-124 -38q-164 0 -164 160q0 57 34 110t98.5 93t158.5 63.5t215 23.5q94 0 188.5 -17 t168 -59t120 -115t46.5 -183v-478q0 -86 59 -86q29 0 43 26t14 60v105h119v-66q0 -86 -25.5 -140t-66.5 -87t-92 -45t-103 -12q-127 0 -187.5 58t-80.5 149q-18 -45 -53 -86t-86 -73t-119 -50.5t-152 -18.5q-190 0 -277 79t-87 210zM320 1233l375 237l370 -239l-96 -60 l-274 101l-285 -101zM418 293q0 -53 37 -88t116 -35q86 0 150.5 45t99.5 113v237q-96 -41 -171 -67.5t-127 -53t-78.5 -60.5t-26.5 -91z" />
<glyph unicode="&#xe3;" horiz-adv-x="1470" d="M80 254q0 82 28.5 135t79 87t120 53.5t151.5 37t174 36t186 48.5v64q0 43 -12 84t-39 72.5t-69 51t-99 19.5q-86 0 -143.5 -15.5t-102.5 -45.5q49 -4 85 -29t36 -80q0 -63 -42 -101t-124 -38q-164 0 -164 160q0 57 34 110t98.5 93t158.5 63.5t215 23.5q94 0 188.5 -17 t168 -59t120 -115t46.5 -183v-478q0 -86 59 -86q29 0 43 26t14 60v105h119v-66q0 -86 -25.5 -140t-66.5 -87t-92 -45t-103 -12q-127 0 -187.5 58t-80.5 149q-18 -45 -53 -86t-86 -73t-119 -50.5t-152 -18.5q-190 0 -277 79t-87 210zM217 1247q49 104 131 156.5t174 52.5 q74 0 122 -13t86 -30.5t74.5 -31t86.5 -13.5q45 0 79.5 16.5t63.5 63.5l129 -43q-35 -104 -111.5 -157.5t-187.5 -53.5q-57 0 -104.5 13.5t-90.5 30.5t-84 30.5t-86 13.5q-111 0 -159 -84zM418 293q0 -53 37 -88t116 -35q86 0 150.5 45t99.5 113v237q-96 -41 -171 -67.5 t-127 -53t-78.5 -60.5t-26.5 -91z" />
<glyph unicode="&#xe4;" horiz-adv-x="1470" d="M80 254q0 82 28.5 135t79 87t120 53.5t151.5 37t174 36t186 48.5v64q0 43 -12 84t-39 72.5t-69 51t-99 19.5q-86 0 -143.5 -15.5t-102.5 -45.5q49 -4 85 -29t36 -80q0 -63 -42 -101t-124 -38q-164 0 -164 160q0 57 34 110t98.5 93t158.5 63.5t215 23.5q94 0 188.5 -17 t168 -59t120 -115t46.5 -183v-478q0 -86 59 -86q29 0 43 26t14 60v105h119v-66q0 -86 -25.5 -140t-66.5 -87t-92 -45t-103 -12q-127 0 -187.5 58t-80.5 149q-18 -45 -53 -86t-86 -73t-119 -50.5t-152 -18.5q-190 0 -277 79t-87 210zM307 1327q0 59 42 101t102 42 q59 0 102 -42t43 -101t-43 -101t-102 -42t-101.5 42t-42.5 101zM418 293q0 -53 37 -88t116 -35q86 0 150.5 45t99.5 113v237q-96 -41 -171 -67.5t-127 -53t-78.5 -60.5t-26.5 -91zM778 1327q0 59 42 101t102 42q59 0 102 -42t43 -101t-43 -101t-102 -42t-101.5 42t-42.5 101 z" />
<glyph unicode="&#xe5;" horiz-adv-x="1470" d="M80 254q0 82 28.5 135t79 87t120 53.5t151.5 37t174 36t186 48.5v64q0 43 -12 84t-39 72.5t-69 51t-99 19.5q-86 0 -143.5 -15.5t-102.5 -45.5q49 -4 85 -29t36 -80q0 -63 -42 -101t-124 -38q-164 0 -164 160q0 57 34 110t98.5 93t158.5 63.5t215 23.5q94 0 188.5 -17 t168 -59t120 -115t46.5 -183v-478q0 -86 59 -86q29 0 43 26t14 60v105h119v-66q0 -86 -25.5 -140t-66.5 -87t-92 -45t-103 -12q-127 0 -187.5 58t-80.5 149q-18 -45 -53 -86t-86 -73t-119 -50.5t-152 -18.5q-190 0 -277 79t-87 210zM418 293q0 -53 37 -88t116 -35 q86 0 150.5 45t99.5 113v237q-96 -41 -171 -67.5t-127 -53t-78.5 -60.5t-26.5 -91zM481 1331q0 43 16.5 82t44 69t65.5 46t81 16t82 -16t68.5 -46t46 -69t16.5 -82t-16.5 -82.5t-46 -68.5t-68.5 -46.5t-82 -17.5t-81 17.5t-65.5 46.5t-44 68.5t-16.5 82.5zM573 1331 q0 -59 30.5 -90.5t84.5 -31.5q47 0 80.5 31.5t33.5 90.5q0 51 -33.5 85t-80.5 34q-53 0 -84 -33.5t-31 -85.5z" />
<glyph unicode="&#xe6;" horiz-adv-x="2000" d="M80 254q0 121 61.5 181.5t165 93t236.5 55t276 67.5v64q0 43 -12 84t-39 72.5t-69 51t-99 19.5q-86 0 -143.5 -14.5t-102.5 -46.5q49 -4 85 -29t36 -80q0 -63 -40 -101t-126 -38q-164 0 -164 160q0 57 34 110t99.5 93t158.5 63.5t214 23.5q117 0 209 -36.5t162 -118.5 q70 78 164 116.5t229 38.5q238 0 372 -136t134 -431h-743q4 -186 63 -278.5t189 -92.5q96 0 174.5 51.5t107.5 159.5l172 -20q-16 -72 -52 -138.5t-95.5 -117.5t-143.5 -83t-194 -32q-176 0 -300 65.5t-179 229.5q-27 -61 -68 -115.5t-98.5 -94.5t-134 -62.5t-175.5 -22.5 q-190 0 -277 79t-87 210zM418 293q0 -55 37 -89t116 -34q86 0 150.5 44t99.5 114v237q-96 -41 -171 -67.5t-127 -53t-78.5 -61.5t-26.5 -90zM1182 659h426q0 51 -12.5 101.5t-37 90.5t-63.5 64.5t-94 24.5q-92 0 -150.5 -66.5t-68.5 -214.5z" />
<glyph unicode="&#xe7;" horiz-adv-x="1241" d="M88 514q0 125 37 229.5t110.5 180t182 117.5t252.5 42q104 0 192 -20.5t152.5 -60t100.5 -100t36 -140.5q0 -72 -40 -122t-126 -50q-78 0 -118 41t-40 98q0 51 36 92t93 45q-57 76 -206 76q-129 0 -210 -98.5t-81 -288.5q0 -217 70.5 -313.5t205.5 -96.5q94 0 166 53.5 t88 172.5l172 -15q-12 -72 -44 -140.5t-87 -123.5t-135 -90t-188 -37v-49q82 -4 136 -50t54 -124q0 -92 -47 -143.5t-139 -51.5q-55 0 -106.5 31t-69.5 80l43 47q53 -59 110 -59q82 0 82 96q0 53 -42 79.5t-107 37.5v110q-119 8 -217.5 43t-168 101.5t-108.5 166t-39 234.5z " />
<glyph unicode="&#xe8;" horiz-adv-x="1280" d="M88 522q0 129 38 232.5t111.5 177.5t180 112.5t246.5 38.5q274 0 406 -135t132 -430h-743q4 -186 63.5 -279.5t188.5 -93.5q98 0 177 52.5t105 158.5l172 -18q-14 -72 -50 -138.5t-95 -118.5t-144 -84t-196 -32q-117 0 -224.5 26.5t-189.5 91t-130 171t-48 268.5z M273 1362q0 47 33.5 77.5t101.5 30.5q55 0 109.5 -22.5t113 -53t121 -63.5t133.5 -55l-37 -86q-109 27 -211 34t-184 18t-131 36t-49 84zM463 659h426q0 51 -12.5 102.5t-37 91.5t-63.5 64.5t-94 24.5q-92 0 -149.5 -67.5t-69.5 -215.5z" />
<glyph unicode="&#xe9;" horiz-adv-x="1280" d="M88 522q0 129 38 232.5t111.5 177.5t180 112.5t246.5 38.5q274 0 406 -135t132 -430h-743q4 -186 63.5 -279.5t188.5 -93.5q98 0 177 52.5t105 158.5l172 -18q-14 -72 -50 -138.5t-95 -118.5t-144 -84t-196 -32q-117 0 -224.5 26.5t-189.5 91t-130 171t-48 268.5z M393 1276q68 20 131 53t121.5 64.5t116 54t112.5 22.5q66 0 99.5 -30.5t33.5 -77.5q0 -61 -52 -86t-135 -36t-186.5 -18.5t-203.5 -31.5zM463 659h426q0 51 -12.5 102.5t-37 91.5t-63.5 64.5t-94 24.5q-92 0 -149.5 -67.5t-69.5 -215.5z" />
<glyph unicode="&#xea;" horiz-adv-x="1280" d="M88 522q0 129 38 232.5t111.5 177.5t180 112.5t246.5 38.5q274 0 406 -135t132 -430h-743q4 -186 63.5 -279.5t188.5 -93.5q98 0 177 52.5t105 158.5l172 -18q-14 -72 -50 -138.5t-95 -118.5t-144 -84t-196 -32q-117 0 -224.5 26.5t-189.5 91t-130 171t-48 268.5z M258 1233l375 237l370 -239l-96 -60l-274 101l-285 -101zM463 659h426q0 51 -12.5 102.5t-37 91.5t-63.5 64.5t-94 24.5q-92 0 -149.5 -67.5t-69.5 -215.5z" />
<glyph unicode="&#xeb;" horiz-adv-x="1280" d="M88 522q0 129 38 232.5t111.5 177.5t180 112.5t246.5 38.5q274 0 406 -135t132 -430h-743q4 -186 63.5 -279.5t188.5 -93.5q98 0 177 52.5t105 158.5l172 -18q-14 -72 -50 -138.5t-95 -118.5t-144 -84t-196 -32q-117 0 -224.5 26.5t-189.5 91t-130 171t-48 268.5z M274 1327q0 59 42 101t102 42q59 0 102 -42t43 -101t-43 -101t-102 -42t-101.5 42t-42.5 101zM463 659h426q0 51 -12.5 102.5t-37 91.5t-63.5 64.5t-94 24.5q-92 0 -149.5 -67.5t-69.5 -215.5zM745 1327q0 59 42 101t102 42q59 0 102 -42t43 -101t-43 -101t-102 -42 t-101.5 42t-42.5 101z" />
<glyph unicode="&#xec;" horiz-adv-x="880" d="M45 1362q0 47 33.5 77.5t101.5 30.5q55 0 109.5 -22.5t113 -53t121 -63.5t133.5 -55l-37 -86q-109 27 -211 34t-184 18t-131 36t-49 84zM80 0v166q174 0 174 92v526q0 94 -174 95v163h549v-784q0 -92 174 -92v-166h-723z" />
<glyph unicode="&#xed;" horiz-adv-x="880" d="M80 0v166q174 0 174 92v526q0 94 -174 95v163h549v-784q0 -92 174 -92v-166h-723zM137 1276q68 20 131 53t121.5 64.5t116 54t112.5 22.5q66 0 99.5 -30.5t33.5 -77.5q0 -61 -52 -86t-135 -36t-186.5 -18.5t-203.5 -31.5z" />
<glyph unicode="&#xee;" horiz-adv-x="880" d="M47 1233l375 237l370 -239l-96 -60l-274 101l-285 -101zM80 0v166q174 0 174 92v526q0 94 -174 95v163h549v-784q0 -92 174 -92v-166h-723z" />
<glyph unicode="&#xef;" horiz-adv-x="880" d="M34 1327q0 59 42 101t102 42q59 0 102 -42t43 -101t-43 -101t-102 -42t-101.5 42t-42.5 101zM80 0v166q174 0 174 92v526q0 94 -174 95v163h549v-784q0 -92 174 -92v-166h-723zM505 1327q0 59 42 101t102 42q59 0 102 -42t43 -101t-43 -101t-102 -42t-101.5 42t-42.5 101 z" />
<glyph unicode="&#xf0;" horiz-adv-x="1320" d="M88 457q0 266 128 390t353 124q127 0 275 -41q-25 158 -94 280l-172 -137l-72 103l178 141q-72 86 -170 119l57 139q147 -41 273 -139l180 141l72 -102l-156 -123q143 -150 226 -347.5t83 -433.5q0 -166 -40 -281.5t-115.5 -187t-185 -104.5t-251.5 -33q-115 0 -218 25.5 t-181 84t-124 153t-46 229.5zM459 514q0 -121 12 -193.5t36.5 -111.5t62.5 -51.5t92 -12.5q59 0 100 15.5t65.5 52.5t35.5 99.5t11 158.5q0 98 -9 164.5t-31.5 107.5t-61.5 59.5t-98 18.5q-55 0 -96 -14t-67 -49t-39 -94.5t-13 -149.5z" />
<glyph unicode="&#xf1;" horiz-adv-x="1656" d="M80 0v166q174 0 174 92v528q0 92 -172 93v163h547v-208q72 111 184.5 170t261.5 59q160 0 244 -72.5t84 -232.5v-500q0 -92 176 -92v-166h-666v166q117 0 117 92v324q0 129 -34.5 188t-98.5 59q-86 0 -159.5 -67.5t-108.5 -183.5v-320q0 -92 114 -92v-166h-663zM346 1247 q49 104 131 156.5t174 52.5q74 0 122 -13t86 -30.5t74.5 -31t86.5 -13.5q45 0 79.5 16.5t63.5 63.5l129 -43q-35 -104 -111.5 -157.5t-187.5 -53.5q-57 0 -104.5 13.5t-90.5 30.5t-84 30.5t-86 13.5q-111 0 -159 -84z" />
<glyph unicode="&#xf2;" horiz-adv-x="1320" d="M88 502q0 582 590 581q117 0 221.5 -25.5t182 -89t122.5 -171t45 -271.5q0 -276 -153.5 -418.5t-438.5 -142.5q-115 0 -218 24.5t-181 85t-124 164t-46 263.5zM318 1362q0 47 33.5 77.5t101.5 30.5q55 0 109.5 -22.5t113 -53t121 -63.5t133.5 -55l-37 -86 q-109 27 -211 34t-184 18t-131 36t-49 84zM459 559q0 -127 12 -208t36.5 -127t62.5 -62.5t92 -16.5q119 0 165.5 86t46.5 285q0 117 -13 191.5t-38.5 117.5t-62.5 59.5t-86 16.5q-111 0 -163 -79t-52 -263z" />
<glyph unicode="&#xf3;" horiz-adv-x="1320" d="M88 502q0 582 590 581q117 0 221.5 -25.5t182 -89t122.5 -171t45 -271.5q0 -276 -153.5 -418.5t-438.5 -142.5q-115 0 -218 24.5t-181 85t-124 164t-46 263.5zM391 1276q68 20 131 53t121.5 64.5t116 54t112.5 22.5q66 0 99.5 -30.5t33.5 -77.5q0 -61 -52 -86t-135 -36 t-186.5 -18.5t-203.5 -31.5zM459 559q0 -127 12 -208t36.5 -127t62.5 -62.5t92 -16.5q119 0 165.5 86t46.5 285q0 117 -13 191.5t-38.5 117.5t-62.5 59.5t-86 16.5q-111 0 -163 -79t-52 -263z" />
<glyph unicode="&#xf4;" horiz-adv-x="1320" d="M88 502q0 582 590 581q117 0 221.5 -25.5t182 -89t122.5 -171t45 -271.5q0 -276 -153.5 -418.5t-438.5 -142.5q-115 0 -218 24.5t-181 85t-124 164t-46 263.5zM281 1233l375 237l370 -239l-96 -60l-274 101l-285 -101zM459 559q0 -127 12 -208t36.5 -127t62.5 -62.5 t92 -16.5q119 0 165.5 86t46.5 285q0 117 -13 191.5t-38.5 117.5t-62.5 59.5t-86 16.5q-111 0 -163 -79t-52 -263z" />
<glyph unicode="&#xf5;" horiz-adv-x="1320" d="M88 502q0 582 590 581q117 0 221.5 -25.5t182 -89t122.5 -171t45 -271.5q0 -276 -153.5 -418.5t-438.5 -142.5q-115 0 -218 24.5t-181 85t-124 164t-46 263.5zM178 1247q49 104 131 156.5t174 52.5q74 0 122 -13t86 -30.5t74.5 -31t86.5 -13.5q45 0 79.5 16.5t63.5 63.5 l129 -43q-35 -104 -111.5 -157.5t-187.5 -53.5q-57 0 -104.5 13.5t-90.5 30.5t-84 30.5t-86 13.5q-111 0 -159 -84zM459 559q0 -127 12 -208t36.5 -127t62.5 -62.5t92 -16.5q119 0 165.5 86t46.5 285q0 117 -13 191.5t-38.5 117.5t-62.5 59.5t-86 16.5q-111 0 -163 -79 t-52 -263z" />
<glyph unicode="&#xf6;" horiz-adv-x="1320" d="M88 502q0 582 590 581q117 0 221.5 -25.5t182 -89t122.5 -171t45 -271.5q0 -276 -153.5 -418.5t-438.5 -142.5q-115 0 -218 24.5t-181 85t-124 164t-46 263.5zM272 1327q0 59 42 101t102 42q59 0 102 -42t43 -101t-43 -101t-102 -42t-101.5 42t-42.5 101zM459 559 q0 -127 12 -208t36.5 -127t62.5 -62.5t92 -16.5q119 0 165.5 86t46.5 285q0 117 -13 191.5t-38.5 117.5t-62.5 59.5t-86 16.5q-111 0 -163 -79t-52 -263zM743 1327q0 59 42 101t102 42q59 0 102 -42t43 -101t-43 -101t-102 -42t-101.5 42t-42.5 101z" />
<glyph unicode="&#xf7;" horiz-adv-x="1161" d="M76 639v176h1009v-176h-1009zM446 336q0 57 40 97t98 40q57 0 97 -40t40 -97t-40 -97t-97 -40t-97.5 40t-40.5 97zM446 1110q0 57 40 97t98 40q57 0 97 -40t40 -97t-40 -97t-97 -40t-97.5 40t-40.5 97z" />
<glyph unicode="&#xf8;" horiz-adv-x="1320" d="M88 502q0 582 590 581q104 0 180 -20l80 141l156 -76l-70 -122q104 -59 164.5 -173t60.5 -307q0 -276 -153.5 -418.5t-438.5 -142.5q-109 0 -198 21l-72 -131l-158 75l66 119q-94 59 -150.5 167t-56.5 286zM446 559q0 -27 2.5 -57.5t7.5 -58t11 -50t14 -31.5l291 523 q-41 23 -98 22q-111 0 -169.5 -81t-58.5 -267zM549 172q23 -18 50.5 -25.5t62.5 -7.5q119 0 172 89t53 288q0 131 -29 213z" />
<glyph unicode="&#xf9;" horiz-adv-x="1605" d="M80 879v163h538v-587q0 -129 32 -188.5t102 -59.5q86 0 145 67.5t94 184.5v325q0 47 -36.5 71t-116.5 24v163h522v-786q0 -92 166 -92v-164h-535v209q-61 -104 -161.5 -166.5t-254.5 -62.5q-166 0 -242.5 72.5t-76.5 232.5v501q0 92 -176 93zM430 1362q0 47 33.5 77.5 t101.5 30.5q55 0 109.5 -22.5t113 -53t121 -63.5t133.5 -55l-37 -86q-109 27 -211 34t-184 18t-131 36t-49 84z" />
<glyph unicode="&#xfa;" horiz-adv-x="1605" d="M80 879v163h538v-587q0 -129 32 -188.5t102 -59.5q86 0 145 67.5t94 184.5v325q0 47 -36.5 71t-116.5 24v163h522v-786q0 -92 166 -92v-164h-535v209q-61 -104 -161.5 -166.5t-254.5 -62.5q-166 0 -242.5 72.5t-76.5 232.5v501q0 92 -176 93zM512 1276q68 20 131 53 t121.5 64.5t116 54t112.5 22.5q66 0 99.5 -30.5t33.5 -77.5q0 -61 -52 -86t-135 -36t-186.5 -18.5t-203.5 -31.5z" />
<glyph unicode="&#xfb;" horiz-adv-x="1605" d="M80 879v163h538v-587q0 -129 32 -188.5t102 -59.5q86 0 145 67.5t94 184.5v325q0 47 -36.5 71t-116.5 24v163h522v-786q0 -92 166 -92v-164h-535v209q-61 -104 -161.5 -166.5t-254.5 -62.5q-166 0 -242.5 72.5t-76.5 232.5v501q0 92 -176 93zM410 1233l375 237l370 -239 l-96 -60l-274 101l-285 -101z" />
<glyph unicode="&#xfc;" horiz-adv-x="1605" d="M80 879v163h538v-587q0 -129 32 -188.5t102 -59.5q86 0 145 67.5t94 184.5v325q0 47 -36.5 71t-116.5 24v163h522v-786q0 -92 166 -92v-164h-535v209q-61 -104 -161.5 -166.5t-254.5 -62.5q-166 0 -242.5 72.5t-76.5 232.5v501q0 92 -176 93zM397 1327q0 59 42 101 t102 42q59 0 102 -42t43 -101t-43 -101t-102 -42t-101.5 42t-42.5 101zM868 1327q0 59 42 101t102 42q59 0 102 -42t43 -101t-43 -101t-102 -42t-101.5 42t-42.5 101z" />
<glyph unicode="&#xfd;" horiz-adv-x="1404" d="M61 -193q0 27 10.5 57t32 54.5t53 40.5t72.5 16q72 0 113 -34.5t41 -87.5t-35 -87t-92 -38q18 -31 48 -48.5t102 -17.5q66 0 110.5 43t95.5 137l-407 965q-16 35 -55 53.5t-89 18.5v163h627v-163h-65q-29 0 -43.5 -12.5t-14.5 -30.5q0 -10 6 -25l220 -575l225 555 q6 18 6 34q0 53 -80 54h-41v163h432v-163q-127 0 -153 -70l-355 -872q-39 -94 -75.5 -170t-85 -130.5t-113 -83t-158.5 -28.5q-72 0 -133 18.5t-105 55t-69 89t-25 119.5zM465 1276q68 20 131 53t121.5 64.5t116 54t112.5 22.5q66 0 99.5 -30.5t33.5 -77.5q0 -61 -52 -86 t-135 -36t-186.5 -18.5t-203.5 -31.5z" />
<glyph unicode="&#xfe;" horiz-adv-x="1425" d="M4 -319q176 0 176 92v1548q0 92 -174 92v164h551v-631q45 66 136 101.5t214 35.5q94 0 176 -24.5t143.5 -88t96.5 -170t35 -268.5q0 -127 -32 -232t-95.5 -181t-158.5 -118t-222 -42q-92 0 -169 23.5t-126 70.5v-280q0 -92 219 -92v-164h-770v164zM526 547 q0 -86 10.5 -161t37 -129t68.5 -85t108 -31q76 0 123 37t72.5 93.5t33.5 126t8 134.5q0 180 -49 269.5t-178 89.5q-123 0 -178.5 -85t-55.5 -259z" />
<glyph unicode="&#xff;" horiz-adv-x="1404" d="M61 -193q0 27 10.5 57t32 54.5t53 40.5t72.5 16q72 0 113 -34.5t41 -87.5t-35 -87t-92 -38q18 -31 48 -48.5t102 -17.5q66 0 110.5 43t95.5 137l-407 965q-16 35 -55 53.5t-89 18.5v163h627v-163h-65q-29 0 -43.5 -12.5t-14.5 -30.5q0 -10 6 -25l220 -575l225 555 q6 18 6 34q0 53 -80 54h-41v163h432v-163q-127 0 -153 -70l-355 -872q-39 -94 -75.5 -170t-85 -130.5t-113 -83t-158.5 -28.5q-72 0 -133 18.5t-105 55t-69 89t-25 119.5zM374 1327q0 59 42 101t102 42q59 0 102 -42t43 -101t-43 -101t-102 -42t-101.5 42t-42.5 101z M845 1327q0 59 42 101t102 42q59 0 102 -42t43 -101t-43 -101t-102 -42t-101.5 42t-42.5 101z" />
<glyph unicode="&#x152;" horiz-adv-x="2535" d="M76 729q0 193 44 346.5t139 260t244.5 162.5t362.5 56q66 0 118 -5t103.5 -11t107.5 -11t130 -5h1067v-461l-205 -10q-12 262 -229 262h-377v-428h148q96 0 114 229h180l-30 -639h-176q-23 238 -103 238h-133v-504h303q324 0 348 389l209 -14l-49 -584h-1067 q-74 0 -130 -5t-110.5 -11.5t-113 -11.5t-135.5 -5q-166 0 -305.5 39t-241 128t-157.5 234.5t-56 360.5zM489 823q0 -197 25 -320.5t70 -193t108.5 -95.5t143.5 -26q100 0 166.5 19.5t107.5 80t58.5 170t17.5 290.5q0 186 -16.5 301.5t-53.5 180t-96 86t-143 21.5 q-197 0 -292.5 -121.5t-95.5 -392.5z" />
<glyph unicode="&#x153;" horiz-adv-x="2068" d="M88 502q0 582 590 581q123 0 222 -29.5t171 -101.5q66 61 160 96t219 35q274 0 406.5 -135t132.5 -430h-744q4 -186 63.5 -279.5t188.5 -93.5q94 0 174 52.5t107 158.5l174 -18q-16 -72 -52 -138.5t-95.5 -118.5t-143.5 -84t-195 -32q-123 0 -228 30t-179 105 q-139 -135 -402 -135q-115 0 -218 24.5t-181 85t-124 164t-46 263.5zM459 559q0 -127 12 -208t36.5 -127t62.5 -62.5t92 -16.5q119 0 165.5 86t46.5 285q0 117 -13 191.5t-38.5 117.5t-62.5 59.5t-86 16.5q-111 0 -163 -79t-52 -263zM1247 659h428q0 51 -12 102.5t-38 91.5 t-64.5 64.5t-94.5 24.5q-92 0 -149 -67.5t-70 -215.5z" />
<glyph unicode="&#x178;" horiz-adv-x="1691" d="M57 1354v168h830v-168h-121q-61 0 -61 -41q0 -16 10 -33l248 -428l266 424q8 14 8 29q0 49 -74 49h-61v168h524v-170q-61 0 -105 -15.5t-61 -42.5l-424 -622v-412q0 -94 205 -94v-166h-825v166q205 0 205 94v412l-408 620q-23 35 -62.5 48.5t-93.5 13.5zM518 1821 q0 59 42 101t102 42q59 0 102 -42t43 -101t-43 -101t-102 -42t-101.5 42t-42.5 101zM989 1821q0 59 42 101t102 42q59 0 102 -42t43 -101t-43 -101t-102 -42t-101.5 42t-42.5 101z" />
<glyph unicode="&#x2c6;" horiz-adv-x="892" d="M74 1233l375 237l370 -239l-96 -60l-274 101l-285 -101z" />
<glyph unicode="&#x2dc;" horiz-adv-x="1097" d="M76 1247q49 104 131 156.5t174 52.5q74 0 122 -13t86 -30.5t74.5 -31t86.5 -13.5q45 0 79.5 16.5t63.5 63.5l129 -43q-35 -104 -111.5 -157.5t-187.5 -53.5q-57 0 -104.5 13.5t-90.5 30.5t-84 30.5t-86 13.5q-111 0 -159 -84z" />
<glyph unicode="&#x2000;" horiz-adv-x="982" />
<glyph unicode="&#x2001;" horiz-adv-x="1964" />
<glyph unicode="&#x2002;" horiz-adv-x="982" />
<glyph unicode="&#x2003;" horiz-adv-x="1964" />
<glyph unicode="&#x2004;" horiz-adv-x="654" />
<glyph unicode="&#x2005;" horiz-adv-x="491" />
<glyph unicode="&#x2006;" horiz-adv-x="327" />
<glyph unicode="&#x2007;" horiz-adv-x="327" />
<glyph unicode="&#x2008;" horiz-adv-x="245" />
<glyph unicode="&#x2009;" horiz-adv-x="392" />
<glyph unicode="&#x200a;" horiz-adv-x="109" />
<glyph unicode="&#x2010;" horiz-adv-x="688" d="M55 494v186h576v-186h-576z" />
<glyph unicode="&#x2011;" horiz-adv-x="688" d="M55 494v186h576v-186h-576z" />
<glyph unicode="&#x2012;" horiz-adv-x="688" d="M55 494v186h576v-186h-576z" />
<glyph unicode="&#x2013;" horiz-adv-x="1218" d="M55 494v186h1106v-186h-1106z" />
<glyph unicode="&#x2014;" horiz-adv-x="2060" d="M55 494v186h1948v-186h-1948z" />
<glyph unicode="&#x2018;" horiz-adv-x="542" d="M76 1167q0 166 76.5 265.5t230.5 173.5l51 -88q-92 -47 -128 -96.5t-36 -96.5q0 -43 37 -43q78 0 117 -43t39 -121q0 -86 -51.5 -132t-132.5 -46q-94 0 -148.5 58.5t-54.5 168.5z" />
<glyph unicode="&#x2019;" horiz-adv-x="542" d="M82 1407q0 86 51 132t131 46q98 0 151.5 -58.5t53.5 -168.5q0 -166 -79 -265.5t-228 -172.5l-51 88q92 47 126.5 96t34.5 96q0 43 -34 43q-78 0 -117 43t-39 121z" />
<glyph unicode="&#x201a;" horiz-adv-x="542" d="M82 172q0 86 51 132t131 46q98 0 151.5 -58.5t53.5 -168.5q0 -166 -79 -265.5t-228 -172.5l-51 88q92 47 126.5 96t34.5 96q0 43 -34 43q-78 0 -117 43t-39 121z" />
<glyph unicode="&#x201c;" horiz-adv-x="1046" d="M76 1167q0 166 76.5 265.5t230.5 173.5l51 -88q-92 -47 -128 -96.5t-36 -96.5q0 -43 37 -43q78 0 117 -43t39 -121q0 -86 -51.5 -132t-132.5 -46q-94 0 -148.5 58.5t-54.5 168.5zM578 1167q0 166 78.5 265.5t228.5 173.5l53 -88q-94 -47 -129 -96.5t-35 -96.5 q0 -43 35 -43q80 0 118 -43t38 -121q0 -86 -51.5 -132t-131.5 -46q-94 0 -149 58.5t-55 168.5z" />
<glyph unicode="&#x201d;" horiz-adv-x="1046" d="M82 1407q0 86 51 132t131 46q98 0 151.5 -58.5t53.5 -168.5q0 -166 -79 -265.5t-228 -172.5l-51 88q92 47 126.5 96t34.5 96q0 43 -34 43q-78 0 -117 43t-39 121zM584 1407q0 86 52 132t132 46q98 0 151.5 -58.5t53.5 -168.5q0 -166 -79 -265.5t-228 -172.5l-54 88 q92 47 128 96t36 96q0 43 -35 43q-80 0 -118.5 43t-38.5 121z" />
<glyph unicode="&#x201e;" horiz-adv-x="1224" d="M170 172q0 86 51 132t133 46q94 0 148.5 -58.5t54.5 -168.5q0 -166 -79 -265.5t-228 -172.5l-51 88q92 47 126.5 96t34.5 96q0 43 -34 43q-78 0 -117 43t-39 121zM674 172q0 86 51 132t131 46q98 0 151.5 -58.5t53.5 -168.5q0 -166 -79 -265.5t-228 -172.5l-54 88 q92 47 128 96t36 96q0 43 -35 43q-80 0 -117.5 43t-37.5 121z" />
<glyph unicode="&#x2022;" horiz-adv-x="841" d="M76 743q0 70 24.5 128.5t70.5 100.5t110.5 65.5t144.5 23.5q76 0 138.5 -23.5t107.5 -65.5t70.5 -100.5t25.5 -128.5q0 -72 -25.5 -130t-70.5 -100t-107.5 -64.5t-138.5 -22.5q-160 0 -255 87t-95 230z" />
<glyph unicode="&#x2026;" horiz-adv-x="2351" d="M172 172q0 76 54.5 130t133.5 54q39 0 73 -14t58.5 -40t39 -59.5t14.5 -70.5q0 -80 -53.5 -134t-131.5 -54q-80 0 -134 54t-54 134zM985 172q0 76 54.5 130t134.5 54q76 0 130 -54t54 -130q0 -80 -54.5 -134t-129.5 -54q-80 0 -134.5 54t-54.5 134zM1802 172 q0 37 14.5 70.5t40 59.5t59.5 40t73 14t72.5 -14t59 -40t40 -59.5t14.5 -70.5q0 -80 -54.5 -134t-131.5 -54q-78 0 -132.5 54t-54.5 134z" />
<glyph unicode="&#x202f;" horiz-adv-x="392" />
<glyph unicode="&#x2039;" horiz-adv-x="669" d="M55 590l441 430l118 -133l-233 -297l233 -303l-118 -131z" />
<glyph unicode="&#x203a;" horiz-adv-x="669" d="M55 289l230 299l-230 299l117 133l440 -432l-440 -434z" />
<glyph unicode="&#x205f;" horiz-adv-x="491" />
<glyph unicode="&#x20ac;" horiz-adv-x="1615" d="M82 498l24 110h93q-2 14 -2 29.5v32.5v32.5t2 32.5h-117l24 109h105q23 125 81 227.5t149 175t215 111.5t278 39q100 0 194.5 -25.5t168 -72t117.5 -109t44 -137.5q0 -78 -48 -118t-107 -40q-68 0 -113 35t-45 86q0 59 26.5 91t65.5 36q-35 51 -108.5 78.5t-165.5 27.5 q-96 0 -164 -32.5t-113 -89t-70.5 -130t-37.5 -153.5h487l-49 -109h-447q-2 -25 -2 -43v-33v-27t2 -24h385l-49 -110h-319q33 -154 115.5 -237t205.5 -83q82 0 143.5 14.5t106.5 44t77 75.5t54 108l168 -41q-25 -86 -65.5 -161t-108.5 -130t-166 -88t-235 -33 q-127 0 -239 34t-199 100.5t-147 166t-85 230.5h-129z" />
<glyph unicode="&#x2122;" horiz-adv-x="1955" d="M104 1253v269h699v-269l-88 -4q-4 88 -28.5 126t-72.5 38h-53v-412q0 -35 74 -34v-93h-359v93q72 0 72 34v412h-53q-47 0 -71.5 -38t-28.5 -126zM897 874v93q76 0 76 34v394q0 35 -76 35v92h369l131 -424l131 424h327v-92q-76 0 -75 -35v-394q0 -35 75 -34v-93h-354v93 q74 0 74 34v365l-154 -492h-178l-153 492v-365q0 -35 75 -34v-93h-268z" />
<glyph unicode="&#x25fc;" horiz-adv-x="1044" d="M0 0v1044h1044v-1044h-1044z" />
</font>
</defs>
</svg>
