<?xml version="1.0" standalone="no"?>
<!DOCTYPE svg PUBLIC "-//W3C//DTD SVG 1.1//EN" "http://www.w3.org/Graphics/SVG/1.1/DTD/svg11.dtd" >
<svg xmlns="http://www.w3.org/2000/svg" xmlns:xlink="http://www.w3.org/1999/xlink" version="1.1">
<metadata></metadata>
<defs>
<font id="superclarendonitalic" horiz-adv-x="1837" >
<font-face units-per-em="2048" ascent="1587" descent="-461" />
<missing-glyph horiz-adv-x="720" />
<glyph horiz-adv-x="0" />
<glyph unicode="&#xd;" horiz-adv-x="595" />
<glyph unicode=" "  horiz-adv-x="720" />
<glyph unicode="&#x09;" horiz-adv-x="720" />
<glyph unicode="&#xa0;" horiz-adv-x="720" />
<glyph unicode="!" horiz-adv-x="763" d="M240 145q0 66 47 113t114 47q66 0 113 -47t47 -113q0 -68 -47 -114.5t-113 -46.5q-68 0 -114.5 47t-46.5 114zM391 453q25 203 36 348t16.5 247.5t6.5 169t5 111.5q10 119 58 165t136 46q63 0 99 -26.5t36 -88.5q0 -53 -19.5 -116.5t-54 -168t-83.5 -268t-109 -419.5 h-127z" />
<glyph unicode="&#x22;" horiz-adv-x="819" d="M307 883q12 147 16.5 245.5t4.5 165.5q0 37 4 84t20.5 90t48 73t86.5 30q41 0 76 -19.5t35 -76.5q0 -35 -16.5 -81t-42 -114t-59.5 -164t-68 -233h-105zM709 883q10 131 15 221t5 158q0 49 3 103t17.5 100t46 76t91.5 30q41 0 75.5 -19.5t34.5 -76.5q0 -37 -15 -82 t-42 -113t-59.5 -164t-67.5 -233h-104z" />
<glyph unicode="#" horiz-adv-x="1193" d="M160 362l26 140h203l121 334h-197l25 137h223l137 391h154l-139 -391h239l140 391h153l-141 -391h170l-23 -137h-194l-121 -334h186l-24 -140h-213l-129 -362h-154l129 362h-237l-132 -362h-153l129 362h-178zM543 502h239l121 334h-239z" />
<glyph unicode="$" horiz-adv-x="1175" d="M156 252l67 383l123 10q4 -113 75 -185.5t193 -92.5l52 292q-84 14 -155 34t-122 52.5t-79.5 80.5t-28.5 122q0 88 35.5 150.5t96 102.5t140.5 59.5t168 19.5q14 0 27.5 -1t27.5 -1l43 244h90l-47 -258q37 -10 68 -24.5t56.5 -28t45 -22.5t33.5 -9q23 0 35 24l28 58h117 l-63 -363l-127 -14q-6 223 -211 266l-51 -281q76 -14 146.5 -32.5t122.5 -51t84 -83t32 -130.5q0 -86 -41 -148.5t-108.5 -103t-158 -60t-188.5 -19.5l-41 -242h-90l43 248q-66 8 -115 25.5t-84 41.5q-29 23 -53 23q-20 0 -35 -27l-28 -59h-123zM524 1020q0 -59 52.5 -86 t130.5 -45l47 268q-31 0 -71 -4t-75 -18.5t-59.5 -42t-24.5 -72.5zM702 358q37 0 78 7.5t75 24t56.5 46t22.5 76.5q0 59 -52.5 87t-127.5 44z" />
<glyph unicode="%" horiz-adv-x="1677" d="M301 999q0 84 29.5 157t80 126t119 84t146.5 31q150 0 235.5 -58.5t85.5 -205.5q0 -80 -28.5 -154t-78.5 -131t-117.5 -92t-147.5 -35q-74 0 -133.5 13.5t-101.5 46t-65.5 86t-23.5 132.5zM324 0l1112 1397h186l-1120 -1397h-178zM475 977q0 -104 36 -137t118 -33 q49 0 86 33.5t60.5 84t35.5 110t12 112.5q0 100 -35.5 132t-113.5 32q-53 0 -90 -33t-61.5 -83t-36 -108.5t-11.5 -109.5zM936 279q0 84 29.5 156.5t80 125.5t119 84t146.5 31q150 0 235.5 -58.5t85.5 -205.5q0 -80 -28.5 -154t-78.5 -131t-118 -92t-147 -35 q-74 0 -133.5 13.5t-101.5 46t-65.5 86t-23.5 133.5zM1110 256q0 -104 36 -137t118 -33q49 0 85.5 34t60.5 84t36 109.5t12 112.5q0 100 -35.5 132t-113.5 32q-53 0 -90 -33t-61.5 -83t-36 -108.5t-11.5 -109.5z" />
<glyph unicode="&#x26;" horiz-adv-x="1943" d="M193 352q0 115 36.5 201t100 151.5t147.5 112.5t176 84q-27 86 -26 193q0 94 33.5 178t95 147.5t148.5 99t192 35.5q137 0 216 -66.5t79 -207.5q0 -88 -37 -155.5t-98.5 -121t-139.5 -95.5t-160 -79q47 -141 121 -280t160 -244q51 39 98 86t81 99.5t54.5 110.5t20.5 120 q0 35 -38 52.5t-124 17.5l21 118h557l-23 -118q-92 0 -135 -21.5t-53 -69.5q-29 -147 -116 -276t-218 -227q78 -61 151 -62q78 0 133.5 38t71.5 120l21 115h119l-21 -115q-14 -76 -39.5 -136.5t-66.5 -102.5t-100.5 -64.5t-141.5 -22.5q-92 0 -173 29t-153 78 q-104 -51 -215.5 -79t-224.5 -28q-111 0 -207 20.5t-168 66.5t-113.5 120t-41.5 178zM479 367q0 -106 75 -170t198 -64q125 0 272 60q-104 106 -183 239t-126 268q-49 -29 -92 -61.5t-75 -73.5t-50.5 -90t-18.5 -108zM905 1133q1 -68 13 -136q61 23 113 48.5t92 59.5 t62.5 77t22.5 98q0 74 -28.5 102.5t-83.5 28.5q-53 0 -89 -25.5t-58.5 -65.5t-33 -90t-10.5 -97z" />
<glyph unicode="'" horiz-adv-x="417" d="M307 883q12 147 16.5 245.5t4.5 165.5q0 37 4 84t20.5 90t48 73t86.5 30q41 0 76 -19.5t35 -76.5q0 -35 -16.5 -81t-42 -114t-59.5 -164t-68 -233h-105z" />
<glyph unicode="(" horiz-adv-x="776" d="M156 340q0 131 18.5 270.5t57 274.5t100 262t148.5 232.5t202 184t260 119.5l37 -92q-102 -39 -186 -117.5t-151 -183t-117 -228.5t-81.5 -252t-48 -255t-16.5 -236q0 -264 62.5 -420.5t193.5 -228.5l-68 -90q-96 45 -173 108.5t-130 153.5t-80.5 212t-27.5 286z" />
<glyph unicode=")" horiz-adv-x="776" d="M16 -328q102 39 186.5 118t151 183.5t116.5 228.5t82 252t48 254t16 234q0 264 -62 422t-194 229l70 90q96 -47 172 -109.5t129 -152.5t81 -212t28 -287q0 -131 -18.5 -270.5t-57.5 -274.5t-100.5 -261t-148.5 -231.5t-201.5 -184.5t-258.5 -120q-10 23 -19 46.5 t-20 45.5z" />
<glyph unicode="*" horiz-adv-x="1294" d="M330 1040q0 92 174 93h164q47 0 47 14t-22.5 28.5t-56.5 29t-74 30.5t-73.5 34.5t-56 41t-22.5 49.5q0 31 21.5 54.5t62.5 23.5q39 0 79.5 -36t76.5 -80t64.5 -80t45.5 -36q16 0 16 29q0 66 -22.5 128t-22.5 124q0 90 86 90q35 0 59.5 -23.5t24.5 -66.5q0 -31 -8 -61.5 t-18.5 -62.5t-18.5 -64.5t-8 -65.5q0 -27 18 -27q20 0 51 36t67 80t75 80t76 36q41 0 63.5 -26t22.5 -54q0 -41 -48.5 -73t-105.5 -56.5t-105.5 -44t-48.5 -37.5q2 -10 25 -14.5t53 -4.5h119q92 0 138 -20.5t46 -73.5q0 -29 -22.5 -52.5t-65.5 -23.5q-37 0 -78 17.5 t-80.5 38t-76.5 38t-64 17.5q-14 0 -14 -14q0 -20 27.5 -53t61.5 -71t62.5 -76t28.5 -67q0 -37 -25.5 -62.5t-54.5 -25.5q-37 0 -60.5 25t-39.5 60.5t-25.5 78.5t-17.5 79t-16.5 60.5t-20.5 24.5q-14 0 -22.5 -24.5t-16.5 -60.5t-18.5 -79t-25.5 -78.5t-37.5 -60.5 t-57.5 -25t-59.5 25t-24.5 59q0 33 28.5 74t64.5 81t64.5 71.5t28.5 44.5q0 14 -20 14q-23 0 -58.5 -17.5t-77.5 -38t-84 -38t-77 -17.5q-41 0 -65.5 26t-24.5 56z" />
<glyph unicode="+" horiz-adv-x="1142" d="M195 651v150h423v405h158v-405h428v-150h-428v-405h-158v405h-423z" />
<glyph unicode="," horiz-adv-x="704" d="M137 -240q129 66 171 119t42 94q0 29 -26 29q-61 0 -92 34t-31 95q0 74 52 118t128 44q176 0 176 -168q0 -147 -99.5 -256t-273.5 -186z" />
<glyph unicode="-" horiz-adv-x="702" d="M145 506l29 160h586l-29 -160h-586z" />
<glyph unicode="." horiz-adv-x="675" d="M195 145q0 66 47 114t114 48q66 0 114 -48t48 -114q0 -68 -48 -114.5t-114 -46.5q-68 0 -114.5 47t-46.5 114z" />
<glyph unicode="/" horiz-adv-x="892" d="M43 -61l893 1585h166l-893 -1585h-166z" />
<glyph unicode="0" horiz-adv-x="1470" d="M205 469q0 209 51 381t148.5 293t235.5 187.5t314 66.5q137 0 239.5 -25.5t170.5 -86t100.5 -162t32.5 -251.5q0 -197 -48 -362.5t-141.5 -286.5t-229.5 -188.5t-310 -67.5q-145 0 -250.5 23.5t-175.5 81t-103.5 154t-33.5 243.5zM506 440q0 -94 13 -156.5t44 -100.5 t80 -53t121 -15q111 0 191.5 75.5t134 190.5t79 253t25.5 261q0 186 -55.5 273t-198.5 87q-76 0 -137.5 -42t-109.5 -109.5t-84 -154.5t-58.5 -177t-33.5 -177t-11 -155z" />
<glyph unicode="1" horiz-adv-x="1038" d="M141 0q4 20 9.5 57t9.5 60q260 0 274 88l152 846h-279l10 110q295 6 447 244l197 -23q-16 -55 -26.5 -94t-16.5 -74l-181 -1021q0 -76 207 -76l-18 -117h-785z" />
<glyph unicode="2" horiz-adv-x="1366" d="M115 0q45 137 109.5 233.5t140 165t157.5 116.5t161 88t149.5 78t124 86t85 113.5t31.5 159.5q0 111 -60.5 168.5t-176.5 57.5q-119 0 -185.5 -39t-103.5 -84q41 -2 68.5 -33t27.5 -86q0 -31 -13.5 -58.5t-37 -49t-54 -35t-63.5 -13.5q-137 0 -137 144q0 53 34 120.5 t103.5 126t175 98.5t250.5 40q96 0 184.5 -18.5t155 -58.5t106 -105.5t39.5 -159.5q0 -158 -66.5 -261.5t-168.5 -172t-225 -113.5t-238 -87t-205 -91t-125 -125q82 59 156 79.5t145 20.5q70 0 119 -15.5t91 -34.5t83 -34.5t95 -15.5q18 0 40.5 4t46 20.5t45 46t38.5 82.5 h92q0 -70 -16.5 -137t-54.5 -121.5t-98.5 -88.5t-146.5 -34q-98 0 -158.5 21.5t-111.5 48.5t-109.5 48.5t-156.5 21.5q-80 0 -137.5 -31t-104.5 -86h-100z" />
<glyph unicode="3" horiz-adv-x="1347" d="M156 291q0 82 49 132t123 50q70 0 104.5 -31.5t34.5 -85.5q0 -27 -10.5 -52t-26.5 -45.5t-38.5 -35t-49.5 -16.5q20 -49 103 -80t194 -31q162 0 256 92.5t94 245.5q0 131 -81 190.5t-255 73.5l31 97q72 4 138.5 22.5t118.5 53t83 87t31 123.5q0 86 -53.5 135.5 t-163.5 49.5q-94 0 -171 -28t-132 -87q45 -4 75.5 -32.5t30.5 -76.5q0 -72 -52 -117.5t-122 -45.5q-127 0 -127 133q0 55 31.5 122.5t101.5 126t178.5 97.5t259.5 39q94 0 178.5 -16.5t145.5 -52.5t97 -90t36 -130q0 -143 -100.5 -230t-298.5 -126q168 -25 252 -101t84 -192 q0 -127 -58.5 -219.5t-153 -152.5t-215 -90t-243.5 -30t-213 28t-149.5 73t-88 103t-28.5 120z" />
<glyph unicode="4" horiz-adv-x="1411" d="M164 406l20 122l897 869h285l-145 -824h190l-55 -167h-164l-39 -211q0 -78 176 -78l-18 -117h-748l21 117q256 0 272 92l35 197h-727zM422 573h498l104 584z" />
<glyph unicode="5" horiz-adv-x="1378" d="M156 307q0 74 49 124t125 50q68 0 102.5 -34.5t34.5 -92.5q0 -25 -11.5 -50t-28.5 -44.5t-39.5 -33t-45.5 -15.5q14 -51 89 -83t198 -32q86 0 160.5 32t129 90t86 141t31.5 186q0 129 -60.5 204.5t-195.5 75.5q-98 0 -188 -21.5t-182 -64.5l-82 66l159 592 q53 -8 120 -14.5t136.5 -10.5t138 -6t126.5 -2q104 0 215.5 12.5t206.5 34.5l-11 -68q-98 -100 -232 -151t-269 -51q-29 0 -69 2t-84 8t-88 16.5t-81 26.5l-84 -309q92 45 187.5 62.5t193.5 17.5q133 0 222 -32t143.5 -88.5t77 -133t22.5 -166.5q0 -141 -60.5 -250 t-160 -181.5t-228.5 -109.5t-266 -37q-113 0 -203 26.5t-153.5 73t-97 108t-33.5 132.5z" />
<glyph unicode="6" horiz-adv-x="1363" d="M209 496q0 96 17.5 199.5t56.5 203.5t98 190.5t144 159t194.5 108.5t249.5 40q98 0 181 -22.5t141.5 -62.5t91 -95.5t32.5 -118.5q0 -80 -47 -132.5t-119 -52.5t-106.5 32t-34.5 87q0 25 10 49.5t27.5 44t39 31.5t46.5 14q-23 47 -88.5 75t-151.5 28q-94 0 -167.5 -26.5 t-131 -93.5t-99.5 -178.5t-73 -283.5q72 86 179.5 130t244.5 44q193 0 290 -94t97 -260q0 -96 -32.5 -193.5t-106.5 -175t-194.5 -127t-295.5 -49.5q-123 0 -215 25.5t-154.5 87t-93 163t-30.5 253.5zM485 348q0 -74 16.5 -125t45 -82.5t67.5 -45t86 -13.5q68 0 129.5 28.5 t109.5 81t76.5 125t28.5 160.5q0 70 -17 118t-48 77.5t-73 43t-89 13.5q-66 0 -125 -27.5t-105 -78t-74 -121t-28 -154.5z" />
<glyph unicode="7" horiz-adv-x="1210" d="M283 1042q0 70 16 139.5t53 123t97.5 87t148.5 33.5q66 0 113 -10t85 -26.5t71.5 -34t71.5 -33.5t86 -26.5t116 -10.5q63 0 107 26.5t95 86.5l48 -103q-166 -152 -278 -265.5t-182.5 -215.5t-109.5 -208.5t-63 -244.5q-10 -61 -13.5 -129.5t-18.5 -125t-55 -94.5 t-122 -38q-86 0 -124 45t-38 125q0 156 61.5 300.5t161 271.5t227.5 234.5t261 189.5q-53 -25 -99.5 -33t-78.5 -8q-61 0 -108.5 16t-88.5 36.5t-78 37t-80 16.5q-25 0 -51.5 -5t-51 -21.5t-47 -48t-40.5 -87.5h-92z" />
<glyph unicode="8" horiz-adv-x="1386" d="M170 313q0 61 26.5 126t77 120t124 99t169.5 67q-45 20 -84 47t-68.5 61.5t-47 82t-17.5 106.5q0 94 49.5 164.5t129 117t184 70t215.5 23.5q106 0 193 -17.5t150.5 -54.5t98.5 -94t35 -137q0 -106 -87 -199.5t-253 -136.5q135 -39 206.5 -119t71.5 -205q0 -121 -53 -208 t-142 -145t-207 -86t-247 -28q-117 0 -214 20.5t-165.5 62.5t-106.5 107.5t-38 155.5zM410 334q0 -229 280 -230q174 0 269.5 66t95.5 201q0 68 -36 110.5t-91.5 72.5t-121 52t-122.5 47q-123 -41 -198.5 -118.5t-75.5 -200.5zM637 1053q0 -43 21.5 -76t60.5 -59.5 t90.5 -48.5t110.5 -42q51 16 96 38t78.5 51.5t53 71.5t19.5 97q0 80 -52 130.5t-179 50.5q-137 0 -218 -57.5t-81 -155.5z" />
<glyph unicode="9" horiz-adv-x="1363" d="M176 279q0 72 49 121t123 49q68 0 102.5 -33t34.5 -88q0 -25 -10 -49.5t-27.5 -43t-39 -30.5t-46.5 -15q23 -47 94.5 -74.5t178.5 -27.5q84 0 151.5 26.5t121 92t94 177.5t71.5 284q-72 -86 -173 -130t-212 -44q-219 0 -320.5 100t-101.5 274q0 88 33 182.5t106.5 171 t192.5 126t291 49.5q125 0 219 -25.5t156.5 -85t93.5 -156t31 -235.5q0 -100 -17.5 -208.5t-54.5 -211t-96.5 -195t-144.5 -162t-196.5 -110.5t-252.5 -41q-98 0 -181.5 20.5t-142.5 60.5t-93 98.5t-34 132.5zM555 895q0 -76 18.5 -126t49 -81t72.5 -43t89 -12 q63 0 122 27.5t105 77.5t73.5 121t27.5 155q0 147 -60.5 206.5t-158.5 59.5q-61 0 -122.5 -29.5t-109 -81t-77 -122t-29.5 -152.5z" />
<glyph unicode=":" horiz-adv-x="684" d="M203 145q0 66 47 114t115 48q66 0 112.5 -48t46.5 -114q0 -68 -47 -114.5t-112 -46.5q-68 0 -115 47t-47 114zM319 807q0 66 48.5 114t113.5 48q68 0 115 -48t47 -114t-47 -114t-115 -48q-66 0 -114 48t-48 114z" />
<glyph unicode=";" horiz-adv-x="704" d="M137 -240q129 66 171 119t42 94q0 29 -26 29q-61 0 -92 34t-31 95q0 74 52 118t134 44q74 0 122 -41t48 -127q0 -147 -99.5 -256t-273.5 -186zM332 807q0 66 48 114t116 48q66 0 112.5 -48.5t46.5 -113.5q0 -66 -47 -114t-112 -48q-68 0 -116 48t-48 114z" />
<glyph unicode="&#x3c;" horiz-adv-x="917" d="M203 719l762 411l59 -90l-496 -321l492 -330l-55 -84z" />
<glyph unicode="=" horiz-adv-x="923" d="M154 418v155h870v-155h-870zM154 874v154h870v-154h-870z" />
<glyph unicode="&#x3e;" horiz-adv-x="913" d="M145 389l490 330l-490 321l56 93l762 -414l-760 -414z" />
<glyph unicode="?" horiz-adv-x="1208" d="M299 1184q0 49 30.5 113.5t98.5 122t173.5 96t254.5 38.5q102 0 189.5 -14t151 -49t99 -93.5t35.5 -146.5q0 -96 -35.5 -162.5t-93 -118.5t-128 -97.5t-138.5 -96.5t-126 -116.5t-91 -159.5h-133q2 35 10 69.5t20 61.5q47 102 114 174t127.5 134t103.5 131t43 165 q0 92 -56.5 140t-156.5 48q-66 0 -110 -10t-77 -25.5t-54.5 -36t-39.5 -40.5q47 -2 77.5 -34t30.5 -87q0 -31 -14 -60.5t-37.5 -52t-54.5 -36t-63 -13.5q-78 0 -114 41t-36 115zM436 145q0 66 47 113t115 47q66 0 114 -47t48 -113q0 -68 -48 -114.5t-114 -46.5 q-68 0 -115 47t-47 114z" />
<glyph unicode="@" horiz-adv-x="2066" d="M231 395q0 205 79 388.5t219.5 320.5t333 217t417.5 80q389 0 576.5 -152.5t187.5 -441.5q0 -158 -48 -276.5t-123 -198.5t-165 -120t-174 -40q-92 0 -132 38t-48 99q-45 -66 -125 -105.5t-178 -39.5q-123 0 -202 66.5t-79 207.5q0 119 40 212t106.5 157.5t150.5 99.5 t172 35q98 0 154.5 -35t79.5 -88l77 103h107l-162 -510q-14 -41 -14 -78q0 -70 78 -70q80 0 137 59.5t93 144.5t52.5 176t16.5 155q0 119 -40 210t-116 152.5t-182.5 93t-239.5 31.5q-178 0 -325.5 -72.5t-253 -194.5t-164 -277.5t-58.5 -321.5q0 -158 39 -275.5 t109.5 -196.5t169 -119t215.5 -40q193 0 344 41t282 129l52 -102q-150 -104 -326 -152.5t-375 -48.5q-174 0 -314 44t-238.5 135t-152 230.5t-53.5 329.5zM963 444q0 -59 8 -97t25.5 -58.5t44 -27.5t65.5 -7q61 0 109.5 46t82 111.5t51 140.5t17.5 132q0 102 -32.5 137 t-104.5 35q-45 0 -92 -32.5t-86 -90t-63.5 -132.5t-24.5 -157z" />
<glyph unicode="A" d="M78 0l20 121q158 0 191 57l762 1344h301l266 -1342q12 -61 162 -61l-21 -119h-762l21 119h190q37 0 51.5 13t14.5 40l-45 229h-641l-115 -204q-12 -23 -12 -35q0 -43 86 -43h125l-21 -119h-573zM666 553h534l-137 723z" />
<glyph unicode="B" horiz-adv-x="1732" d="M78 0l20 119q78 0 135.5 23.5t67.5 70.5l193 1104q0 78 -172 78l24 127h879q100 0 188 -10.5t153.5 -44t104.5 -95t39 -164.5q0 -80 -28.5 -144.5t-78 -113.5t-116 -84t-141.5 -53q160 -16 251 -94t91 -246q0 -123 -52.5 -212t-143.5 -147.5t-216 -86t-268 -27.5h-930z M610 170h396q88 0 153.5 27.5t109.5 73.5t65.5 107.5t21.5 129.5q0 125 -65.5 173t-184.5 48h-395zM735 866h338q63 0 118.5 18.5t95.5 54.5t63.5 91t23.5 129q0 98 -55 141t-160 43h-340z" />
<glyph unicode="C" horiz-adv-x="1650" d="M193 616q0 176 63 345t183 301.5t291 212t384 79.5q190 0 305 -49t164 -112l78 129h154l-91 -502l-155 -12q-6 82 -34 151.5t-79 120.5t-128 80t-181 29q-156 0 -272.5 -67t-194.5 -174.5t-117 -242.5t-39 -272q0 -129 29 -221.5t83 -150.5t130 -84.5t168 -26.5 q217 0 356.5 99t227.5 279l145 -47q-47 -98 -114.5 -190t-162 -164t-215 -116t-272.5 -44q-158 0 -287 37t-223 116t-145 201.5t-51 294.5z" />
<glyph unicode="D" horiz-adv-x="1748" d="M78 0l18 119q78 0 135.5 23.5t67.5 70.5l195 1100q0 88 -170 88l22 121h795q168 0 296 -20.5t214 -80t130 -166t44 -280.5q0 -233 -63.5 -415.5t-183.5 -306.5t-293 -188.5t-394 -64.5h-813zM608 160h322q96 0 177 36.5t144.5 99t110.5 144.5t77.5 173.5t46 184.5 t15.5 177q0 109 -18.5 182.5t-58.5 118.5t-101 64.5t-147 19.5h-355z" />
<glyph unicode="E" horiz-adv-x="1609" d="M78 0l20 119q86 0 140.5 23.5t62.5 70.5l193 1110q0 80 -170 80l22 119h1385l-82 -463l-144 -8q0 66 -9 123t-33.5 99t-66.5 65.5t-106 23.5h-469l-86 -496h238q125 0 186 248h131l-143 -639h-125q0 137 -15.5 195.5t-74.5 58.5h-221l-101 -569h391q354 0 467 438 l148 -14l-154 -584h-1384z" />
<glyph unicode="F" horiz-adv-x="1533" d="M78 0l20 119q78 0 135.5 23.5t67.5 70.5l193 1100q0 90 -170 90l22 119h1383l-82 -463l-134 -8q0 76 -8 134t-30.5 97t-63.5 59.5t-106 20.5h-484l-96 -543h256q125 0 193 262h126l-151 -680h-121q0 76 -3 127.5t-12 83t-26.5 45t-46.5 13.5h-242l-82 -469q0 -82 234 -82 l-21 -119h-751z" />
<glyph unicode="G" d="M190 645q0 174 67 338t186.5 291t288.5 203.5t374 76.5q199 0 315.5 -49t165.5 -112l76 129h154l-91 -502l-153 -12q-8 82 -36 151.5t-79 120.5t-128 80t-183 29q-154 0 -270.5 -67t-195.5 -173.5t-119 -239.5t-40 -264q0 -137 30 -232.5t84 -154.5t131 -86t169 -27 q88 0 168 22.5t142.5 61.5t103.5 89.5t51 105.5l20 117q0 47 -48 65.5t-126 18.5l23 118h639l-23 -118q-190 0 -205 -95l-92 -530h-209l-20 154q-35 -35 -84 -69t-111.5 -60.5t-141.5 -42t-173 -15.5q-139 0 -259 37t-209 118t-140.5 210t-51.5 313z" />
<glyph unicode="H" horiz-adv-x="1873" d="M78 0l20 119q86 0 140.5 23.5t62.5 70.5l193 1110q0 80 -170 80l22 119h701l-23 -119q-199 0 -213 -94l-76 -437h711l78 451q0 80 -183 80l23 119h702l-22 -119q-190 0 -205 -94l-194 -1112q0 -78 174 -78l-21 -119h-702l18 119q86 0 145.5 23.5t69.5 70.5l90 510h-710 l-93 -526q0 -78 183 -78l-21 -119h-700z" />
<glyph unicode="I" horiz-adv-x="890" d="M98 0l21 119q92 0 144 23.5t61 70.5l192 1110q0 80 -172 80l23 119h692l-23 -119q-188 0 -202 -94l-195 -1112q0 -78 172 -78l-20 -119h-693z" />
<glyph unicode="J" horiz-adv-x="1384" d="M129 313q0 45 14.5 85t41 71t66.5 48.5t89 17.5q149 0 149 -138q0 -61 -41.5 -107t-121.5 -50q4 -57 76.5 -92t175.5 -35q57 0 108 20.5t94 68.5t76 124.5t53 189.5l142 807q0 80 -172 80l22 119h692l-22 -119q-190 0 -205 -94l-141 -807q-47 -264 -218 -399.5 t-427 -135.5q-229 0 -340 93.5t-111 252.5z" />
<glyph unicode="K" horiz-adv-x="1945" d="M78 0l18 119q66 0 105 10t61.5 31.5t32.5 53.5t18 77l181 1032q0 78 -170 78l22 121h688l-22 -121q-68 0 -107 -10.5t-60.5 -32t-30.5 -52t-15 -71.5l-84 -475l659 500q29 23 45.5 43t16.5 45q0 23 -17.5 38t-58.5 15h-78l23 121h684l-23 -121q-88 -2 -153.5 -27.5 t-120.5 -66.5l-412 -314l348 -704q20 -41 40 -73t44.5 -53.5t56 -32.5t74.5 -11h55l-18 -119h-801l21 119h155q41 0 57.5 14t16.5 41q0 20 -12 49l-277 600l-362 -272l-62 -354q0 -78 170 -78l-20 -119h-688z" />
<glyph unicode="L" horiz-adv-x="1570" d="M78 0l20 119q88 0 141.5 23.5t61.5 70.5l193 1110q0 80 -170 80l22 119h735l-22 -119q-233 0 -248 -94l-201 -1149h408q80 0 147.5 20.5t121.5 71.5t97 135t76 211l135 -14l-153 -584h-1364z" />
<glyph unicode="M" horiz-adv-x="2197" d="M78 0l20 119q86 0 140.5 23.5t62.5 70.5l193 1110q0 80 -170 80l22 119h610l205 -1198l627 1198h602l-23 -119q-190 0 -204 -94l-195 -1112q0 -78 174 -78l-20 -119h-684l20 119q78 0 135.5 23.5t67.5 70.5l188 1075l-684 -1288h-270l-233 1288l-193 -1091q0 -78 172 -78 l-20 -119h-543z" />
<glyph unicode="N" horiz-adv-x="1851" d="M78 0l20 119q88 0 141.5 23.5t61.5 70.5l193 1110q0 80 -170 80l22 119h555l578 -1289l188 1090q0 80 -170 80l23 119h546l-22 -119q-188 0 -203 -94l-229 -1309h-385l-572 1255l-184 -1056q0 -80 170 -80l-18 -119h-545z" />
<glyph unicode="O" horiz-adv-x="1738" d="M184 637q0 182 62.5 348t181.5 293t290 201.5t386 74.5q164 0 296 -35.5t224 -112.5t141.5 -197.5t49.5 -290.5q0 -195 -62.5 -367t-180.5 -302t-287 -206t-380 -76q-166 0 -300 37t-227 118t-143.5 208t-50.5 307zM512 625q0 -141 25.5 -234.5t78 -149t128 -79 t178.5 -23.5q150 0 259 65.5t180 174t104.5 251t33.5 294.5q0 131 -26.5 219t-76.5 142t-125 77.5t-173 23.5q-158 0 -268.5 -67.5t-181 -176t-103.5 -244.5t-33 -273z" />
<glyph unicode="P" horiz-adv-x="1576" d="M78 0l18 119q82 0 137.5 23.5t65.5 70.5l195 1110q0 78 -170 78l22 121h832q117 0 212 -17.5t164.5 -62.5t107.5 -124t38 -200q0 -135 -53.5 -232.5t-143.5 -158.5t-209.5 -90t-253.5 -29h-352l-72 -409q0 -80 218 -80l-21 -119h-735zM719 778h264q193 0 294 88t101 242 q0 125 -62.5 183.5t-209.5 58.5h-287z" />
<glyph unicode="Q" horiz-adv-x="1773" d="M184 627q0 184 62.5 353t181.5 296t290 202.5t386 75.5q164 0 296 -34.5t224 -110.5t141.5 -195.5t49.5 -289.5q0 -143 -35 -275.5t-99.5 -245t-159 -201.5t-212.5 -147q53 -70 106 -96.5t113 -26.5q94 0 137 56l53 -64q-35 -61 -111.5 -108t-174.5 -47q-129 0 -208 55 t-145 160q-45 -8 -88 -12.5t-86 -4.5q-166 0 -300 35t-227 113t-143.5 203.5t-50.5 308.5zM514 633q0 -61 4 -118.5t21 -104.5q66 57 133 83.5t147 26.5q70 0 122 -18.5t95 -52t82 -83t80 -110.5q78 43 134.5 112.5t93 157.5t55 188.5t18.5 209.5q0 131 -26.5 219t-78 141 t-126 76.5t-170.5 23.5q-158 0 -268.5 -64.5t-180 -171t-102.5 -240.5t-33 -275zM565 311q47 -92 133 -133t203 -41q25 0 51 2t49 6q-35 61 -62.5 105.5t-56 73t-61.5 42t-78 13.5q-49 0 -91 -15.5t-87 -52.5z" />
<glyph unicode="R" horiz-adv-x="1755" d="M78 0l20 119q82 0 138.5 23.5t64.5 70.5l193 1110q0 80 -170 80l22 119h897q90 0 176 -11.5t153.5 -49.5t108.5 -109.5t41 -190.5q0 -76 -32.5 -138t-85 -109.5t-118 -79t-128.5 -46.5q82 -29 130 -89t48 -175q0 -29 -4 -63.5t-8 -63.5l-31 -161q-4 -23 -5 -33t-1 -19 q0 -63 57 -63q16 0 43 21.5t37 66.5l18 98h111l-14 -84q-18 -104 -84 -170.5t-201 -66.5q-84 0 -137 15t-85 44t-44 72t-12 98q0 35 8 66l20 118q6 39 10.5 74t4.5 66q0 100 -41 145t-134 45h-333l-95 -530q0 -80 218 -80l-21 -119h-735zM735 866h330q141 0 231 70t90 207 q0 113 -56 161t-167 48h-344z" />
<glyph unicode="S" horiz-adv-x="1480" d="M78 0l98 563l141 12q0 -100 34 -181t96.5 -137t149.5 -87t196 -31q92 0 170.5 15.5t137 48.5t91.5 84t33 123q0 61 -41 99t-107.5 62.5t-151.5 42t-174 37t-174 47t-152 75.5t-108 121t-41 181q0 86 32 172t104.5 154.5t190.5 110.5t290 42q74 0 133 -9t106.5 -23.5 t86 -31.5t71.5 -34q39 -20 70 -20q23 0 60.5 25.5t64.5 60.5h108l-94 -535l-141 -18q0 211 -119 313t-330 102q-184 0 -282.5 -63.5t-98.5 -185.5q0 -57 41 -92t108.5 -57.5t155 -38t176.5 -36t176 -50.5t154.5 -81t108.5 -129t41 -192q0 -115 -50 -206t-138.5 -154.5 t-211 -97.5t-266.5 -34q-158 0 -261 32t-175 83q-27 20 -57 20q-37 0 -61.5 -28.5t-53.5 -73.5h-137z" />
<glyph unicode="T" horiz-adv-x="1716" d="M236 895l110 627h1563l-111 -627l-131 -6q6 51 8 95t2 83q0 84 -14 141.5t-43 91t-72 48t-100 14.5h-191l-202 -1165q0 -78 174 -78l-21 -119h-694l21 119q82 0 137 23.5t65 70.5l203 1149h-190q-72 0 -128.5 -22.5t-102.5 -76t-84 -145.5t-70 -229z" />
<glyph unicode="U" horiz-adv-x="1818" d="M324 1401l20 119h729l-20 -119q-123 0 -178.5 -23.5t-63.5 -70.5l-121 -686q-18 -98 -18 -189q0 -63 14 -116.5t49 -92.5t93.5 -60.5t148.5 -21.5q125 0 214 29t149.5 88t96.5 149.5t58 213.5l123 698q0 82 -213 82l20 119h588l-20 -119q-188 0 -203 -94l-121 -686 q-55 -309 -230 -481.5t-497 -172.5q-162 0 -273.5 34t-181 97.5t-100.5 151.5t-31 196q0 41 4.5 84t12.5 91l121 700q0 80 -170 80z" />
<glyph unicode="V" d="M324 1401l22 121h752l-23 -121h-184q-66 0 -66 -37q0 -16 3 -35.5t8 -42.5l200 -1040l594 1077q10 20 10 37q0 41 -86 41h-129l23 121h577l-20 -121q-96 0 -137 -15.5t-58 -44.5l-757 -1341h-301q-70 342 -135.5 669.5t-133.5 669.5q-12 61 -159 62z" />
<glyph unicode="W" horiz-adv-x="2533" d="M324 1401l22 121h672l-23 -121h-149q-59 0 -62 -37l113 -1118l485 983q20 43 21 88q0 39 -32 61.5t-103 22.5l22 121h645l-22 -121h-150q-55 0 -61 -39l156 -1116l495 1077q8 14 8 37q0 41 -73 41h-103l23 121h520l-23 -121q-45 0 -77.5 -8.5t-58 -26.5t-46 -47 t-39.5 -70l-600 -1249h-301l-151 991l-508 -991h-306l-145 1264q-4 23 -13 47t-26.5 43.5t-44.5 33t-65 13.5z" />
<glyph unicode="X" horiz-adv-x="1830" d="M78 0l20 119h10q64 1 118 23q58 24 112 77l575 551l-299 530q-31 53 -70.5 78t-117.5 25l23 119h718l-22 -119h-117q-63 0 -63 -49q0 -20 18 -54l186 -346l324 320q20 20 32.5 41.5t12.5 42.5q0 45 -80 45h-102l22 119h609l-23 -119q-70 -2 -133.5 -27.5t-114.5 -72.5 l-479 -461l352 -619q31 -53 69 -78.5t118 -25.5l-21 -119h-772l21 119h165q63 0 64 51q0 16 -16 53l-238 434l-416 -409q-23 -23 -36 -43.5t-13 -42.5q0 -43 86 -43h150l-21 -119h-651z" />
<glyph unicode="Y" horiz-adv-x="1720" d="M305 1403l23 119h762l-23 -119h-170q-29 0 -47.5 -10.5t-18.5 -30.5q0 -16 9 -31l245 -526l437 520q12 14 12 35q0 43 -78 43h-102l22 119h545l-23 -121q-74 0 -118.5 -15.5t-67.5 -42.5l-594 -686l-80 -458q0 -80 195 -80l-21 -119h-737l21 119q205 0 225 94l80 444 l-342 684q-18 35 -56 48.5t-98 13.5z" />
<glyph unicode="Z" horiz-adv-x="1521" d="M59 0l29 168l1182 1194h-475q-78 0 -136.5 -27.5t-104.5 -85t-83 -146.5t-74 -214l-129 6l111 627h1292l-31 -166l-1159 -1196h455q174 0 286.5 110.5t180.5 356.5l137 -15l-160 -612h-1321z" />
<glyph unicode="[" horiz-adv-x="772" d="M154 -416l372 2116h469l-22 -121h-277l-329 -1866h278l-22 -129h-469z" />
<glyph unicode="\" horiz-adv-x="892" d="M324 1524h163l334 -1585h-170z" />
<glyph unicode="]" horiz-adv-x="784" d="M4 -416l23 129h278l330 1866h-281l23 121h467l-373 -2116h-467z" />
<glyph unicode="^" horiz-adv-x="841" d="M244 948l397 574h100l189 -574h-131l-133 422l-285 -422h-137z" />
<glyph unicode="_" horiz-adv-x="1243" d="M-16 -270l22 139h1184l-25 -139h-1181z" />
<glyph unicode="`" horiz-adv-x="722" d="M319 1366q0 35 30 69.5t102 34.5q45 0 91 -22.5t95 -56t103.5 -71.5t119.5 -69l-53 -71q-84 27 -170 41t-156.5 31.5t-116 42t-45.5 71.5z" />
<glyph unicode="a" horiz-adv-x="1421" d="M119 201q0 102 40 167.5t107.5 107.5t155.5 66.5t184 41t192.5 32t182.5 41.5q6 33 10 65t4 54q0 88 -50 141.5t-161 53.5q-94 0 -174 -21.5t-127 -56.5q41 -4 70 -25.5t29 -66.5q0 -59 -48.5 -101.5t-121.5 -42.5q-66 0 -97.5 31t-31.5 82q0 55 36.5 110.5t107.5 100.5 t171 73.5t229 28.5q82 0 162 -15t142.5 -52t100.5 -96.5t38 -145.5q-2 -18 -3 -39.5t-5 -44.5l-86 -485q-2 -10 -4.5 -20.5t-2.5 -16.5q0 -57 52 -57q27 0 44 21.5t26 53t15.5 68.5t12.5 68h96l-29 -138q-31 -111 -91 -154.5t-152 -43.5q-61 0 -100 19.5t-63 49t-33 66.5 t-9 72q-33 -47 -84 -88.5t-113.5 -72t-136.5 -48t-149 -17.5q-178 0 -257 61.5t-79 172.5zM391 256q0 -63 42 -94t140 -31q113 0 203 48t144 114l49 287q-145 -37 -254 -67t-180.5 -63.5t-107.5 -78.5t-36 -115z" />
<glyph unicode="b" horiz-adv-x="1400" d="M184 0l242 1382q0 78 -166 78l21 117h467l-113 -643q55 72 151.5 109.5t208.5 37.5q92 0 171 -18.5t138.5 -67.5t93.5 -134t34 -218q0 -121 -38 -241.5t-113 -218t-189.5 -158t-268.5 -60.5q-76 0 -140.5 18.5t-113.5 49t-80.5 70.5t-39.5 83l-99 -186h-166zM522 387 q0 -129 57.5 -202.5t202.5 -73.5q94 0 163 51t114 130t66.5 173t21.5 178q0 147 -51 224t-174 77q-111 0 -187 -51t-123 -132t-68.5 -180.5t-21.5 -193.5z" />
<glyph unicode="c" horiz-adv-x="1216" d="M166 449q0 111 46 223t133 203.5t210 149.5t276 58q100 0 181.5 -21.5t136.5 -59t85 -88t30 -107.5q0 -72 -45 -121t-115 -49q-72 0 -105.5 30.5t-33.5 84.5q0 53 41 91t100 42q-29 39 -83 61.5t-163 22.5q-82 0 -155.5 -36t-130 -102.5t-89 -162t-32.5 -213.5 q0 -102 19.5 -170t54 -110t82.5 -59.5t106 -17.5q111 0 204 62.5t142 210.5l141 -15q-25 -74 -70 -143.5t-110.5 -124.5t-150.5 -89t-189 -34q-121 0 -216 25.5t-161.5 83t-102.5 149.5t-36 226z" />
<glyph unicode="d" horiz-adv-x="1490" d="M158 432q0 117 44 233.5t124 210t192.5 150.5t249.5 57q135 0 221 -26.5t127 -73.5l70 401q0 78 -166 78l20 115h465l-243 -1382q0 -78 170 -78l-19 -117h-393l12 170q-66 -104 -177.5 -154.5t-240.5 -50.5q-96 0 -180 24.5t-145.5 80t-96 144.5t-34.5 218zM446 446 q0 -166 60.5 -247.5t214.5 -81.5q92 0 159.5 52t110.5 131t64.5 173t21.5 178q0 147 -56.5 223t-199.5 76q-96 0 -166.5 -49t-116.5 -125t-69 -164t-23 -166z" />
<glyph unicode="e" horiz-adv-x="1267" d="M166 430q0 137 50 257t139 208t213 138t272 50q233 0 342.5 -108.5t109.5 -300.5q0 -33 -2 -68t-10 -69h-819q-4 -25 -6 -58t-2 -61q0 -70 12 -128.5t41 -101.5t78 -66.5t123 -23.5q111 0 207 56.5t155 187.5l137 -25q-31 -68 -79 -131t-114.5 -112t-152.5 -79t-190 -30 q-100 0 -191.5 20.5t-161 73t-110.5 142.5t-41 229zM481 645h561q6 37 7 78q0 47 -12.5 92t-38 79t-67.5 54.5t-102 20.5q-117 0 -210 -79t-138 -245z" />
<glyph unicode="f" horiz-adv-x="1001" d="M84 0l18 117q180 0 197 92l127 709h-184l18 98q37 8 83 15t99 11l35 195q35 195 158 277.5t307 82.5q154 0 247 -56t93 -173q0 -31 -9 -61.5t-29.5 -55t-53.5 -39t-78 -14.5q-70 0 -100.5 29.5t-30.5 72.5q0 57 40 92t101 42q-33 57 -166 57q-76 0 -119.5 -39t-60.5 -125 l-49 -285h334l-37 -147q-129 12 -207 17.5t-110 5.5l-127 -721q0 -80 264 -80l-21 -117h-739z" />
<glyph unicode="g" horiz-adv-x="1579" d="M39 -229q0 57 27.5 100t71.5 72.5t101.5 45t116.5 15.5l25 -59q-59 -14 -88 -59.5t-29 -94.5q0 -66 90 -114t264 -48q223 0 333 59.5t110 164.5q0 37 -14.5 65.5t-52.5 50t-102.5 35.5t-162.5 25q-125 12 -218 25.5t-155.5 32.5t-93.5 50t-31 80q0 53 34 105.5t108 93.5 q-41 35 -65.5 90t-24.5 137q0 100 43 175t117.5 125t176 74.5t218.5 24.5q82 0 178 -16t170 -63q66 57 126 78.5t124 21.5q37 0 76.5 -11.5t73.5 -38t55.5 -68.5t21.5 -103q0 -80 -46 -129t-120 -49q-57 0 -87 28.5t-30 79.5q0 53 45 88t111 35q-8 35 -49 54.5t-90 19.5 q-31 0 -64 -13.5t-82 -48.5q61 -68 62 -170q0 -111 -49.5 -189.5t-131 -127.5t-188 -72.5t-221.5 -23.5q-68 0 -136.5 7t-127.5 31q-33 -14 -40 -28.5t-7 -28.5q0 -16 13 -29.5t55 -26.5t121 -25.5t212 -24.5q141 -14 234.5 -37t147.5 -57.5t76.5 -85t22.5 -117.5 q0 -172 -175 -271.5t-513 -99.5q-291 0 -429 52t-138 188zM516 637q0 -119 57.5 -166t167.5 -47q68 0 126.5 25.5t100.5 68.5t65.5 98.5t23.5 116.5q0 117 -63.5 162t-170.5 45q-76 0 -133 -25.5t-96 -67.5t-58.5 -97.5t-19.5 -112.5z" />
<glyph unicode="h" horiz-adv-x="1587" d="M82 0l18 117q180 0 197 92l207 1173q0 80 -164 80l20 115h461l-131 -743q98 100 223 164.5t279 64.5q131 0 201.5 -55.5t70.5 -171.5q-2 -16 -2 -36t-4 -42l-100 -563q0 -78 170 -78l-21 -117h-608l21 117q61 0 104 22.5t53 69.5l82 459q4 29 7 55.5t3 52.5 q0 131 -112 131q-51 0 -107.5 -20.5t-110 -57t-101.5 -87t-81 -107.5l-79 -447q0 -71 124 -71h3l-19 -117h-604z" />
<glyph unicode="i" horiz-adv-x="806" d="M82 0l18 117q180 0 197 92l113 639q0 80 -166 80l20 114h463l-149 -847q2 -39 43 -58.5t127 -19.5l-21 -117h-645zM461 1386q0 74 52 124.5t124 50.5t123 -51.5t51 -123.5t-50 -124t-124 -52q-37 0 -68.5 14.5t-55.5 38t-38 55.5t-14 68z" />
<glyph unicode="j" horiz-adv-x="864" d="M-96 -266q0 27 9 59.5t29.5 59t53.5 45t80 18.5q72 0 102.5 -30.5t30.5 -73.5q0 -59 -42 -93t-104 -41q16 -29 49 -43t97 -14q66 0 103.5 37t47.5 96l191 1092q0 82 -191 82l21 114h487l-215 -1235q-27 -154 -137 -222t-283 -68q-160 0 -244.5 55t-84.5 162zM606 1386 q0 72 51.5 123.5t124.5 51.5q72 0 123 -51.5t51 -123.5t-50 -124t-124 -52q-37 0 -68.5 14.5t-56 38t-38 55.5t-13.5 68z" />
<glyph unicode="k" horiz-adv-x="1605" d="M82 0l18 117q180 0 197 92l203 1159q0 47 -37 69.5t-125 22.5l20 117h463l-184 -1045l485 306q37 20 37 53q0 35 -49 35h-88l20 116h619l-21 -116q-92 0 -162.5 -22.5t-129.5 -61.5l-254 -164l282 -492q20 -35 57 -52t109 -17l-18 -117h-670l18 117h140q25 0 40 9t15 30 q0 16 -12 39l-197 346l-246 -152l-34 -196q0 -76 161 -76l-18 -117h-639z" />
<glyph unicode="l" horiz-adv-x="806" d="M82 0l18 117q180 0 197 92l207 1173q0 80 -166 80l20 115h463l-243 -1382q0 -78 170 -78l-21 -117h-645z" />
<glyph unicode="m" horiz-adv-x="2260" d="M82 0l18 117q176 0 193 92l113 641q0 76 -162 76l20 116h457l-37 -215q41 47 92 90.5t110.5 75t127 51t145.5 19.5q123 0 187.5 -57.5t64.5 -182.5q92 104 214 172t263 68q123 0 188.5 -52.5t65.5 -168.5q0 -20 -2 -41t-6 -43l-98 -565q0 -76 162 -76l-19 -117h-598 l21 117q57 0 99 22.5t52 69.5l76 420q8 43 12 81t4 68q0 125 -92 125q-57 0 -113.5 -26.5t-106.5 -70.5t-92 -101.5t-71 -118.5l-65 -398q0 -71 117 -71h3l-18 -117h-555l18 117q53 0 98.5 22.5t55.5 69.5l76 422q8 43 12 77.5t4 67.5q0 127 -94 127t-194.5 -71.5 t-176.5 -200.5l-80 -443q0 -71 122 -71h3l-18 -117h-596z" />
<glyph unicode="n" horiz-adv-x="1609" d="M82 0l18 117q180 0 197 92l113 635q0 84 -166 84l20 114h463l-37 -208q98 98 228.5 163.5t283.5 65.5q135 0 210 -52.5t75 -174.5q0 -37 -8 -78l-99 -563q0 -78 168 -78l-18 -117h-606l18 117q55 0 100 22.5t56 69.5l82 455q8 33 8 84q0 29 -5 56t-19.5 50t-37 36 t-57.5 13q-53 0 -110.5 -20.5t-114 -57.5t-105.5 -86t-84 -106l-77 -445q0 -71 124 -71h3l-19 -117h-604z" />
<glyph unicode="o" horiz-adv-x="1310" d="M164 416q0 143 48 266t134 212t205 139t260 50q121 0 220 -23.5t169 -75.5t108 -136t38 -205q0 -141 -48.5 -265t-134.5 -215t-206.5 -144.5t-264.5 -53.5q-117 0 -213 22.5t-166.5 75t-109.5 139.5t-39 214zM446 408q0 -92 16.5 -151.5t50.5 -95.5t82 -50.5t114 -14.5 q86 0 151.5 48.5t109.5 125t67.5 175t23.5 196.5q0 90 -17.5 149.5t-51.5 94.5t-83 49t-110 14q-86 0 -152.5 -49t-110.5 -126t-67 -174t-23 -191z" />
<glyph unicode="p" horiz-adv-x="1429" d="M-63 -483l20 114q86 0 136 22.5t61 70.5l196 1124q0 78 -168 78l21 114h393l-14 -166q72 104 187.5 154.5t258.5 50.5q90 0 169 -23.5t137.5 -74.5t91 -132t32.5 -196q0 -168 -55 -297t-143.5 -217t-199 -133t-220.5 -45q-262 0 -342 102l-62 -352q0 -80 213 -80 l-20 -114h-692zM539 367q0 -61 12 -111.5t43 -85.5t81 -53.5t124 -18.5q94 0 163.5 50.5t115.5 127t68.5 170t22.5 181.5q0 145 -60 225t-212 80q-96 0 -163.5 -53.5t-110.5 -135t-63.5 -182t-20.5 -194.5z" />
<glyph unicode="q" horiz-adv-x="1411" d="M164 406q0 117 36 236.5t110.5 217.5t188 160.5t267.5 62.5q94 0 163.5 -22.5t115 -56t68 -73.5t24.5 -73l96 184h168l-234 -1335q0 -76 168 -76l-20 -114h-697l21 114q227 0 244 93l67 387q-53 -68 -152.5 -108t-207.5 -40q-92 0 -170 19.5t-135.5 68.5t-89 135 t-31.5 220zM442 403q0 -150 56.5 -226.5t201.5 -76.5q94 0 162 51.5t113 129t66.5 171t21.5 177.5q0 150 -58.5 227.5t-201.5 77.5q-96 0 -165 -52.5t-112 -131t-63.5 -172t-20.5 -175.5z" />
<glyph unicode="r" horiz-adv-x="1236" d="M82 0l18 117q180 0 197 92l113 641q0 78 -166 78l20 114h463l-35 -194q82 117 180.5 169t204.5 52q41 0 81 -12.5t73 -38t52.5 -65.5t19.5 -97q0 -92 -48.5 -153.5t-140.5 -61.5q-66 0 -99.5 32t-33.5 79q0 59 43 98t119 41q-10 31 -44 47t-79 16q-80 0 -178.5 -74.5 t-184.5 -230.5l-79 -452q0 -41 50 -60.5t142 -19.5l-20 -117h-668z" />
<glyph unicode="s" horiz-adv-x="1138" d="M82 0l68 395l122 11q0 -66 30 -120.5t80 -94t117.5 -61t143.5 -21.5q111 0 170 45t59 116q0 55 -49 85t-122.5 49.5t-158.5 38t-159 51t-123 89t-49 152.5q0 68 29.5 128.5t86 104.5t139.5 69.5t189 25.5q74 0 131.5 -16.5t101.5 -37t72.5 -37t43.5 -16.5q23 0 35 25 t30 61h117l-66 -376l-127 -13q-6 285 -317 285q-94 0 -158.5 -38t-64.5 -116q0 -55 49 -82.5t122.5 -47t159.5 -36t160 -48t123 -87t49 -149.5q0 -82 -36 -146.5t-97 -108.5t-143 -67.5t-176 -23.5q-242 0 -342 82q-29 23 -56 22q-16 0 -35 -31l-30 -61h-119z" />
<glyph unicode="t" horiz-adv-x="901" d="M242 920l18 96q59 4 112.5 16t97.5 43t76 86.5t48 143.5l8 45l184 14l-57 -322h281l-37 -145q-57 12 -122 17.5t-142 5.5l-127 -713q-2 -8 -2 -15.5v-13.5q0 -67 75 -67h2q47 0 70 25.5t31 66.5l22 119h101l-15 -93q-8 -53 -26.5 -98t-52 -78t-86 -50t-126.5 -17 q-135 0 -204.5 49t-69.5 166q0 33 8 63l117 656h-184z" />
<glyph unicode="u" horiz-adv-x="1544" d="M244 928l20 114h459l-119 -667q-4 -29 -7 -52.5t-3 -48.5q0 -61 27.5 -100t105.5 -39q45 0 94 20.5t96.5 56.5t91.5 85t78 109l76 442q0 80 -168 80l21 114h465l-148 -849q0 -76 148 -76l-19 -117h-446l35 205q-39 -45 -88.5 -86t-106.5 -72t-123.5 -49t-142.5 -18 q-141 0 -214 52t-73 169q0 23 2 43t6 41l99 565q0 78 -166 78z" />
<glyph unicode="v" horiz-adv-x="1458" d="M244 926l20 116h596l-20 -116h-113q-37 0 -52.5 -13.5t-17.5 -38.5l160 -702l402 666q14 20 14 43q0 45 -82 45h-78l21 116h465l-21 -116q-135 0 -174 -70l-508 -856h-268l-211 854q-18 72 -133 72z" />
<glyph unicode="w" horiz-adv-x="2146" d="M244 926l20 116h578l-21 -116h-112q-31 0 -49.5 -13.5t-18.5 -46.5l111 -694l403 666q12 20 12 49q0 39 -63 39h-90l20 116h574l-21 -116h-119q-59 0 -59 -45l160 -709l356 666q4 10 8 21t4 22q0 45 -79 45h-80l20 116h449l-21 -116q-125 0 -162 -70l-458 -856h-260 l-158 684l-410 -684h-262l-145 854q-12 72 -127 72z" />
<glyph unicode="x" horiz-adv-x="1513" d="M82 0l18 117q66 0 131.5 27.5t116.5 68.5l375 309l-238 324q-31 41 -73.5 60.5t-120.5 19.5l20 116h623l-19 -116h-88q-49 0 -49 -35q0 -20 17 -43l137 -195l221 193q29 23 29 49q0 31 -58 31h-75l20 116h498l-21 -116q-137 -4 -227 -78l-328 -270l283 -381 q31 -41 69.5 -60.5t108.5 -19.5l-18 -117h-654l19 117h125q51 0 51 33q0 6 -2 16t-10 20l-185 258l-272 -233q-39 -33 -39 -61q0 -33 65 -33h111l-18 -117h-543z" />
<glyph unicode="y" horiz-adv-x="1417" d="M18 -229q0 16 8.5 44.5t28 57.5t51 49.5t78.5 20.5q72 0 102.5 -29t30.5 -78q0 -18 -7 -40.5t-24.5 -42t-43 -33t-62.5 -15.5q14 -29 46 -48t110 -19q53 0 105.5 34.5t97.5 106.5l67 108l-244 967q-10 35 -46.5 53.5t-90.5 18.5l21 116h581l-20 -116h-102 q-39 0 -53.5 -16.5t-14.5 -45.5l158 -686l395 660q14 20 14 43q0 45 -82 45h-65l20 116h453l-21 -116q-76 0 -114.5 -17.5t-59.5 -52.5l-542 -905q-61 -102 -113.5 -180t-108 -131.5t-121 -80t-153.5 -26.5q-129 0 -204 60.5t-75 177.5z" />
<glyph unicode="z" horiz-adv-x="1239" d="M82 0l18 115l861 803h-289q-70 0 -118 -11.5t-84 -43.5t-64.5 -89t-59.5 -147l-115 12l72 403h1028l-20 -112l-842 -805h295q80 0 134 13.5t93 47t67.5 93t57.5 151.5l119 -12l-88 -418h-1065z" />
<glyph unicode="{" horiz-adv-x="845" d="M260 647l19 101q199 14 223 159l69 406q18 113 67.5 184.5t116 114.5t147.5 62.5t165 25.5l-20 -115q-37 -4 -80 -20.5t-83 -51t-73 -88t-47 -131.5l-68 -387q-29 -162 -172 -213q100 -51 101 -162q0 -12 -1 -25t-3 -28l-89 -502q-8 -27 -8 -63q0 -53 15.5 -93t42 -68.5 t59.5 -45t70 -22.5l-17 -103q-59 2 -123.5 15.5t-118 46t-88 90t-34.5 147.5q0 20 1 43t5 45l90 514q2 10 2 17.5v17.5q0 111 -168 129z" />
<glyph unicode="|" horiz-adv-x="559" d="M156 -238l331 1885h168l-331 -1885h-168z" />
<glyph unicode="}" horiz-adv-x="817" d="M2 -418l18 107q39 6 83 25.5t85 55t73 88t44 124.5l84 477q14 78 55 132t117 83q-102 47 -102 157q0 25 6 56l72 413q8 33 8 74q0 55 -17.5 94t-45 65t-60.5 39t-66 17l19 111q63 -6 127.5 -23.5t117 -52.5t86 -91t33.5 -140q-2 -18 -3 -39t-5 -43l-74 -432 q-2 -10 -3 -17.5t-1 -15.5q0 -113 170 -129l-18 -101q-199 -18 -223 -161l-86 -488q-23 -121 -72 -194.5t-116.5 -115.5t-146.5 -57.5t-159 -17.5z" />
<glyph unicode="~" horiz-adv-x="1296" d="M193 653q27 57 70.5 105.5t96 81t109.5 51t113 18.5q70 0 122 -23.5t100 -51t98 -51t118 -23.5q53 0 111.5 35.5t128.5 122.5l106 -89q-57 -113 -161.5 -183.5t-239.5 -70.5q-66 0 -121.5 24t-106.5 52.5t-101 52t-106 23.5q-53 0 -116.5 -42t-118.5 -107z" />
<glyph unicode="&#xa1;" horiz-adv-x="763" d="M176 -238q0 53 19.5 116t54.5 167.5t83 268t107 419.5h127q-27 -203 -39 -349t-16 -249.5t-5 -170t-3 -111.5q-8 -117 -58.5 -161t-136.5 -44q-63 0 -98 26.5t-35 87.5zM397 1042q0 66 48.5 114t113.5 48q68 0 115 -48t47 -114q0 -68 -47 -114.5t-115 -46.5 q-66 0 -114 47t-48 114z" />
<glyph unicode="&#xa2;" horiz-adv-x="1206" d="M176 659q0 135 47 247t130 195t199 132t253 57l41 232h90l-41 -232q82 -4 151.5 -24.5t121 -56t80 -83t28.5 -104.5q0 -66 -47 -110t-117 -44q-66 0 -99.5 29t-33.5 76t37 86t96 45q-31 33 -84 54.5t-151 25.5l-148 -830q117 4 211 63.5t139 194.5l133 -12 q-25 -66 -66.5 -129t-104 -115.5t-145.5 -87.5t-189 -41l-39 -227h-90l38 227q-100 4 -181 31t-138 79t-89 132t-32 190zM449 672q0 -147 53 -219t139 -88l143 806q-86 -18 -149.5 -69t-105.5 -121t-61 -150.5t-19 -158.5z" />
<glyph unicode="&#xa3;" horiz-adv-x="1630" d="M31 33q47 72 105.5 123t144.5 86q82 76 142 159.5t107 176.5h-153l20 118h191q35 82 65.5 158t63.5 143q43 90 97 164t123 126t157 80t198 28q106 0 178 -27t115 -67.5t60.5 -92t17.5 -102.5q0 -80 -45 -141.5t-131 -61.5q-59 0 -94 37t-35 86q0 53 38 96t103 52 q-14 47 -62 74.5t-130 27.5q-123 0 -201 -67.5t-125 -227.5q-20 -66 -50 -138.5t-73 -146.5h406l-21 -118h-450q-45 -78 -101.5 -145.5t-111.5 -113.5q98 -2 167.5 -33.5t131 -69.5t126 -68.5t154.5 -30.5q25 0 59.5 8t71.5 21.5t74 31t68 37.5l34 -76q-184 -172 -481 -172 q-90 0 -159.5 31t-134 67.5t-130 67.5t-145.5 31q-35 0 -78 -15.5t-84 -41t-77 -60.5t-56 -72z" />
<glyph unicode="&#xa5;" horiz-adv-x="1714" d="M354 334l19 108h415l27 144h-414l19 106h344l-234 449q-12 25 -25 44t-31.5 32.5t-46.5 20.5t-67 7l21 119h678l-21 -119h-149q-63 0 -64 -43l240 -459l379 433q10 10 10 30q0 39 -78 39h-90l21 119h499l-22 -121q-90 0 -137.5 -30.5t-75.5 -63.5l-400 -457h367l-18 -106 h-437l-26 -144h434q-6 -29 -10 -54.5t-8 -53.5h-435l-26 -144q0 -74 174 -73l-19 -117h-645l19 117q188 0 204 86l25 131h-416z" />
<glyph unicode="&#xa6;" horiz-adv-x="524" d="M133 -238l137 779h168l-137 -779h-168zM330 879l133 757h168l-133 -757h-168z" />
<glyph unicode="&#xa7;" horiz-adv-x="1187" d="M117 -154l65 379l121 13q2 -68 27.5 -121.5t69.5 -90t103.5 -56t131.5 -19.5q111 0 168 42t57 107q0 51 -46 82t-115.5 55.5t-151.5 48t-151.5 63.5t-116 102.5t-46.5 160.5q0 135 75 226.5t198 144.5q-74 33 -118 87t-44 165q0 70 32 128t90 99t140 64.5t180 23.5 q86 0 157 -23.5t116 -51.5q35 -23 55 -23q10 0 21.5 13.5t42.5 68.5h112l-63 -363l-123 -14q-4 141 -80 208t-229 67q-92 0 -153.5 -37t-61.5 -111q0 -55 46 -91t115.5 -65.5t150.5 -59.5t150.5 -72t115.5 -102t46 -153q0 -106 -67.5 -198t-198.5 -146q74 -33 117 -87 t43 -152q0 -70 -32 -129.5t-90 -103.5t-139 -68.5t-182 -24.5q-90 0 -151.5 16.5t-102.5 36t-65.5 36t-38.5 16.5q-16 0 -31.5 -17.5t-38.5 -73.5h-110zM453 664q0 -53 29.5 -87t77.5 -57.5t108.5 -40t124.5 -35.5q80 37 135 92.5t55 137.5q0 59 -30.5 98t-80 66.5t-111 48 t-122.5 43.5q-35 -18 -68.5 -44t-60.5 -58.5t-42 -73.5t-15 -90z" />
<glyph unicode="&#xa8;" horiz-adv-x="890" d="M297 1346q0 59 43 102t104 43q59 0 102.5 -43t43.5 -102q0 -61 -43 -104.5t-103 -43.5q-61 0 -104 43t-43 105zM770 1346q0 59 43 102t105 43q61 0 103 -43t42 -102q0 -61 -42 -104.5t-103 -43.5t-104.5 43t-43.5 105z" />
<glyph unicode="&#xa9;" horiz-adv-x="1869" d="M244 754q0 170 65.5 316.5t179 254t266 168.5t324.5 61t322.5 -60t262.5 -166.5t176.5 -253t64.5 -320.5q0 -162 -60.5 -304.5t-170 -250t-261 -170t-334.5 -62.5q-190 0 -343.5 62.5t-263.5 170t-169 250t-59 304.5zM387 754q0 -158 59.5 -282t156.5 -210t222 -131 t256 -45q170 0 298 60.5t213 156.5t128 215t43 236q0 158 -57 282.5t-152.5 211.5t-218.5 133t-254 46q-154 0 -281.5 -52t-219 -142t-142.5 -214t-51 -265zM717 758q0 186 100.5 287.5t280.5 101.5q68 0 124 -16.5t97 -45t63.5 -65.5t22.5 -80q0 -41 -25.5 -69.5 t-72.5 -28.5q-45 0 -70 25.5t-25 60.5q0 23 14.5 46t41.5 32q-25 23 -61 37t-77 14q-221 0 -221 -281q0 -156 59.5 -223.5t151.5 -67.5q72 0 129.5 40t71.5 139l92 -15q-8 -51 -29.5 -99t-59.5 -86t-94 -61.5t-132 -23.5q-84 0 -155 22.5t-121 69.5t-77.5 119t-27.5 168z " />
<glyph unicode="&#xaa;" horiz-adv-x="956" d="M236 850q0 88 55 136t138 72.5t176 37t171 30.5l8 33q2 10 2 19.5v17.5q0 51 -29.5 83t-88.5 32q-55 0 -102.5 -11.5t-78.5 -27.5q20 -8 34 -24.5t14 -41.5q0 -41 -34 -67.5t-77 -26.5q-86 0 -86 78q0 33 23.5 68.5t67.5 66.5t109.5 50.5t149.5 19.5q55 0 103.5 -9.5 t85 -32t58 -58t21.5 -91.5q0 -14 -1 -27.5t-3 -27.5l-57 -328q-2 -6 -2 -18q0 -27 22 -27q14 0 22.5 13.5t12.5 31.5l17 90h73l-12 -71q-16 -86 -59 -122t-103 -36q-68 0 -90 35t-24 82q-47 -53 -129 -91t-187 -38q-201 0 -200 180zM403 877q0 -49 31 -72t86 -23 q70 0 128.5 31t86.5 70l29 174q-88 -20 -155.5 -38t-112.5 -37t-69 -44t-24 -61z" />
<glyph unicode="&#xab;" horiz-adv-x="1204" d="M160 590l528 409l74 -106l-309 -315l194 -314l-104 -88zM696 590l533 409l69 -106l-307 -315l193 -316l-103 -86z" />
<glyph unicode="&#xad;" horiz-adv-x="702" d="M145 506l29 160h586l-29 -160h-586z" />
<glyph unicode="&#xae;" horiz-adv-x="1423" d="M233 942q0 129 50.5 241.5t138.5 194.5t205.5 129t253.5 47q135 0 251.5 -46t203.5 -127t136.5 -193.5t49.5 -245.5q0 -127 -46 -236.5t-130 -191.5t-203 -129t-262 -47q-147 0 -267 47t-204 129t-130.5 191.5t-46.5 236.5zM375 942q0 -117 43 -209t113.5 -155.5 t161.5 -96t188 -32.5q125 0 218 44t155.5 114.5t93 158.5t30.5 176q0 115 -42 206t-111.5 154.5t-159.5 97.5t-184 34q-113 0 -206 -38t-159.5 -104.5t-103.5 -155.5t-37 -194zM563 655v58q90 0 90 49v395q0 47 -90 47v60h326q117 0 180.5 -36t63.5 -124q0 -70 -38 -104.5 t-106 -41.5q57 -10 86 -38.5t29 -88.5v-69q0 -47 35 -47t35 47v35h55v-29q0 -57 -34 -89t-95 -32q-72 0 -103.5 33t-31.5 92v64q0 53 -23.5 73.5t-75.5 20.5h-71v-168q0 -49 112 -49v-58h-344zM795 997h79q59 0 87 21.5t28 71.5q0 90 -115 90h-79v-183z" />
<glyph unicode="&#xb0;" horiz-adv-x="937" d="M276 1169q0 76 31 142.5t84 117t125 79t156 28.5q82 0 155.5 -28.5t128 -79t86 -117t31.5 -142.5t-30.5 -143.5t-84 -117.5t-127 -79.5t-159.5 -29.5t-159 29.5t-125 79.5t-82 118t-30 143zM467 1169q0 -86 56.5 -144t148.5 -58t148.5 58t56.5 144q0 39 -14.5 75 t-41 63.5t-64.5 44t-85 16.5q-49 0 -87 -16.5t-63.5 -44t-40 -63.5t-14.5 -75z" />
<glyph unicode="&#xb2;" horiz-adv-x="899" d="M283 797q35 96 87 156.5t109.5 101.5t114.5 68.5t103 58t75 69.5t29 105q0 49 -29 79.5t-92 30.5q-53 0 -84 -14t-49 -35q37 -10 37 -55q0 -43 -26 -72.5t-73 -29.5q-76 0 -75 73q0 27 16 65t52 71.5t93.5 57t137.5 23.5q53 0 100 -10t83 -33.5t56.5 -60.5t20.5 -92 q0 -74 -28 -122t-71 -82t-98 -57.5t-111.5 -44t-107.5 -44t-88 -58.5q29 16 57.5 21.5t59.5 5.5q37 0 63.5 -8.5t49 -19.5t42 -19t43.5 -8q23 0 44.5 14t41.5 72h64q0 -39 -9.5 -78t-30 -71t-53 -51.5t-81.5 -19.5q-51 0 -83 12.5t-58.5 26t-58.5 25.5t-83 12 q-41 0 -68.5 -16.5t-54.5 -46.5h-67z" />
<glyph unicode="&#xb3;" horiz-adv-x="874" d="M299 950q0 47 30.5 78t76.5 31q72 0 71 -70q0 -29 -14 -51.5t-43 -28.5q18 -23 57 -34t88 -11q86 0 135.5 44t49.5 122q0 68 -46.5 98.5t-144.5 36.5l23 68q39 2 75.5 11t64.5 27.5t45 44t17 62.5q0 88 -114 88q-41 0 -76 -10t-64 -35q45 -8 45 -61q0 -41 -29.5 -68.5 t-72.5 -27.5q-33 0 -53.5 18t-20.5 53q0 29 17.5 66t53.5 70.5t92 56t136 22.5q111 0 182.5 -37.5t71.5 -123.5q0 -70 -46 -117t-132 -70q147 -37 148 -164q0 -68 -32 -116t-84 -80.5t-120 -48t-139 -15.5q-61 0 -108.5 15.5t-78 40t-46 55.5t-15.5 61z" />
<glyph unicode="&#xb4;" horiz-adv-x="720" d="M297 1251q70 27 135.5 65t124.5 71.5t115.5 58t109.5 24.5t76 -23.5t23 -53.5q0 -39 -33 -67t-84 -48.5t-115.5 -34.5t-126 -24.5t-114.5 -19.5t-84 -19q-14 31 -27 71z" />
<glyph unicode="&#xb6;" horiz-adv-x="1280" d="M276 1135q0 66 30 134t85 124.5t136 92.5t184 36h473l-295 -1657q-2 -10 -3 -19.5t-1 -19.5q0 -82 78 -82q41 0 68.5 10t47.5 29q-29 4 -47 20.5t-18 44.5q0 31 22.5 62t69.5 31q51 0 68.5 -23.5t17.5 -58.5q0 -43 -19.5 -77t-51 -58.5t-74.5 -38t-91 -13.5 q-96 0 -149 42t-53 141q0 18 4 28l166 934h-172l-166 -936h-133l165 936q-90 0 -154.5 24.5t-105.5 67.5t-61.5 101.5t-20.5 124.5zM774 948h172l80 449h-172z" />
<glyph unicode="&#xb7;" horiz-adv-x="550" d="M250 764q0 66 47 113t115 47q66 0 113.5 -47t47.5 -113q0 -68 -48 -115t-113 -47q-68 0 -115 47t-47 115z" />
<glyph unicode="&#xb8;" horiz-adv-x="503" d="M12 -336l47 37q33 -63 107 -63q49 0 79.5 28.5t30.5 83.5q0 59 -41.5 82t-97.5 29l29 174h72l-21 -117q66 -4 117 -44t51 -128q0 -37 -14.5 -70.5t-42 -60.5t-67.5 -43t-91 -16q-70 0 -110 31.5t-48 76.5z" />
<glyph unicode="&#xb9;" horiz-adv-x="577" d="M223 797l15 73q135 0 141 37l80 449h-148l8 71q156 2 240 129l103 -16q-10 -27 -16.5 -51.5t-10.5 -46.5l-94 -535q0 -18 25.5 -27.5t84.5 -9.5l-12 -73h-416z" />
<glyph unicode="&#xba;" horiz-adv-x="923" d="M270 958q0 88 31 168t86 139.5t131 94.5t166 35q74 0 135.5 -13.5t104.5 -46t66.5 -86t23.5 -133.5q0 -86 -30 -167t-84 -142.5t-129 -99t-167 -37.5q-74 0 -135 13t-105.5 47t-69 89t-24.5 139zM449 948q0 -113 40.5 -148.5t133.5 -35.5q55 0 96 33.5t67.5 86t39 117 t12.5 123.5q0 106 -42 142.5t-120 36.5q-61 0 -104.5 -34t-71 -86.5t-39.5 -114.5t-12 -120z" />
<glyph unicode="&#xbb;" horiz-adv-x="1204" d="M104 281l308 315l-193 315l103 86l385 -411l-533 -410zM641 281l309 315l-194 315l104 86l383 -411l-528 -410z" />
<glyph unicode="&#xbc;" horiz-adv-x="1955" d="M301 797l12 73q135 0 142 37l80 449h-146l8 71q156 2 240 129l100 -16q-10 -27 -16 -51.5t-10 -46.5l-95 -535q0 -18 26 -27.5t85 -9.5l-12 -73h-414zM332 0l1421 1526h139l-1429 -1526h-131zM1178 209l12 72l489 473h146l-78 -439h102l-37 -106h-83l-17 -100 q0 -20 21.5 -28.5t70.5 -8.5l-10 -72h-397l12 72q59 0 97 9t42 30l19 98h-389zM1339 315h246l51 285z" />
<glyph unicode="&#xbd;" horiz-adv-x="1955" d="M301 797l12 73q135 0 142 37l80 449h-146l8 71q156 2 240 129l100 -16q-10 -27 -16 -51.5t-10 -46.5l-95 -535q0 -18 26 -27.5t85 -9.5l-12 -73h-414zM332 0l1421 1526h139l-1429 -1526h-131zM1186 0q35 96 87 156.5t109.5 101.5t113.5 67.5t102.5 57.5t75 71t28.5 105 q0 51 -28.5 81t-92.5 30q-51 0 -82 -14.5t-51 -34.5q37 -14 37 -58q0 -43 -25.5 -71.5t-70.5 -28.5q-78 0 -78 72q0 27 16 64.5t52 72.5t93.5 58.5t137.5 23.5q53 0 100 -10.5t83 -34t56.5 -61.5t20.5 -91q0 -74 -27.5 -123t-72 -83t-100.5 -56.5t-111.5 -43t-106.5 -44 t-86 -57.5q29 16 57.5 21t59.5 5q37 0 63.5 -8t48 -19.5t42 -19.5t46.5 -8q16 0 40 13t46 73h62q0 -39 -9.5 -78t-29.5 -70.5t-53 -51t-82 -19.5q-53 0 -84 12t-57.5 25.5t-58.5 25.5t-83 12q-41 0 -69.5 -16t-53.5 -47h-65z" />
<glyph unicode="&#xbe;" horiz-adv-x="1955" d="M289 950q0 47 29.5 78t76.5 31q72 0 72 -70q0 -29 -14.5 -51.5t-42.5 -28.5q18 -23 57 -34t88 -11q86 0 135 44t49 122q0 68 -46 98.5t-144 36.5l22 68q39 2 75 11t64.5 27.5t46 44t17.5 62.5q0 88 -115 88q-41 0 -75.5 -10t-63.5 -35q45 -8 45 -61q0 -41 -29.5 -68.5 t-72.5 -27.5q-33 0 -53.5 18t-20.5 53q0 29 17.5 66t53.5 70.5t92 56t136 22.5q109 0 181.5 -38.5t72.5 -122.5q0 -70 -46 -117t-132 -70q147 -37 147 -164q0 -68 -31.5 -116t-84 -80.5t-120 -48t-138.5 -15.5q-61 0 -108.5 15.5t-78.5 40t-46 55.5t-15 61zM332 0l1421 1526 h141l-1429 -1526h-133zM1178 209l12 74l489 471h148l-80 -439h104l-36 -106h-84l-19 -100q0 -18 20.5 -26.5t73.5 -8.5l-12 -74h-397l12 74q133 0 139 37l19 98h-389zM1339 315h246l51 285z" />
<glyph unicode="&#xbf;" horiz-adv-x="1171" d="M66 -63q0 96 35.5 162.5t93 117.5t127 96t137 96.5t126 117t91.5 159.5h133q-4 -33 -9 -62.5t-16 -58.5q-41 -109 -106.5 -181.5t-130 -137t-110.5 -132t-46 -163.5q0 -92 56.5 -139.5t156.5 -47.5q63 0 108.5 9.5t78 26t54 36t40.5 41.5q-47 2 -78 34t-31 87 q0 31 14.5 59.5t38 51t54 36t63.5 13.5q80 0 116 -41t36 -115q0 -49 -31 -112.5t-98.5 -121t-174 -96.5t-255.5 -39q-102 0 -189.5 14.5t-150 49.5t-98 93t-35.5 147zM635 1042q0 66 47 114t115 48q66 0 113.5 -48t47.5 -114q0 -68 -48 -114.5t-113 -46.5q-68 0 -115 47 t-47 114z" />
<glyph unicode="&#xc0;" d="M78 0l20 121q158 0 191 57l762 1344h301l266 -1342q12 -61 162 -61l-21 -119h-762l21 119h190q37 0 51.5 13t14.5 40l-45 229h-641l-115 -204q-12 -23 -12 -35q0 -43 86 -43h125l-21 -119h-573zM666 553h534l-137 723zM919 1878q0 35 30 69.5t102 34.5q45 0 91 -22.5 t95 -56t103.5 -71.5t119.5 -69l-53 -71q-84 27 -170 41t-156.5 31.5t-116 42t-45.5 71.5z" />
<glyph unicode="&#xc1;" d="M78 0l20 121q158 0 191 57l762 1344h301l266 -1342q12 -61 162 -61l-21 -119h-762l21 119h190q37 0 51.5 13t14.5 40l-45 229h-641l-115 -204q-12 -23 -12 -35q0 -43 86 -43h125l-21 -119h-573zM666 553h534l-137 723zM981 1763q70 27 135.5 65t124.5 71.5t115.5 58 t109.5 24.5t76 -23.5t23 -53.5q0 -39 -33 -67t-84 -48.5t-115.5 -34.5t-126 -24.5t-114.5 -19.5t-84 -19q-14 31 -27 71z" />
<glyph unicode="&#xc2;" d="M78 0l20 121q158 0 191 57l762 1344h301l266 -1342q12 -61 162 -61l-21 -119h-762l21 119h190q37 0 51.5 13t14.5 40l-45 229h-641l-115 -204q-12 -23 -12 -35q0 -43 86 -43h125l-21 -119h-573zM666 553h534l-137 723zM883 1745l381 237l293 -239l-86 -60l-236 111 l-280 -111z" />
<glyph unicode="&#xc3;" d="M78 0l20 121q158 0 191 57l762 1344h301l266 -1342q12 -61 162 -61l-21 -119h-762l21 119h190q37 0 51.5 13t14.5 40l-45 229h-641l-115 -204q-12 -23 -12 -35q0 -43 86 -43h125l-21 -119h-573zM666 553h534l-137 723zM793 1761q25 49 60.5 87t76.5 63.5t84 38t84 12.5 q72 0 113 -15.5t71.5 -33t60.5 -32.5t77 -15q41 0 79.5 15t79.5 73l107 -41q-43 -98 -125 -150.5t-180 -52.5q-53 0 -94 15.5t-76 34t-70 33.5t-76 15q-49 0 -94 -23.5t-80 -70.5z" />
<glyph unicode="&#xc4;" d="M78 0l20 121q158 0 191 57l762 1344h301l266 -1342q12 -61 162 -61l-21 -119h-762l21 119h190q37 0 51.5 13t14.5 40l-45 229h-641l-115 -204q-12 -23 -12 -35q0 -43 86 -43h125l-21 -119h-573zM666 553h534l-137 723zM856 1858q0 59 43 102t104 43q59 0 102.5 -43 t43.5 -102q0 -61 -43 -104.5t-103 -43.5q-61 0 -104 43t-43 105zM1329 1858q0 59 43 102t105 43q61 0 103 -43t42 -102q0 -61 -42 -104.5t-103 -43.5t-104.5 43t-43.5 105z" />
<glyph unicode="&#xc5;" d="M78 0l20 121q158 0 191 57l762 1344h301l266 -1342q12 -61 162 -61l-21 -119h-762l21 119h190q37 0 51.5 13t14.5 40l-45 229h-641l-115 -204q-12 -23 -12 -35q0 -43 86 -43h125l-21 -119h-573zM666 553h534l-137 723zM1010 1769q0 43 16.5 82t44 69t65.5 46t81 16 t82 -16t68.5 -46t46 -69t16.5 -82t-16.5 -82.5t-46 -68.5t-68.5 -46.5t-82 -17.5t-81 17.5t-65.5 46.5t-44 68.5t-16.5 82.5zM1092 1769q0 -63 33.5 -98t91.5 -35q51 0 87 35t36 98q0 53 -36 91t-87 38q-57 0 -91 -37.5t-34 -91.5z" />
<glyph unicode="&#xc6;" horiz-adv-x="2521" d="M39 0l20 121q72 0 115 14.5t74 48.5l973 1108q16 18 24 36t8 28q0 23 -24.5 35t-63.5 12h-190l22 119h1647l-82 -463l-147 -8q0 70 -8.5 127t-31 98t-65.5 63.5t-110 22.5h-441l-86 -496h211q127 0 189 248h131l-146 -639h-125q0 74 -2 123t-11 79t-26.5 41t-48.5 11 h-196l-103 -569h367q354 0 467 438l147 -14l-151 -584h-1360l20 119q86 0 139.5 23.5t63.5 70.5l33 188h-651l-172 -196q-16 -20 -21.5 -30.5t-5.5 -20.5q0 -35 74 -35h133l-21 -119h-569zM750 553h548l142 801z" />
<glyph unicode="&#xc7;" horiz-adv-x="1650" d="M193 616q0 176 63 345t183 301.5t291 212t384 79.5q190 0 305 -49t164 -112l78 129h154l-91 -502l-155 -12q-6 82 -34 151.5t-79 120.5t-128 80t-181 29q-156 0 -272.5 -67t-194.5 -174.5t-117 -242.5t-39 -272q0 -129 29 -221.5t83 -150.5t130 -84.5t168 -26.5 q217 0 356.5 99t227.5 279l145 -47q-45 -96 -111.5 -186t-157.5 -162t-208 -117t-260 -49l-8 -49q66 -4 116.5 -44t50.5 -128q0 -37 -14 -70.5t-42 -60.5t-67.5 -43t-91.5 -16q-70 0 -109.5 31.5t-47.5 76.5l47 37q33 -63 106 -63q49 0 80 28.5t31 83.5q0 59 -42 82t-97 29 l16 106q-147 4 -269 44t-209 119t-135 200t-48 286z" />
<glyph unicode="&#xc8;" horiz-adv-x="1609" d="M78 0l20 119q86 0 140.5 23.5t62.5 70.5l193 1110q0 80 -170 80l22 119h1385l-82 -463l-144 -8q0 66 -9 123t-33.5 99t-66.5 65.5t-106 23.5h-469l-86 -496h238q125 0 186 248h131l-143 -639h-125q0 137 -15.5 195.5t-74.5 58.5h-221l-101 -569h391q354 0 467 438 l148 -14l-154 -584h-1384zM823 1878q0 35 30 69.5t102 34.5q45 0 91 -22.5t95 -56t103.5 -71.5t119.5 -69l-53 -71q-84 27 -170 41t-156.5 31.5t-116 42t-45.5 71.5z" />
<glyph unicode="&#xc9;" horiz-adv-x="1609" d="M78 0l20 119q86 0 140.5 23.5t62.5 70.5l193 1110q0 80 -170 80l22 119h1385l-82 -463l-144 -8q0 66 -9 123t-33.5 99t-66.5 65.5t-106 23.5h-469l-86 -496h238q125 0 186 248h131l-143 -639h-125q0 137 -15.5 195.5t-74.5 58.5h-221l-101 -569h391q354 0 467 438 l148 -14l-154 -584h-1384zM909 1763q70 27 135.5 65t124.5 71.5t115.5 58t109.5 24.5t76 -23.5t23 -53.5q0 -39 -33 -67t-84 -48.5t-115.5 -34.5t-126 -24.5t-114.5 -19.5t-84 -19q-14 31 -27 71z" />
<glyph unicode="&#xca;" horiz-adv-x="1609" d="M78 0l20 119q86 0 140.5 23.5t62.5 70.5l193 1110q0 80 -170 80l22 119h1385l-82 -463l-144 -8q0 66 -9 123t-33.5 99t-66.5 65.5t-106 23.5h-469l-86 -496h238q125 0 186 248h131l-143 -639h-125q0 137 -15.5 195.5t-74.5 58.5h-221l-101 -569h391q354 0 467 438 l148 -14l-154 -584h-1384zM778 1745l381 237l293 -239l-86 -60l-236 111l-280 -111z" />
<glyph unicode="&#xcb;" horiz-adv-x="1609" d="M78 0l20 119q86 0 140.5 23.5t62.5 70.5l193 1110q0 80 -170 80l22 119h1385l-82 -463l-144 -8q0 66 -9 123t-33.5 99t-66.5 65.5t-106 23.5h-469l-86 -496h238q125 0 186 248h131l-143 -639h-125q0 137 -15.5 195.5t-74.5 58.5h-221l-101 -569h391q354 0 467 438 l148 -14l-154 -584h-1384zM752 1858q0 59 43 102t104 43q59 0 102.5 -43t43.5 -102q0 -61 -43 -104.5t-103 -43.5q-61 0 -104 43t-43 105zM1225 1858q0 59 43 102t105 43q61 0 103 -43t42 -102q0 -61 -42 -104.5t-103 -43.5t-104.5 43t-43.5 105z" />
<glyph unicode="&#xcc;" horiz-adv-x="890" d="M98 0l21 119q92 0 144 23.5t61 70.5l192 1110q0 80 -172 80l23 119h692l-23 -119q-188 0 -202 -94l-195 -1112q0 -78 172 -78l-20 -119h-693zM456 1878q0 35 30 69.5t102 34.5q45 0 91 -22.5t95 -56t103.5 -71.5t119.5 -69l-53 -71q-84 27 -170 41t-156.5 31.5t-116 42 t-45.5 71.5z" />
<glyph unicode="&#xcd;" horiz-adv-x="890" d="M98 0l21 119q92 0 144 23.5t61 70.5l192 1110q0 80 -172 80l23 119h692l-23 -119q-188 0 -202 -94l-195 -1112q0 -78 172 -78l-20 -119h-693zM506 1763q70 27 135.5 65t124.5 71.5t115.5 58t109.5 24.5t76 -23.5t23 -53.5q0 -39 -33 -67t-84 -48.5t-115.5 -34.5 t-126 -24.5t-114.5 -19.5t-84 -19q-14 31 -27 71z" />
<glyph unicode="&#xce;" horiz-adv-x="890" d="M98 0l21 119q92 0 144 23.5t61 70.5l192 1110q0 80 -172 80l23 119h692l-23 -119q-188 0 -202 -94l-195 -1112q0 -78 172 -78l-20 -119h-693zM412 1745l381 237l293 -239l-86 -60l-236 111l-280 -111z" />
<glyph unicode="&#xcf;" horiz-adv-x="890" d="M98 0l21 119q92 0 144 23.5t61 70.5l192 1110q0 80 -172 80l23 119h692l-23 -119q-188 0 -202 -94l-195 -1112q0 -78 172 -78l-20 -119h-693zM385 1858q0 59 43 102t104 43q59 0 102.5 -43t43.5 -102q0 -61 -43 -104.5t-103 -43.5q-61 0 -104 43t-43 105zM858 1858 q0 59 43 102t105 43q61 0 103 -43t42 -102q0 -61 -42 -104.5t-103 -43.5t-104.5 43t-43.5 105z" />
<glyph unicode="&#xd0;" horiz-adv-x="1748" d="M78 0l18 119q78 0 135.5 23.5t67.5 70.5l92 520h-186l22 129h187l80 451q0 88 -170 88l22 121h795q168 0 296 -20.5t214 -80t130 -166t44 -280.5q0 -233 -63.5 -415.5t-183.5 -306.5t-293 -188.5t-394 -64.5h-813zM608 160h322q145 0 252.5 77.5t178.5 196.5t104.5 262.5 t33.5 274.5q0 111 -19.5 185.5t-59.5 119.5t-101.5 64.5t-142.5 19.5h-355l-88 -498h191l-23 -129h-190z" />
<glyph unicode="&#xd1;" horiz-adv-x="1851" d="M78 0l20 119q88 0 141.5 23.5t61.5 70.5l193 1110q0 80 -170 80l22 119h555l578 -1289l188 1090q0 80 -170 80l23 119h546l-22 -119q-188 0 -203 -94l-229 -1309h-385l-572 1255l-184 -1056q0 -80 170 -80l-18 -119h-545zM807 1761q25 49 60.5 87t76.5 63.5t84 38 t84 12.5q72 0 113 -15.5t71.5 -33t60.5 -32.5t77 -15q41 0 79.5 15t79.5 73l107 -41q-43 -98 -125 -150.5t-180 -52.5q-53 0 -94 15.5t-76 34t-70 33.5t-76 15q-49 0 -94 -23.5t-80 -70.5z" />
<glyph unicode="&#xd2;" horiz-adv-x="1738" d="M184 637q0 182 62.5 348t181.5 293t290 201.5t386 74.5q164 0 296 -35.5t224 -112.5t141.5 -197.5t49.5 -290.5q0 -195 -62.5 -367t-180.5 -302t-287 -206t-380 -76q-166 0 -300 37t-227 118t-143.5 208t-50.5 307zM512 625q0 -141 25.5 -234.5t78 -149t128 -79 t178.5 -23.5q150 0 259 65.5t180 174t104.5 251t33.5 294.5q0 131 -26.5 219t-76.5 142t-125 77.5t-173 23.5q-158 0 -268.5 -67.5t-181 -176t-103.5 -244.5t-33 -273zM876 1878q0 35 30 69.5t102 34.5q45 0 91 -22.5t95 -56t103.5 -71.5t119.5 -69l-53 -71q-84 27 -170 41 t-156.5 31.5t-116 42t-45.5 71.5z" />
<glyph unicode="&#xd3;" horiz-adv-x="1738" d="M184 637q0 182 62.5 348t181.5 293t290 201.5t386 74.5q164 0 296 -35.5t224 -112.5t141.5 -197.5t49.5 -290.5q0 -195 -62.5 -367t-180.5 -302t-287 -206t-380 -76q-166 0 -300 37t-227 118t-143.5 208t-50.5 307zM512 625q0 -141 25.5 -234.5t78 -149t128 -79 t178.5 -23.5q150 0 259 65.5t180 174t104.5 251t33.5 294.5q0 131 -26.5 219t-76.5 142t-125 77.5t-173 23.5q-158 0 -268.5 -67.5t-181 -176t-103.5 -244.5t-33 -273zM934 1763q70 27 135.5 65t124.5 71.5t115.5 58t109.5 24.5t76 -23.5t23 -53.5q0 -39 -33 -67t-84 -48.5 t-115.5 -34.5t-126 -24.5t-114.5 -19.5t-84 -19q-14 31 -27 71z" />
<glyph unicode="&#xd4;" horiz-adv-x="1738" d="M184 637q0 182 62.5 348t181.5 293t290 201.5t386 74.5q164 0 296 -35.5t224 -112.5t141.5 -197.5t49.5 -290.5q0 -195 -62.5 -367t-180.5 -302t-287 -206t-380 -76q-166 0 -300 37t-227 118t-143.5 208t-50.5 307zM512 625q0 -141 25.5 -234.5t78 -149t128 -79 t178.5 -23.5q150 0 259 65.5t180 174t104.5 251t33.5 294.5q0 131 -26.5 219t-76.5 142t-125 77.5t-173 23.5q-158 0 -268.5 -67.5t-181 -176t-103.5 -244.5t-33 -273zM836 1745l381 237l293 -239l-86 -60l-236 111l-280 -111z" />
<glyph unicode="&#xd5;" horiz-adv-x="1738" d="M184 637q0 182 62.5 348t181.5 293t290 201.5t386 74.5q164 0 296 -35.5t224 -112.5t141.5 -197.5t49.5 -290.5q0 -195 -62.5 -367t-180.5 -302t-287 -206t-380 -76q-166 0 -300 37t-227 118t-143.5 208t-50.5 307zM512 625q0 -141 25.5 -234.5t78 -149t128 -79 t178.5 -23.5q150 0 259 65.5t180 174t104.5 251t33.5 294.5q0 131 -26.5 219t-76.5 142t-125 77.5t-173 23.5q-158 0 -268.5 -67.5t-181 -176t-103.5 -244.5t-33 -273zM743 1761q25 49 60.5 87t76.5 63.5t84 38t84 12.5q72 0 113 -15.5t71.5 -33t60.5 -32.5t77 -15 q41 0 79.5 15t79.5 73l107 -41q-43 -98 -125 -150.5t-180 -52.5q-53 0 -94 15.5t-76 34t-70 33.5t-76 15q-49 0 -94 -23.5t-80 -70.5z" />
<glyph unicode="&#xd6;" horiz-adv-x="1738" d="M184 637q0 182 62.5 348t181.5 293t290 201.5t386 74.5q164 0 296 -35.5t224 -112.5t141.5 -197.5t49.5 -290.5q0 -195 -62.5 -367t-180.5 -302t-287 -206t-380 -76q-166 0 -300 37t-227 118t-143.5 208t-50.5 307zM512 625q0 -141 25.5 -234.5t78 -149t128 -79 t178.5 -23.5q150 0 259 65.5t180 174t104.5 251t33.5 294.5q0 131 -26.5 219t-76.5 142t-125 77.5t-173 23.5q-158 0 -268.5 -67.5t-181 -176t-103.5 -244.5t-33 -273zM807 1858q0 59 43 102t104 43q59 0 102.5 -43t43.5 -102q0 -61 -43 -104.5t-103 -43.5q-61 0 -104 43 t-43 105zM1280 1858q0 59 43 102t105 43q61 0 103 -43t42 -102q0 -61 -42 -104.5t-103 -43.5t-104.5 43t-43.5 105z" />
<glyph unicode="&#xd7;" horiz-adv-x="1085" d="M256 438l301 289l-301 285l113 106l301 -287l299 287l110 -106l-301 -285l305 -289l-112 -104l-301 287l-303 -287z" />
<glyph unicode="&#xd8;" horiz-adv-x="1738" d="M184 637q0 180 62.5 347t181.5 293t290 201.5t386 75.5q201 0 354 -57l107 141l125 -79l-99 -132q111 -76 167.5 -199.5t56.5 -309.5q0 -195 -62.5 -367t-180.5 -302t-287 -206t-380 -76q-205 0 -354 56l-119 -162l-127 82l111 149q-111 80 -171.5 213t-60.5 332z M510 631q0 -111 20.5 -184.5t61.5 -127.5l747 1010q-47 29 -108.5 42t-132.5 13q-158 0 -268.5 -65.5t-182.5 -172t-104.5 -241.5t-32.5 -274zM672 193q47 -29 109.5 -41.5t140.5 -12.5q150 0 259 65.5t180 174t105.5 251t34.5 294.5q0 186 -82 280z" />
<glyph unicode="&#xd9;" horiz-adv-x="1818" d="M324 1401l20 119h729l-20 -119q-123 0 -178.5 -23.5t-63.5 -70.5l-121 -686q-18 -98 -18 -189q0 -63 14 -116.5t49 -92.5t93.5 -60.5t148.5 -21.5q125 0 214 29t149.5 88t96.5 149.5t58 213.5l123 698q0 82 -213 82l20 119h588l-20 -119q-188 0 -203 -94l-121 -686 q-55 -309 -230 -481.5t-497 -172.5q-162 0 -273.5 34t-181 97.5t-100.5 151.5t-31 196q0 41 4.5 84t12.5 91l121 700q0 80 -170 80zM927 1878q0 35 30 69.5t102 34.5q45 0 91 -22.5t95 -56t103.5 -71.5t119.5 -69l-53 -71q-84 27 -170 41t-156.5 31.5t-116 42t-45.5 71.5z " />
<glyph unicode="&#xda;" horiz-adv-x="1818" d="M324 1401l20 119h729l-20 -119q-123 0 -178.5 -23.5t-63.5 -70.5l-121 -686q-18 -98 -18 -189q0 -63 14 -116.5t49 -92.5t93.5 -60.5t148.5 -21.5q125 0 214 29t149.5 88t96.5 149.5t58 213.5l123 698q0 82 -213 82l20 119h588l-20 -119q-188 0 -203 -94l-121 -686 q-55 -309 -230 -481.5t-497 -172.5q-162 0 -273.5 34t-181 97.5t-100.5 151.5t-31 196q0 41 4.5 84t12.5 91l121 700q0 80 -170 80zM999 1763q70 27 135.5 65t124.5 71.5t115.5 58t109.5 24.5t76 -23.5t23 -53.5q0 -39 -33 -67t-84 -48.5t-115.5 -34.5t-126 -24.5 t-114.5 -19.5t-84 -19q-14 31 -27 71z" />
<glyph unicode="&#xdb;" horiz-adv-x="1818" d="M324 1401l20 119h729l-20 -119q-123 0 -178.5 -23.5t-63.5 -70.5l-121 -686q-18 -98 -18 -189q0 -63 14 -116.5t49 -92.5t93.5 -60.5t148.5 -21.5q125 0 214 29t149.5 88t96.5 149.5t58 213.5l123 698q0 82 -213 82l20 119h588l-20 -119q-188 0 -203 -94l-121 -686 q-55 -309 -230 -481.5t-497 -172.5q-162 0 -273.5 34t-181 97.5t-100.5 151.5t-31 196q0 41 4.5 84t12.5 91l121 700q0 80 -170 80zM901 1745l381 237l293 -239l-86 -60l-236 111l-280 -111z" />
<glyph unicode="&#xdc;" horiz-adv-x="1818" d="M324 1401l20 119h729l-20 -119q-123 0 -178.5 -23.5t-63.5 -70.5l-121 -686q-18 -98 -18 -189q0 -63 14 -116.5t49 -92.5t93.5 -60.5t148.5 -21.5q125 0 214 29t149.5 88t96.5 149.5t58 213.5l123 698q0 82 -213 82l20 119h588l-20 -119q-188 0 -203 -94l-121 -686 q-55 -309 -230 -481.5t-497 -172.5q-162 0 -273.5 34t-181 97.5t-100.5 151.5t-31 196q0 41 4.5 84t12.5 91l121 700q0 80 -170 80zM868 1858q0 59 43 102t104 43q59 0 102.5 -43t43.5 -102q0 -61 -43 -104.5t-103 -43.5q-61 0 -104 43t-43 105zM1341 1858q0 59 43 102 t105 43q61 0 103 -43t42 -102q0 -61 -42 -104.5t-103 -43.5t-104.5 43t-43.5 105z" />
<glyph unicode="&#xdd;" horiz-adv-x="1720" d="M305 1403l23 119h762l-23 -119h-170q-29 0 -47.5 -10.5t-18.5 -30.5q0 -16 9 -31l245 -526l437 520q12 14 12 35q0 43 -78 43h-102l22 119h545l-23 -121q-74 0 -118.5 -15.5t-67.5 -42.5l-594 -686l-80 -458q0 -80 195 -80l-21 -119h-737l21 119q205 0 225 94l80 444 l-342 684q-18 35 -56 48.5t-98 13.5zM948 1763q70 27 135.5 65t124.5 71.5t115.5 58t109.5 24.5t76 -23.5t23 -53.5q0 -39 -33 -67t-84 -48.5t-115.5 -34.5t-126 -24.5t-114.5 -19.5t-84 -19q-14 31 -27 71z" />
<glyph unicode="&#xde;" horiz-adv-x="1527" d="M78 0l20 119q86 0 140.5 23.5t62.5 70.5l193 1110q0 80 -170 80l22 119h735l-22 -119q-233 0 -248 -94l-20 -121h315q109 0 200 -16.5t156.5 -58.5t102.5 -112.5t37 -181.5q0 -129 -52.5 -219t-140.5 -147.5t-205 -84t-248 -26.5h-313l-27 -143q0 -80 218 -80l-21 -119 h-735zM672 512h262q168 0 258 81t90 210q0 113 -61.5 164t-198.5 51h-262z" />
<glyph unicode="&#xdf;" horiz-adv-x="1482" d="M55 0l19 117q80 0 134 22.5t64 69.5l172 975q20 123 78 203.5t134.5 127t165.5 64.5t175 18q184 0 299 -70.5t115 -215.5q0 -78 -22.5 -140.5t-62.5 -109.5t-92 -81t-114 -54q340 -31 340 -394q0 -121 -32.5 -224t-97 -180t-158 -120t-216.5 -43q-76 0 -130 17.5t-91 47 t-55 69.5t-23 85l97 41q10 -66 58 -96.5t108 -30.5q57 0 103 36t79 97.5t51 140.5t18 165q0 176 -67.5 245.5t-218.5 69.5l20 117q55 2 98.5 29.5t73 72.5t45 105.5t15.5 130.5q0 88 -32 128t-120 40q-92 0 -153.5 -57.5t-83.5 -186.5l-218 -1231h-475z" />
<glyph unicode="&#xe0;" horiz-adv-x="1421" d="M119 201q0 102 40 167.5t107.5 107.5t155.5 66.5t184 41t192.5 32t182.5 41.5q6 33 10 65t4 54q0 88 -50 141.5t-161 53.5q-94 0 -174 -21.5t-127 -56.5q41 -4 70 -25.5t29 -66.5q0 -59 -48.5 -101.5t-121.5 -42.5q-66 0 -97.5 31t-31.5 82q0 55 36.5 110.5t107.5 100.5 t171 73.5t229 28.5q82 0 162 -15t142.5 -52t100.5 -96.5t38 -145.5q-2 -18 -3 -39.5t-5 -44.5l-86 -485q-2 -10 -4.5 -20.5t-2.5 -16.5q0 -57 52 -57q27 0 44 21.5t26 53t15.5 68.5t12.5 68h96l-29 -138q-31 -111 -91 -154.5t-152 -43.5q-61 0 -100 19.5t-63 49t-33 66.5 t-9 72q-33 -47 -84 -88.5t-113.5 -72t-136.5 -48t-149 -17.5q-178 0 -257 61.5t-79 172.5zM391 256q0 -63 42 -94t140 -31q113 0 203 48t144 114l49 287q-145 -37 -254 -67t-180.5 -63.5t-107.5 -78.5t-36 -115zM598 1366q0 35 30 69.5t102 34.5q45 0 91 -22.5t95 -56 t103.5 -71.5t119.5 -69l-53 -71q-84 27 -170 41t-156.5 31.5t-116 42t-45.5 71.5z" />
<glyph unicode="&#xe1;" horiz-adv-x="1421" d="M119 201q0 102 40 167.5t107.5 107.5t155.5 66.5t184 41t192.5 32t182.5 41.5q6 33 10 65t4 54q0 88 -50 141.5t-161 53.5q-94 0 -174 -21.5t-127 -56.5q41 -4 70 -25.5t29 -66.5q0 -59 -48.5 -101.5t-121.5 -42.5q-66 0 -97.5 31t-31.5 82q0 55 36.5 110.5t107.5 100.5 t171 73.5t229 28.5q82 0 162 -15t142.5 -52t100.5 -96.5t38 -145.5q-2 -18 -3 -39.5t-5 -44.5l-86 -485q-2 -10 -4.5 -20.5t-2.5 -16.5q0 -57 52 -57q27 0 44 21.5t26 53t15.5 68.5t12.5 68h96l-29 -138q-31 -111 -91 -154.5t-152 -43.5q-61 0 -100 19.5t-63 49t-33 66.5 t-9 72q-33 -47 -84 -88.5t-113.5 -72t-136.5 -48t-149 -17.5q-178 0 -257 61.5t-79 172.5zM391 256q0 -63 42 -94t140 -31q113 0 203 48t144 114l49 287q-145 -37 -254 -67t-180.5 -63.5t-107.5 -78.5t-36 -115zM674 1251q70 27 135.5 65t124.5 71.5t115.5 58t109.5 24.5 t76 -23.5t23 -53.5q0 -39 -33 -67t-84 -48.5t-115.5 -34.5t-126 -24.5t-114.5 -19.5t-84 -19q-14 31 -27 71z" />
<glyph unicode="&#xe2;" horiz-adv-x="1421" d="M119 201q0 102 40 167.5t107.5 107.5t155.5 66.5t184 41t192.5 32t182.5 41.5q6 33 10 65t4 54q0 88 -50 141.5t-161 53.5q-94 0 -174 -21.5t-127 -56.5q41 -4 70 -25.5t29 -66.5q0 -59 -48.5 -101.5t-121.5 -42.5q-66 0 -97.5 31t-31.5 82q0 55 36.5 110.5t107.5 100.5 t171 73.5t229 28.5q82 0 162 -15t142.5 -52t100.5 -96.5t38 -145.5q-2 -18 -3 -39.5t-5 -44.5l-86 -485q-2 -10 -4.5 -20.5t-2.5 -16.5q0 -57 52 -57q27 0 44 21.5t26 53t15.5 68.5t12.5 68h96l-29 -138q-31 -111 -91 -154.5t-152 -43.5q-61 0 -100 19.5t-63 49t-33 66.5 t-9 72q-33 -47 -84 -88.5t-113.5 -72t-136.5 -48t-149 -17.5q-178 0 -257 61.5t-79 172.5zM391 256q0 -63 42 -94t140 -31q113 0 203 48t144 114l49 287q-145 -37 -254 -67t-180.5 -63.5t-107.5 -78.5t-36 -115zM557 1233l381 237l293 -239l-86 -60l-236 111l-280 -111z" />
<glyph unicode="&#xe3;" horiz-adv-x="1421" d="M119 201q0 102 40 167.5t107.5 107.5t155.5 66.5t184 41t192.5 32t182.5 41.5q6 33 10 65t4 54q0 88 -50 141.5t-161 53.5q-94 0 -174 -21.5t-127 -56.5q41 -4 70 -25.5t29 -66.5q0 -59 -48.5 -101.5t-121.5 -42.5q-66 0 -97.5 31t-31.5 82q0 55 36.5 110.5t107.5 100.5 t171 73.5t229 28.5q82 0 162 -15t142.5 -52t100.5 -96.5t38 -145.5q-2 -18 -3 -39.5t-5 -44.5l-86 -485q-2 -10 -4.5 -20.5t-2.5 -16.5q0 -57 52 -57q27 0 44 21.5t26 53t15.5 68.5t12.5 68h96l-29 -138q-31 -111 -91 -154.5t-152 -43.5q-61 0 -100 19.5t-63 49t-33 66.5 t-9 72q-33 -47 -84 -88.5t-113.5 -72t-136.5 -48t-149 -17.5q-178 0 -257 61.5t-79 172.5zM391 256q0 -63 42 -94t140 -31q113 0 203 48t144 114l49 287q-145 -37 -254 -67t-180.5 -63.5t-107.5 -78.5t-36 -115zM463 1249q25 49 60.5 87t76.5 63.5t84 38t84 12.5 q72 0 113 -15.5t71.5 -33t60.5 -32.5t77 -15q41 0 79.5 15t79.5 73l107 -41q-43 -98 -125 -150.5t-180 -52.5q-53 0 -94 15.5t-76 34t-70 33.5t-76 15q-49 0 -94 -23.5t-80 -70.5z" />
<glyph unicode="&#xe4;" horiz-adv-x="1421" d="M119 201q0 102 40 167.5t107.5 107.5t155.5 66.5t184 41t192.5 32t182.5 41.5q6 33 10 65t4 54q0 88 -50 141.5t-161 53.5q-94 0 -174 -21.5t-127 -56.5q41 -4 70 -25.5t29 -66.5q0 -59 -48.5 -101.5t-121.5 -42.5q-66 0 -97.5 31t-31.5 82q0 55 36.5 110.5t107.5 100.5 t171 73.5t229 28.5q82 0 162 -15t142.5 -52t100.5 -96.5t38 -145.5q-2 -18 -3 -39.5t-5 -44.5l-86 -485q-2 -10 -4.5 -20.5t-2.5 -16.5q0 -57 52 -57q27 0 44 21.5t26 53t15.5 68.5t12.5 68h96l-29 -138q-31 -111 -91 -154.5t-152 -43.5q-61 0 -100 19.5t-63 49t-33 66.5 t-9 72q-33 -47 -84 -88.5t-113.5 -72t-136.5 -48t-149 -17.5q-178 0 -257 61.5t-79 172.5zM391 256q0 -63 42 -94t140 -31q113 0 203 48t144 114l49 287q-145 -37 -254 -67t-180.5 -63.5t-107.5 -78.5t-36 -115zM524 1346q0 59 43 102t104 43q59 0 102.5 -43t43.5 -102 q0 -61 -43 -104.5t-103 -43.5q-61 0 -104 43t-43 105zM997 1346q0 59 43 102t105 43q61 0 103 -43t42 -102q0 -61 -42 -104.5t-103 -43.5t-104.5 43t-43.5 105z" />
<glyph unicode="&#xe5;" horiz-adv-x="1421" d="M119 201q0 102 40 167.5t107.5 107.5t155.5 66.5t184 41t192.5 32t182.5 41.5q6 33 10 65t4 54q0 88 -50 141.5t-161 53.5q-94 0 -174 -21.5t-127 -56.5q41 -4 70 -25.5t29 -66.5q0 -59 -48.5 -101.5t-121.5 -42.5q-66 0 -97.5 31t-31.5 82q0 55 36.5 110.5t107.5 100.5 t171 73.5t229 28.5q82 0 162 -15t142.5 -52t100.5 -96.5t38 -145.5q-2 -18 -3 -39.5t-5 -44.5l-86 -485q-2 -10 -4.5 -20.5t-2.5 -16.5q0 -57 52 -57q27 0 44 21.5t26 53t15.5 68.5t12.5 68h96l-29 -138q-31 -111 -91 -154.5t-152 -43.5q-61 0 -100 19.5t-63 49t-33 66.5 t-9 72q-33 -47 -84 -88.5t-113.5 -72t-136.5 -48t-149 -17.5q-178 0 -257 61.5t-79 172.5zM391 256q0 -63 42 -94t140 -31q113 0 203 48t144 114l49 287q-145 -37 -254 -67t-180.5 -63.5t-107.5 -78.5t-36 -115zM692 1329q0 43 16.5 82t44 69t65.5 46t81 16t82 -16t68.5 -46 t46 -69t16.5 -82t-16.5 -82.5t-46 -68.5t-68.5 -46.5t-82 -17.5t-81 17.5t-65.5 46.5t-44 68.5t-16.5 82.5zM774 1329q0 -63 33.5 -98t91.5 -35q51 0 87 35t36 98q0 53 -36 91t-87 38q-57 0 -91 -37.5t-34 -91.5z" />
<glyph unicode="&#xe6;" horiz-adv-x="2033" d="M119 215q0 96 39 159.5t104.5 104.5t152.5 64.5t182 41t194.5 33t189.5 39.5l10 64q6 31 6 59q0 86 -50 138.5t-154 52.5q-111 0 -184.5 -21.5t-125.5 -56.5q41 -4 70 -25.5t29 -64.5q0 -61 -48.5 -103.5t-125.5 -42.5q-125 0 -125 113q0 53 36.5 109.5t106.5 101.5 t171 73.5t228 28.5q137 0 228.5 -37.5t134.5 -130.5q86 80 197.5 124t265.5 44q211 0 308 -111.5t97 -297.5q0 -35 -3 -69t-7 -68h-817q-4 -35 -7 -67t-3 -62q0 -141 55 -225.5t186 -84.5q117 0 218.5 56.5t160.5 187.5l127 -25q-31 -68 -78 -131t-113.5 -112t-153.5 -79 t-196 -30q-82 0 -151.5 13.5t-124.5 46t-93 85t-57 132.5q-92 -123 -226 -200t-320 -77q-174 0 -254 63.5t-80 186.5zM391 268q0 -139 178 -139q111 0 204 48t147 116l49 287q-147 -35 -256 -64t-180.5 -62.5t-106.5 -77.5t-35 -108zM1249 645h559q2 18 3 39t1 39 q0 49 -10 93t-33.5 78t-61.5 54.5t-91 20.5q-127 0 -224.5 -76t-142.5 -248z" />
<glyph unicode="&#xe7;" horiz-adv-x="1216" d="M166 449q0 111 46 223t133 203.5t210 149.5t276 58q100 0 181.5 -21.5t136.5 -58t85 -85t30 -101.5q0 -80 -46.5 -130t-123.5 -50q-63 0 -96 30.5t-33 80.5q0 57 41 95t100 42q-29 39 -83 61.5t-163 22.5q-82 0 -155.5 -36t-130 -102.5t-89 -162t-32.5 -213.5 q0 -102 19.5 -170t54 -110t82.5 -59.5t106 -17.5q111 0 204 62.5t142 210.5l141 -15q-25 -72 -68.5 -141.5t-107 -123.5t-146.5 -89t-186 -37l-8 -47q66 -4 118 -44t52 -128q0 -37 -14.5 -70.5t-42 -60.5t-67.5 -43t-91 -16q-70 0 -109.5 31.5t-48.5 76.5l45 37 q33 -63 107 -63q49 0 79.5 28.5t30.5 83.5q0 59 -41.5 82t-97.5 29l17 106q-106 6 -191.5 36t-144 87t-90 145.5t-31.5 213.5z" />
<glyph unicode="&#xe8;" horiz-adv-x="1261" d="M166 430q0 137 50 257t139 208t213 138t272 50q233 0 342.5 -108.5t109.5 -300.5q0 -33 -2 -68t-10 -69h-819q-4 -25 -6 -58t-2 -61q0 -70 12 -128.5t41 -101.5t78 -66.5t123 -23.5q111 0 207 56.5t155 187.5l137 -25q-31 -68 -79 -131t-114.5 -112t-152.5 -79t-190 -30 q-100 0 -191.5 20.5t-161 73t-110.5 142.5t-41 229zM481 645h561q6 37 7 78q0 47 -12.5 92t-38 79t-67.5 54.5t-102 20.5q-117 0 -210 -79t-138 -245zM528 1366q0 35 30 69.5t102 34.5q45 0 91 -22.5t95 -56t103.5 -71.5t119.5 -69l-53 -71q-84 27 -170 41t-156.5 31.5 t-116 42t-45.5 71.5z" />
<glyph unicode="&#xe9;" horiz-adv-x="1261" d="M166 430q0 137 50 257t139 208t213 138t272 50q233 0 342.5 -108.5t109.5 -300.5q0 -33 -2 -68t-10 -69h-819q-4 -25 -6 -58t-2 -61q0 -70 12 -128.5t41 -101.5t78 -66.5t123 -23.5q111 0 207 56.5t155 187.5l137 -25q-31 -68 -79 -131t-114.5 -112t-152.5 -79t-190 -30 q-100 0 -191.5 20.5t-161 73t-110.5 142.5t-41 229zM481 645h561q6 37 7 78q0 47 -12.5 92t-38 79t-67.5 54.5t-102 20.5q-117 0 -210 -79t-138 -245zM614 1251q70 27 135.5 65t124.5 71.5t115.5 58t109.5 24.5t76 -23.5t23 -53.5q0 -39 -33 -67t-84 -48.5t-115.5 -34.5 t-126 -24.5t-114.5 -19.5t-84 -19q-14 31 -27 71z" />
<glyph unicode="&#xea;" horiz-adv-x="1261" d="M166 430q0 137 50 257t139 208t213 138t272 50q233 0 342.5 -108.5t109.5 -300.5q0 -33 -2 -68t-10 -69h-819q-4 -25 -6 -58t-2 -61q0 -70 12 -128.5t41 -101.5t78 -66.5t123 -23.5q111 0 207 56.5t155 187.5l137 -25q-31 -68 -79 -131t-114.5 -112t-152.5 -79t-190 -30 q-100 0 -191.5 20.5t-161 73t-110.5 142.5t-41 229zM481 645h561q6 37 7 78q0 47 -12.5 92t-38 79t-67.5 54.5t-102 20.5q-117 0 -210 -79t-138 -245zM496 1233l381 237l293 -239l-86 -60l-236 111l-280 -111z" />
<glyph unicode="&#xeb;" horiz-adv-x="1261" d="M166 430q0 137 50 257t139 208t213 138t272 50q233 0 342.5 -108.5t109.5 -300.5q0 -33 -2 -68t-10 -69h-819q-4 -25 -6 -58t-2 -61q0 -70 12 -128.5t41 -101.5t78 -66.5t123 -23.5q111 0 207 56.5t155 187.5l137 -25q-31 -68 -79 -131t-114.5 -112t-152.5 -79t-190 -30 q-100 0 -191.5 20.5t-161 73t-110.5 142.5t-41 229zM475 1346q0 59 43 102t104 43q59 0 102.5 -43t43.5 -102q0 -61 -43 -104.5t-103 -43.5q-61 0 -104 43t-43 105zM481 645h561q6 37 7 78q0 47 -12.5 92t-38 79t-67.5 54.5t-102 20.5q-117 0 -210 -79t-138 -245zM948 1346 q0 59 43 102t105 43q61 0 103 -43t42 -102q0 -61 -42 -104.5t-103 -43.5t-104.5 43t-43.5 105z" />
<glyph unicode="&#xec;" horiz-adv-x="806" d="M82 0l18 117q180 0 197 92l113 639q0 80 -166 80l20 114h463l-149 -847q0 -78 170 -78l-21 -117h-645zM272 1366q0 35 30 69.5t102 34.5q45 0 91 -22.5t95 -56t103.5 -71.5t119.5 -69l-53 -71q-84 27 -170 41t-156.5 31.5t-116 42t-45.5 71.5z" />
<glyph unicode="&#xed;" horiz-adv-x="806" d="M82 0l18 117q180 0 197 92l113 639q0 80 -166 80l20 114h463l-149 -847q0 -78 170 -78l-21 -117h-645zM356 1251q70 27 135.5 65t124.5 71.5t115.5 58t109.5 24.5t76 -23.5t23 -53.5q0 -39 -33 -67t-84 -48.5t-115.5 -34.5t-126 -24.5t-114.5 -19.5t-84 -19 q-14 31 -27 71z" />
<glyph unicode="&#xee;" horiz-adv-x="806" d="M82 0l18 117q180 0 197 92l113 639q0 80 -166 80l20 114h463l-149 -847q0 -78 170 -78l-21 -117h-645zM266 1233l381 237l293 -239l-86 -60l-236 111l-280 -111z" />
<glyph unicode="&#xef;" horiz-adv-x="806" d="M82 0l18 117q180 0 197 92l113 639q0 80 -166 80l20 114h463l-149 -847q0 -78 170 -78l-21 -117h-645zM234 1346q0 59 43 102t104 43q59 0 102.5 -43t43.5 -102q0 -61 -43 -104.5t-103 -43.5q-61 0 -104 43t-43 105zM707 1346q0 59 43 102t105 43q61 0 103 -43t42 -102 q0 -61 -42 -104.5t-103 -43.5t-104.5 43t-43.5 105z" />
<glyph unicode="&#xf0;" horiz-adv-x="1310" d="M160 395q0 123 47 230.5t133 187.5t205 126t262 46q70 0 134.5 -13.5t115.5 -33.5q-8 86 -36 157.5t-63 137.5l-210 -154l-54 84l215 158q-33 45 -70.5 82t-80.5 63l69 109q119 -55 222 -158l215 158l57 -82l-201 -147q111 -141 170.5 -305t59.5 -345q0 -166 -47.5 -301 t-133.5 -230t-205.5 -147.5t-265.5 -52.5q-121 0 -220 23.5t-169.5 75t-109.5 133.5t-39 198zM442 385q0 -90 17.5 -145.5t51.5 -88t85 -44t119 -11.5q84 0 147.5 45t105.5 118t63.5 162t21.5 177q0 135 -49.5 203.5t-180.5 68.5q-98 0 -170.5 -45t-119 -115.5t-69 -156.5 t-22.5 -168z" />
<glyph unicode="&#xf1;" horiz-adv-x="1609" d="M82 0l18 117q180 0 197 92l113 635q0 84 -166 84l20 114h463l-37 -208q98 98 228.5 163.5t283.5 65.5q135 0 210 -52.5t75 -174.5q0 -37 -8 -78l-99 -563q0 -78 168 -78l-18 -117h-606l18 117q55 0 100 22.5t56 69.5l82 455q8 33 8 84q0 29 -5 56t-19.5 50t-37 36 t-57.5 13q-53 0 -110.5 -20.5t-114 -57.5t-105.5 -86t-84 -106l-77 -445q0 -72 127 -71l-19 -117h-604zM576 1249q25 49 60.5 87t76.5 63.5t84 38t84 12.5q72 0 113 -15.5t71.5 -33t60.5 -32.5t77 -15q41 0 79.5 15t79.5 73l107 -41q-43 -98 -125 -150.5t-180 -52.5 q-53 0 -94 15.5t-76 34t-70 33.5t-76 15q-49 0 -94 -23.5t-80 -70.5z" />
<glyph unicode="&#xf2;" horiz-adv-x="1310" d="M164 416q0 143 48 266t134 212t205 139t260 50q121 0 220 -23.5t169 -75.5t108 -136t38 -205q0 -141 -48.5 -265t-134.5 -215t-206.5 -144.5t-264.5 -53.5q-117 0 -213 22.5t-166.5 75t-109.5 139.5t-39 214zM446 408q0 -92 16.5 -151.5t50.5 -95.5t82 -50.5t114 -14.5 q86 0 151.5 48.5t109.5 125t67.5 175t23.5 196.5q0 90 -17.5 149.5t-51.5 94.5t-83 49t-110 14q-86 0 -152.5 -49t-110.5 -126t-67 -174t-23 -191zM565 1366q0 35 30 69.5t102 34.5q45 0 91 -22.5t95 -56t103.5 -71.5t119.5 -69l-53 -71q-84 27 -170 41t-156.5 31.5t-116 42 t-45.5 71.5z" />
<glyph unicode="&#xf3;" horiz-adv-x="1310" d="M164 416q0 143 48 266t134 212t205 139t260 50q121 0 220 -23.5t169 -75.5t108 -136t38 -205q0 -141 -48.5 -265t-134.5 -215t-206.5 -144.5t-264.5 -53.5q-117 0 -213 22.5t-166.5 75t-109.5 139.5t-39 214zM446 408q0 -92 16.5 -151.5t50.5 -95.5t82 -50.5t114 -14.5 q86 0 151.5 48.5t109.5 125t67.5 175t23.5 196.5q0 90 -17.5 149.5t-51.5 94.5t-83 49t-110 14q-86 0 -152.5 -49t-110.5 -126t-67 -174t-23 -191zM629 1251q70 27 135.5 65t124.5 71.5t115.5 58t109.5 24.5t76 -23.5t23 -53.5q0 -39 -33 -67t-84 -48.5t-115.5 -34.5 t-126 -24.5t-114.5 -19.5t-84 -19q-14 31 -27 71z" />
<glyph unicode="&#xf4;" horiz-adv-x="1310" d="M164 416q0 143 48 266t134 212t205 139t260 50q121 0 220 -23.5t169 -75.5t108 -136t38 -205q0 -141 -48.5 -265t-134.5 -215t-206.5 -144.5t-264.5 -53.5q-117 0 -213 22.5t-166.5 75t-109.5 139.5t-39 214zM446 408q0 -92 16.5 -151.5t50.5 -95.5t82 -50.5t114 -14.5 q86 0 151.5 48.5t109.5 125t67.5 175t23.5 196.5q0 90 -17.5 149.5t-51.5 94.5t-83 49t-110 14q-86 0 -152.5 -49t-110.5 -126t-67 -174t-23 -191zM520 1233l381 237l293 -239l-86 -60l-236 111l-280 -111z" />
<glyph unicode="&#xf5;" horiz-adv-x="1310" d="M164 416q0 143 48 266t134 212t205 139t260 50q121 0 220 -23.5t169 -75.5t108 -136t38 -205q0 -141 -48.5 -265t-134.5 -215t-206.5 -144.5t-264.5 -53.5q-117 0 -213 22.5t-166.5 75t-109.5 139.5t-39 214zM424 1249q25 49 60.5 87t76.5 63.5t84 38t84 12.5 q72 0 113 -15.5t71.5 -33t60.5 -32.5t77 -15q41 0 79.5 15t79.5 73l107 -41q-43 -98 -125 -150.5t-180 -52.5q-53 0 -94 15.5t-76 34t-70 33.5t-76 15q-49 0 -94 -23.5t-80 -70.5zM446 408q0 -92 16.5 -151.5t50.5 -95.5t82 -50.5t114 -14.5q86 0 151.5 48.5t109.5 125 t67.5 175t23.5 196.5q0 90 -17.5 149.5t-51.5 94.5t-83 49t-110 14q-86 0 -152.5 -49t-110.5 -126t-67 -174t-23 -191z" />
<glyph unicode="&#xf6;" horiz-adv-x="1310" d="M164 416q0 143 48 266t134 212t205 139t260 50q121 0 220 -23.5t169 -75.5t108 -136t38 -205q0 -141 -48.5 -265t-134.5 -215t-206.5 -144.5t-264.5 -53.5q-117 0 -213 22.5t-166.5 75t-109.5 139.5t-39 214zM446 408q0 -92 16.5 -151.5t50.5 -95.5t82 -50.5t114 -14.5 q86 0 151.5 48.5t109.5 125t67.5 175t23.5 196.5q0 90 -17.5 149.5t-51.5 94.5t-83 49t-110 14q-86 0 -152.5 -49t-110.5 -126t-67 -174t-23 -191zM490 1346q0 59 43 102t104 43q59 0 102.5 -43t43.5 -102q0 -61 -43 -104.5t-103 -43.5q-61 0 -104 43t-43 105zM963 1346 q0 59 43 102t105 43q61 0 103 -43t42 -102q0 -61 -42 -104.5t-103 -43.5t-104.5 43t-43.5 105z" />
<glyph unicode="&#xf7;" horiz-adv-x="1142" d="M195 651v150h1009v-150h-1009zM565 336q0 57 40 97t97 40t97.5 -40t40.5 -97t-40 -97t-98 -40q-57 0 -97 40t-40 97zM565 1110q0 57 40 97t97 40t97.5 -40t40.5 -97t-40 -97t-98 -40q-57 0 -97 40t-40 97z" />
<glyph unicode="&#xf8;" horiz-adv-x="1310" d="M164 416q0 143 48 266t134 212t205 139t260 50q74 0 137.5 -10t118.5 -29l102 142l113 -76l-90 -121q74 -53 114 -137t40 -209q0 -141 -48.5 -265t-134.5 -215t-206.5 -144.5t-264.5 -53.5q-133 0 -239 31l-103 -139l-112 73l90 121q-80 51 -122 140.5t-42 224.5z M449 444q0 -127 40 -186l480 649q-33 23 -75 32t-95 9q-82 0 -146.5 -43t-109.5 -113.5t-69.5 -161.5t-24.5 -186zM549 131q31 -20 70.5 -27.5t89.5 -7.5q84 0 150.5 46t112.5 122t70.5 172t24.5 197q0 88 -29 158z" />
<glyph unicode="&#xf9;" horiz-adv-x="1544" d="M244 928l20 114h459l-119 -667q-4 -29 -7 -52.5t-3 -48.5q0 -61 27.5 -100t105.5 -39q45 0 94 20.5t96.5 56.5t91.5 85t78 109l76 442q0 80 -168 80l21 114h465l-148 -849q0 -76 148 -76l-19 -117h-446l35 205q-39 -45 -88.5 -86t-106.5 -72t-123.5 -49t-142.5 -18 q-141 0 -214 52t-73 169q0 23 2 43t6 41l99 565q0 78 -166 78zM667 1366q0 35 30 69.5t102 34.5q45 0 91 -22.5t95 -56t103.5 -71.5t119.5 -69l-53 -71q-84 27 -170 41t-156.5 31.5t-116 42t-45.5 71.5z" />
<glyph unicode="&#xfa;" horiz-adv-x="1544" d="M244 928l20 114h459l-119 -667q-4 -29 -7 -52.5t-3 -48.5q0 -61 27.5 -100t105.5 -39q45 0 94 20.5t96.5 56.5t91.5 85t78 109l76 442q0 80 -168 80l21 114h465l-148 -849q0 -76 148 -76l-19 -117h-446l35 205q-39 -45 -88.5 -86t-106.5 -72t-123.5 -49t-142.5 -18 q-141 0 -214 52t-73 169q0 23 2 43t6 41l99 565q0 78 -166 78zM733 1251q70 27 135.5 65t124.5 71.5t115.5 58t109.5 24.5t76 -23.5t23 -53.5q0 -39 -33 -67t-84 -48.5t-115.5 -34.5t-126 -24.5t-114.5 -19.5t-84 -19q-14 31 -27 71z" />
<glyph unicode="&#xfb;" horiz-adv-x="1544" d="M244 928l20 114h459l-119 -667q-4 -29 -7 -52.5t-3 -48.5q0 -61 27.5 -100t105.5 -39q45 0 94 20.5t96.5 56.5t91.5 85t78 109l76 442q0 80 -168 80l21 114h465l-148 -849q0 -76 148 -76l-19 -117h-446l35 205q-39 -45 -88.5 -86t-106.5 -72t-123.5 -49t-142.5 -18 q-141 0 -214 52t-73 169q0 23 2 43t6 41l99 565q0 78 -166 78zM631 1233l381 237l293 -239l-86 -60l-236 111l-280 -111z" />
<glyph unicode="&#xfc;" horiz-adv-x="1544" d="M244 928l20 114h459l-119 -667q-4 -29 -7 -52.5t-3 -48.5q0 -61 27.5 -100t105.5 -39q45 0 94 20.5t96.5 56.5t91.5 85t78 109l76 442q0 80 -168 80l21 114h465l-148 -849q0 -76 148 -76l-19 -117h-446l35 205q-39 -45 -88.5 -86t-106.5 -72t-123.5 -49t-142.5 -18 q-141 0 -214 52t-73 169q0 23 2 43t6 41l99 565q0 78 -166 78zM596 1346q0 59 43 102t104 43q59 0 102.5 -43t43.5 -102q0 -61 -43 -104.5t-103 -43.5q-61 0 -104 43t-43 105zM1069 1346q0 59 43 102t105 43q61 0 103 -43t42 -102q0 -61 -42 -104.5t-103 -43.5t-104.5 43 t-43.5 105z" />
<glyph unicode="&#xfd;" horiz-adv-x="1417" d="M18 -229q0 16 8.5 44.5t28 57.5t51 49.5t78.5 20.5q72 0 102.5 -29t30.5 -78q0 -18 -7 -40.5t-24.5 -42t-43 -33t-62.5 -15.5q14 -29 46 -48t110 -19q53 0 105.5 34.5t97.5 106.5l67 108l-244 967q-10 35 -46.5 53.5t-90.5 18.5l21 116h581l-20 -116h-102 q-39 0 -53.5 -16.5t-14.5 -45.5l158 -686l395 660q14 20 14 43q0 45 -82 45h-65l20 116h453l-21 -116q-76 0 -114.5 -17.5t-59.5 -52.5l-542 -905q-61 -102 -113.5 -180t-108 -131.5t-121 -80t-153.5 -26.5q-129 0 -204 60.5t-75 177.5zM698 1251q70 27 135.5 65t124.5 71.5 t115.5 58t109.5 24.5t76 -23.5t23 -53.5q0 -39 -33 -67t-84 -48.5t-115.5 -34.5t-126 -24.5t-114.5 -19.5t-84 -19q-14 31 -27 71z" />
<glyph unicode="&#xfe;" horiz-adv-x="1390" d="M-80 -483l21 114q180 0 196 93l289 1650q0 86 -166 86l21 117h469l-113 -643q59 74 153.5 110.5t186.5 36.5q98 0 181 -18.5t144.5 -66.5t95.5 -131t34 -210q0 -166 -52.5 -295t-140.5 -217t-200.5 -134t-231.5 -46q-246 0 -328 100l-59 -352q0 -80 213 -80l-21 -114 h-692zM524 424q0 -166 54.5 -248t191.5 -82q98 0 170 54.5t118 137.5t67.5 179t21.5 180q0 143 -55.5 221t-200.5 78q-98 0 -167 -50t-114 -127t-65.5 -169t-20.5 -174z" />
<glyph unicode="&#xff;" horiz-adv-x="1417" d="M18 -229q0 16 8.5 44.5t28 57.5t51 49.5t78.5 20.5q72 0 102.5 -29t30.5 -78q0 -18 -7 -40.5t-24.5 -42t-43 -33t-62.5 -15.5q14 -29 46 -48t110 -19q53 0 105.5 34.5t97.5 106.5l67 108l-244 967q-10 35 -46.5 53.5t-90.5 18.5l21 116h581l-20 -116h-102 q-39 0 -53.5 -16.5t-14.5 -45.5l158 -686l395 660q14 20 14 43q0 45 -82 45h-65l20 116h453l-21 -116q-76 0 -114.5 -17.5t-59.5 -52.5l-542 -905q-61 -102 -113.5 -180t-108 -131.5t-121 -80t-153.5 -26.5q-129 0 -204 60.5t-75 177.5zM573 1346q0 59 43 102t104 43 q59 0 102.5 -43t43.5 -102q0 -61 -43 -104.5t-103 -43.5q-61 0 -104 43t-43 105zM1046 1346q0 59 43 102t105 43q61 0 103 -43t42 -102q0 -61 -42 -104.5t-103 -43.5t-104.5 43t-43.5 105z" />
<glyph unicode="&#x152;" horiz-adv-x="2576" d="M184 610q0 180 63.5 351.5t185.5 302.5t300 210.5t410 79.5q72 0 130 -5t111.5 -11t104.5 -11t108 -5h1098l-82 -463l-147 -8q0 76 -8.5 133t-31 96t-64.5 59.5t-109 20.5h-455l-86 -494h225q125 0 189 248h129l-146 -639h-124q0 72 -2.5 121t-11.5 79t-25.5 42t-47.5 12 h-210l-101 -569h379q350 0 467 438l147 -14l-153 -584h-1098q-57 0 -110.5 -5t-110.5 -11.5t-120.5 -11.5t-141.5 -5q-145 0 -266 31t-209 104.5t-137.5 197.5t-49.5 310zM512 594q0 -139 25.5 -228.5t72.5 -139.5t117 -68.5t156 -18.5q117 0 197.5 19.5t136 71t92.5 137.5 t65 219q14 61 27.5 131.5t24 138.5t16.5 130.5t6 109.5q0 92 -18.5 149.5t-56.5 88t-99.5 40.5t-147.5 10q-168 0 -284.5 -71.5t-190 -185t-106.5 -255t-33 -278.5z" />
<glyph unicode="&#x153;" horiz-adv-x="2127" d="M164 397q0 147 48 273.5t136 217.5t211 143t275 52q154 0 262 -39.5t164 -134.5q86 80 200.5 126t257.5 46q117 0 199 -30.5t134 -87t75.5 -136t23.5 -176.5q0 -29 -2 -57.5t-6 -56.5h-819q-4 -35 -7 -66t-3 -59q0 -315 250 -316q109 0 211 56.5t163 189.5l125 -25 q-31 -68 -78 -131t-113.5 -112t-153.5 -79t-197 -30q-127 0 -236.5 37t-167.5 139q-86 -86 -199.5 -131t-248.5 -45q-106 0 -198.5 20.5t-160 69.5t-106.5 132t-39 210zM446 399q0 -92 16.5 -151.5t49.5 -93t80 -46t108 -12.5q88 0 156 52.5t114 136.5t68.5 187t22.5 208 q0 80 -16.5 132t-49 82t-80 42t-108.5 12q-90 0 -157.5 -51t-112.5 -131t-68 -177t-23 -190zM1343 645h562q6 37 6 76q0 49 -11.5 93t-38 79t-67.5 55.5t-102 20.5q-117 0 -210 -79t-139 -245z" />
<glyph unicode="&#x178;" horiz-adv-x="1720" d="M305 1403l23 119h762l-23 -119h-170q-29 0 -47.5 -10.5t-18.5 -30.5q0 -16 9 -31l245 -526l437 520q12 14 12 35q0 43 -78 43h-102l22 119h545l-23 -121q-74 0 -118.5 -15.5t-67.5 -42.5l-594 -686l-80 -458q0 -80 195 -80l-21 -119h-737l21 119q205 0 225 94l80 444 l-342 684q-18 35 -56 48.5t-98 13.5zM825 1858q0 59 43 102t104 43q59 0 102.5 -43t43.5 -102q0 -61 -43 -104.5t-103 -43.5q-61 0 -104 43t-43 105zM1298 1858q0 59 43 102t105 43q61 0 103 -43t42 -102q0 -61 -42 -104.5t-103 -43.5t-104.5 43t-43.5 105z" />
<glyph unicode="&#x2c6;" horiz-adv-x="827" d="M293 1233l381 237l293 -239l-86 -60l-236 111l-280 -111z" />
<glyph unicode="&#x2dc;" horiz-adv-x="1019" d="M297 1249q25 49 60.5 87t76.5 63.5t84 38t84 12.5q72 0 113 -15.5t71.5 -33t60.5 -32.5t77 -15q41 0 79.5 15t79.5 73l107 -41q-43 -98 -125 -150.5t-180 -52.5q-53 0 -94 15.5t-76 34t-70 33.5t-76 15q-49 0 -94 -23.5t-80 -70.5z" />
<glyph unicode="&#x2000;" horiz-adv-x="1001" />
<glyph unicode="&#x2001;" horiz-adv-x="2003" />
<glyph unicode="&#x2002;" horiz-adv-x="1001" />
<glyph unicode="&#x2003;" horiz-adv-x="2003" />
<glyph unicode="&#x2004;" horiz-adv-x="667" />
<glyph unicode="&#x2005;" horiz-adv-x="500" />
<glyph unicode="&#x2006;" horiz-adv-x="333" />
<glyph unicode="&#x2007;" horiz-adv-x="333" />
<glyph unicode="&#x2008;" horiz-adv-x="250" />
<glyph unicode="&#x2009;" horiz-adv-x="400" />
<glyph unicode="&#x200a;" horiz-adv-x="111" />
<glyph unicode="&#x2010;" horiz-adv-x="702" d="M145 506l29 160h586l-29 -160h-586z" />
<glyph unicode="&#x2011;" horiz-adv-x="702" d="M145 506l29 160h586l-29 -160h-586z" />
<glyph unicode="&#x2012;" horiz-adv-x="702" d="M145 506l29 160h586l-29 -160h-586z" />
<glyph unicode="&#x2013;" horiz-adv-x="1243" d="M145 506l29 160h1126l-28 -160h-1127z" />
<glyph unicode="&#x2014;" horiz-adv-x="2101" d="M145 506l29 160h1987l-29 -160h-1987z" />
<glyph unicode="&#x2018;" horiz-adv-x="524" d="M283 1161q0 147 98 257t276 188l43 -76q-66 -33 -107.5 -63.5t-65 -58.5t-33 -52.5t-9.5 -44.5q0 -14 23.5 -20.5t53.5 -18.5t53.5 -33.5t23.5 -67.5q0 -86 -57.5 -131t-135.5 -45q-164 0 -163 166z" />
<glyph unicode="&#x2019;" horiz-adv-x="524" d="M274 1051q129 66 171 119t42 96q0 29 -26 28q-125 0 -125 115q0 86 56.5 131t133.5 45q166 0 166 -166q0 -147 -100 -256.5t-275 -187.5z" />
<glyph unicode="&#x201a;" horiz-adv-x="524" d="M47 -242q129 66 171 119t42 96q0 29 -27 29q-125 0 -124 115q0 86 56 131t134 45q166 0 166 -166q0 -147 -100.5 -257t-274.5 -187z" />
<glyph unicode="&#x201c;" horiz-adv-x="1005" d="M283 1161q0 147 98 257t276 188l43 -76q-66 -33 -107.5 -63.5t-65 -58.5t-33 -52.5t-9.5 -44.5q0 -14 23.5 -20.5t53.5 -18.5t53.5 -33.5t23.5 -67.5q0 -86 -57.5 -131t-135.5 -45q-164 0 -163 166zM764 1161q0 147 100.5 257t274.5 188q10 -18 22.5 -37t22.5 -39 q-68 -35 -110 -65.5t-65.5 -57.5t-31.5 -50.5t-8 -43.5q0 -25 26 -25q61 0 94 -30.5t33 -86.5q0 -86 -56 -131t-136 -45q-166 0 -166 166z" />
<glyph unicode="&#x201d;" horiz-adv-x="1005" d="M274 1051q129 66 171 119t42 96q0 29 -26 28q-125 0 -125 115q0 86 56.5 131t133.5 45q166 0 166 -166q0 -147 -100 -256.5t-275 -187.5zM758 1051q129 66 172 120t43 95q0 29 -29 28q-59 0 -93 30t-34 85q0 86 57.5 131t137.5 45q164 0 164 -166q0 -147 -100.5 -256.5 t-274.5 -187.5z" />
<glyph unicode="&#x201e;" horiz-adv-x="1187" d="M137 -242q129 66 171 119t42 96q0 29 -26 29q-125 0 -125 113q0 86 55 132t137 46q164 0 164 -166q0 -147 -100.5 -257t-274.5 -187zM621 -242q129 66 171 119t42 96q0 29 -29 29q-123 0 -123 115q0 86 56.5 131t133.5 45q164 0 164 -166q0 -147 -100 -257t-274 -187z " />
<glyph unicode="&#x2022;" horiz-adv-x="835" d="M203 743q0 70 24.5 128.5t70.5 100.5t110.5 65.5t144.5 23.5q76 0 138.5 -23.5t107.5 -65.5t70.5 -100.5t25.5 -128.5q0 -72 -25.5 -130t-70.5 -100t-107.5 -64.5t-138.5 -22.5q-160 0 -255 87t-95 230z" />
<glyph unicode="&#x2026;" horiz-adv-x="2254" d="M195 145q0 66 47 114t114 48q66 0 114 -48t48 -114q0 -68 -48 -114.5t-114 -46.5q-68 0 -114.5 47t-46.5 114zM983 145q0 66 48 114t114 48t114 -48t48 -114q0 -68 -48.5 -114.5t-113.5 -46.5q-66 0 -114 47t-48 114zM1774 145q0 66 48 114t113 48q68 0 115 -48t47 -114 q0 -68 -47 -114.5t-115 -46.5q-66 0 -113.5 47t-47.5 114z" />
<glyph unicode="&#x202f;" horiz-adv-x="400" />
<glyph unicode="&#x2039;" horiz-adv-x="659" d="M160 590l528 409l74 -106l-309 -315l194 -314l-104 -88z" />
<glyph unicode="&#x203a;" horiz-adv-x="659" d="M104 281l308 315l-193 315l103 86l385 -411l-533 -410z" />
<glyph unicode="&#x205f;" horiz-adv-x="500" />
<glyph unicode="&#x20ac;" horiz-adv-x="1589" d="M170 502l43 102h86q2 68 18 135h-104l43 101h88q41 121 116 223t176 176t227 116t270 42q113 0 201.5 -23.5t150 -66.5t94.5 -101.5t33 -126.5q0 -82 -47 -131t-125 -49q-66 0 -100.5 33t-34.5 86q0 25 10 49.5t27.5 43.5t39 32.5t45.5 15.5q-23 53 -99.5 85t-205.5 32 q-78 0 -150.5 -35t-135 -94.5t-112.5 -139t-83 -167.5h573l-67 -101h-535q-16 -68 -18 -135h461l-70 -102h-391q12 -178 90 -279.5t248 -101.5q162 0 264 66.5t164 177.5l127 -39q-43 -76 -96.5 -141.5t-127 -113.5t-172 -76t-231.5 -28q-119 0 -219 33t-174 99.5t-118 167 t-50 235.5h-129z" />
<glyph unicode="&#x2122;" horiz-adv-x="1839" d="M326 1249v273h667v-273l-69 -4q-16 188 -115 189h-68v-457q0 -33 72 -33v-70h-305v70q74 0 74 33v457h-70q-55 0 -80.5 -45.5t-34.5 -143.5zM1102 874v70q76 0 76 33v440q0 35 -76 35v70h287l176 -475l180 475h260v-70q-76 0 -76 -35v-440q0 -33 76 -33v-70h-305v70 q74 0 74 33v393l-185 -496h-135l-182 496v-393q0 -33 74 -33v-70h-244z" />
<glyph unicode="&#x25fc;" horiz-adv-x="1044" d="M0 0v1044h1044v-1044h-1044z" />
</font>
</defs>
</svg>
